<?xml version="1.0" standalone="no"?>
<!DOCTYPE svg PUBLIC "-//W3C//DTD SVG 1.1//EN" "http://www.w3.org/Graphics/SVG/1.1/DTD/svg11.dtd" >
<svg xmlns="http://www.w3.org/2000/svg" xmlns:xlink="http://www.w3.org/1999/xlink" version="1.1">
<metadata>
Created by FontForge 20201107 at Wed Mar 14 21:43:12 2018
 By Jimmy Wärting
Copyright (c) 2018 by Fontfabric. All rights reserved.
</metadata>
<defs>
<font id="Gilam-Bold" horiz-adv-x="1269" >
  <font-face 
    font-family="Gilam Bold"
    font-weight="700"
    font-stretch="normal"
    units-per-em="2048"
    panose-1="0 0 8 0 0 0 0 0 0 0"
    ascent="1638"
    descent="-410"
    x-height="1053"
    cap-height="1434"
    bbox="-862 -618 2482 2230"
    underline-thickness="0"
    underline-position="0"
    unicode-range="U+0020-25CA"
  />
<missing-glyph horiz-adv-x="1024" 
d="M840 1577v-2048h-650v2048h650zM682 1440h-338v-68h133v-76h-135v-67h340v67h-135v76h135v68zM547 1176h-205v-213h340v69h-135v144zM477 1106v-74h-67v74h67zM682 907h-340v-67h135v-76h-135v-68h205v144h135v67zM682 784h-68v-135h-272v-69h340v204zM682 535h-205v-115
h70v47h67v-96h-204v164h-68v-232h340v232zM682 180h-340v-231h340v231zM614 113v-97h-204v97h204zM682 -98h-340v-68h143l-143 -96v-68h340v68h-209l143 96h66v68z" />
    <glyph glyph-name="f_f.liga" unicode="ff" horiz-adv-x="1544" 
d="M1249 1053v-2h275v-242h-275v-809h-323v809h-400v-809h-323v809h-160v242h160v2q0 406 389 405q106 0 201 -31l16 -245q-61 33 -145 32q-70 0 -104 -35.5t-34 -125.5h400q0 207 104.5 306t298.5 99q113 0 215 -31l17 -245q-70 35 -170 35q-74 0 -108 -37t-34 -127z" />
    <glyph glyph-name="f_i.liga" unicode="fi" horiz-adv-x="1368" 
d="M526 1053h723v-1053h-323v809h-400v-809h-323v809h-160v244h160q0 406 389 405q106 0 201 -31l16 -245q-61 33 -152 32q-68 0 -99.5 -35.5t-31.5 -125.5zM926 1432h323v-242h-323v242z" />
    <glyph glyph-name="f_j.liga" unicode="fj" horiz-adv-x="1368" 
d="M526 1053v-2h723v-996q0 -238 -103.5 -352.5t-293.5 -114.5q-94 0 -172 37l-47 271q63 -37 143 -37q76 0 113 45t37 151v754h-400v-809h-323v809h-160v244h160q0 406 389 405q106 0 201 -31l16 -245q-61 33 -152 32q-68 0 -99.5 -35.5t-31.5 -125.5zM926 1432h323v-242
h-323v242z" />
    <glyph glyph-name=".notdef" horiz-adv-x="1024" 
d="M840 1577v-2048h-650v2048h650zM682 1440h-338v-68h133v-76h-135v-67h340v67h-135v76h135v68zM547 1176h-205v-213h340v69h-135v144zM477 1106v-74h-67v74h67zM682 907h-340v-67h135v-76h-135v-68h205v144h135v67zM682 784h-68v-135h-272v-69h340v204zM682 535h-205v-115
h70v47h67v-96h-204v164h-68v-232h340v232zM682 180h-340v-231h340v231zM614 113v-97h-204v97h204zM682 -98h-340v-68h143l-143 -96v-68h340v68h-209l143 96h66v68z" />
    <glyph glyph-name="glyph1" horiz-adv-x="0" 
 />
    <glyph glyph-name="glyph2" horiz-adv-x="681" 
 />
    <glyph glyph-name="space" unicode=" " horiz-adv-x="432" 
 />
    <glyph glyph-name="exclam" unicode="!" horiz-adv-x="583" 
d="M186 483l-77 951h364l-78 -951h-209zM121 0v334h342v-334h-342z" />
    <glyph glyph-name="quotedbl" unicode="&#x22;" horiz-adv-x="903" 
d="M154 911l-95 605h353l-90 -605h-168zM582 911l-93 605h353l-92 -605h-168z" />
    <glyph glyph-name="numbersign" unicode="#" horiz-adv-x="1277" 
d="M1217 883h-230l-57 -332h194v-189h-225l-63 -362h-211l61 362h-217l-63 -362h-211l61 362h-197v189h230l55 332h-192v188h225l63 363h211l-61 -363h217l63 363h211l-61 -363h197v-188zM719 551l57 332h-219l-57 -332h219z" />
    <glyph glyph-name="dollar" unicode="$" horiz-adv-x="1179" 
d="M1118 418q0 -186 -106.5 -301t-313.5 -142v-180h-249v180q-86 8 -166 24.5t-117 31.5l-37 12l-45 313q27 -10 73 -25.5t170 -40t230 -24.5q98 0 150.5 38t52.5 108q0 57 -40 92t-134 59l-168 43q-172 45 -254 147.5t-82 280.5q0 170 93 279.5t274 140.5v172h249v-164
q90 -6 171 -22.5t118 -30.5l35 -12l18 -303q-23 8 -59.5 22t-146 37t-209.5 23q-94 0 -141.5 -36t-47.5 -98q0 -59 38 -94t130 -59l170 -43q174 -45 259 -145.5t85 -282.5z" />
    <glyph glyph-name="percent" unicode="%" horiz-adv-x="1740" 
d="M406 713q-348 0 -349 377q0 375 349 374q350 0 350 -374q0 -377 -350 -377zM254 0l971 1434h256l-971 -1434h-256zM406 918q63 0 92.5 40.5t29.5 131.5q0 92 -29.5 133t-92.5 41q-59 0 -89 -41t-30 -133q0 -90 30 -131t89 -41zM1333 -20q-348 0 -348 376q0 375 348 375
q350 0 350 -375q0 -376 -350 -376zM1333 182q61 0 91 42t30 132q0 92 -29.5 132t-91.5 40q-61 0 -90 -41t-29 -131t29 -132t90 -42z" />
    <glyph glyph-name="ampersand" unicode="&#x26;" horiz-adv-x="1413" 
d="M1427 0h-368l-90 94q-178 -117 -402 -117q-246 0 -373.5 109t-127.5 301q0 129 64.5 216t193.5 169q-86 98 -122 173t-36 179q0 145 112.5 238.5t305.5 93.5q190 0 305 -93t115 -239q0 -129 -65 -212t-208 -173l223 -235q63 135 64 289h301q0 -293 -156 -512zM584 1239
q-59 0 -90 -32.5t-31 -88.5q0 -84 100 -200q82 55 112 101t30 99t-33 87t-88 34zM575 227q111 0 205 66l-282 297q-115 -86 -115 -189q0 -80 50 -127t142 -47z" />
    <glyph glyph-name="quotesingle" unicode="'" horiz-adv-x="473" 
d="M154 911l-95 605h353l-90 -605h-168z" />
    <glyph glyph-name="parenleft" unicode="(" horiz-adv-x="671" 
d="M428 -424q-25 20 -61.5 64.5t-91 134.5t-99.5 193.5t-77.5 252t-32.5 302t32.5 302t77.5 252t99.5 193.5t91 134t61.5 64l246 -47q-23 -20 -52.5 -60t-78.5 -126t-88 -184.5t-69 -239.5t-30 -289q0 -147 30 -289.5t69 -239.5t88 -183t78.5 -126t52.5 -61z" />
    <glyph glyph-name="parenright" unicode=")" horiz-adv-x="671" 
d="M244 -424l-246 47q20 20 51 60.5t80 126.5t88 183t67.5 239.5t28.5 289.5t-28.5 288.5t-67.5 240t-88 184.5t-80 126t-51 60l246 47q25 -20 60.5 -64t91 -134t100.5 -193.5t77.5 -252t32.5 -302t-32.5 -302t-77.5 -252t-100.5 -193.5t-91 -134.5t-60.5 -64.5z" />
    <glyph glyph-name="asterisk" unicode="*" horiz-adv-x="755" 
d="M289 846l-176 121l168 147l-213 31l73 198l178 -116l-47 215h213l-49 -215l180 112l72 -192l-211 -33l166 -147l-174 -121l-90 205z" />
    <glyph glyph-name="plus" unicode="+" horiz-adv-x="1136" 
d="M1071 840v-267h-369v-370h-268v370h-368v267h368v370h268v-370h369z" />
    <glyph glyph-name="comma" unicode="," horiz-adv-x="567" 
d="M72 -270l51 604h360l-241 -604h-170z" />
    <glyph glyph-name="hyphen" unicode="-" horiz-adv-x="772" 
d="M106 461v266h560v-266h-560z" />
    <glyph glyph-name="period" unicode="." horiz-adv-x="559" 
d="M109 0v334h342v-334h-342z" />
    <glyph glyph-name="slash" unicode="/" horiz-adv-x="923" 
d="M313 -184h-274l571 1802h275z" />
    <glyph glyph-name="zero" unicode="0" horiz-adv-x="1257" 
d="M629 -31q-289 0 -416 175t-127 572.5t127 572.5t416 175q287 0 412.5 -175t125.5 -572.5t-125.5 -572.5t-412.5 -175zM627.5 262q113.5 0 155.5 94.5t42 360.5q0 182 -18.5 279.5t-59 136t-118.5 38.5t-120 -38.5t-61.5 -136t-19.5 -279.5q0 -266 43 -360.5t156.5 -94.5z
" />
    <glyph glyph-name="one" unicode="1" horiz-adv-x="811" 
d="M39 1219l627 245v-1464h-338v1026l-289 -115v308z" />
    <glyph glyph-name="two" unicode="2" horiz-adv-x="1122" 
d="M512 295h518v-295h-962v238l401 385q127 125 172 203.5t45 164.5q0 178 -217 178q-100 0 -203.5 -29.5t-171.5 -66.5l21 299q68 35 183.5 63.5t240.5 28.5q236 0 363.5 -113.5t127.5 -316.5q0 -152 -74.5 -282.5t-271.5 -307.5z" />
    <glyph glyph-name="three" unicode="3" horiz-adv-x="1138" 
d="M1057 387q2 -203 -130 -309.5t-378 -106.5q-238 0 -436 70l-47 295q186 -76 411 -76q236 0 234 160q0 82 -44 123t-147 41h-256v278h230q100 0 142 40t42 120q0 158 -217 158q-201 0 -363 -88l19 297q203 76 434 75q227 0 348 -100t121 -295q0 -240 -174 -328
q209 -84 211 -354z" />
    <glyph glyph-name="four" unicode="4" horiz-adv-x="1206" 
d="M1188 547l-47 -283h-146v-264h-311v264h-647v238l446 932h344l-430 -887h287v287h311v-287h193z" />
    <glyph glyph-name="five" unicode="5" horiz-adv-x="1155" 
d="M618 903q209 0 338 -116.5t129 -337.5q0 -233 -145 -356.5t-424 -123.5q-119 0 -228.5 19.5t-168.5 44.5l-49 309q68 -31 168 -54.5t196 -23.5q164 0 233.5 49t69.5 142q0 96 -68.5 143t-219.5 47q-176 0 -345 -49l68 838h877l-48 -287h-534l-21 -262q84 18 172 18z" />
    <glyph glyph-name="six" unicode="6" horiz-adv-x="1210" 
d="M731.5 928q186.5 0 303 -118t116.5 -345q0 -223 -136 -356.5t-372 -133.5q-270 0 -415.5 171t-145.5 509q0 397 177 602t486 205q66 0 130.5 -10t97.5 -20l31 -11l20 -295q-96 51 -233 52q-313 0 -365 -367q119 117 305.5 117zM643 252q80 0 126 55t46 154
q0 96 -49 150.5t-139 54.5q-115 0 -209 -60q12 -354 225 -354z" />
    <glyph glyph-name="seven" unicode="7" horiz-adv-x="1017" 
d="M27 1434h958v-238l-434 -1196h-350l420 1137h-594v297z" />
    <glyph glyph-name="eight" unicode="8" horiz-adv-x="1257" 
d="M918 752q135 -63 198.5 -149.5t63.5 -227.5q0 -193 -145.5 -299.5t-405.5 -106.5q-264 0 -408.5 103.5t-144.5 285.5q0 123 70.5 213.5t187.5 141.5q-111 59 -163 143t-52 213q0 188 134 291.5t376 103.5q244 0 377 -99t133 -280q0 -113 -60.5 -197.5t-160.5 -135.5z
M623 1196q-84 0 -132.5 -36t-48.5 -97.5t39 -100t144 -83.5l67 -29q115 76 115 192q0 70 -49 112t-135 42zM627 242q92 0 147 41t55 106q0 66 -42 104.5t-156 88.5l-72 30q-137 -76 -137 -204q0 -76 55.5 -121t149.5 -45z" />
    <glyph glyph-name="nine" unicode="9" horiz-adv-x="1210" 
d="M569 1464q270 0 414.5 -172t144.5 -510q0 -399 -177 -604t-484 -205q-145 0 -244 33l-45 305q31 -18 97.5 -35.5t144.5 -17.5q317 0 364 375q-123 -125 -303 -125q-188 0 -305 118.5t-117 346.5q0 223 136 357t374 134zM395 977q0 -96 50.5 -150.5t142.5 -54.5
q109 0 205 59q-12 356 -222 357q-82 0 -129 -56.5t-47 -154.5z" />
    <glyph glyph-name="colon" unicode=":" horiz-adv-x="557" 
d="M106 680v332h345v-332h-345zM106 0v334h345v-334h-345z" />
    <glyph glyph-name="semicolon" unicode=";" horiz-adv-x="606" 
d="M147 717v334h342v-334h-342zM86 -270l51 604h361l-242 -604h-170z" />
    <glyph glyph-name="less" unicode="&#x3c;" horiz-adv-x="1048" 
d="M936 1231v-299l-537 -215l537 -215v-299l-854 364v299z" />
    <glyph glyph-name="equal" unicode="=" horiz-adv-x="1232" 
d="M113 813v258h1005v-258h-1005zM113 342v258h1005v-258h-1005z" />
    <glyph glyph-name="greater" unicode="&#x3e;" horiz-adv-x="1048" 
d="M113 1231l854 -365v-299l-854 -364v299l536 215l-536 215v299z" />
    <glyph glyph-name="question" unicode="?" horiz-adv-x="989" 
d="M322 483q0 76 26.5 141.5t64.5 113.5t75.5 94.5t64.5 100.5t27 111q0 145 -179 146q-90 0 -186 -27.5t-160 -62.5l35 276q57 35 159.5 62.5t215.5 27.5q225 0 341 -96t116 -283q0 -88 -33 -162.5t-81 -125.5t-95 -97.5t-80 -101.5t-33 -117h-278zM293 0v334h344v-334
h-344z" />
    <glyph glyph-name="at" unicode="@" horiz-adv-x="1589" 
d="M827 1464q313 0 519 -187t206 -480q0 -201 -95 -339.5t-259 -138.5q-147 0 -197 105q-74 -102 -260 -102q-137 0 -206.5 70.5t-69.5 195.5q0 117 74.5 179t208.5 62h196v13q-2 63 -40 92t-120 29q-57 0 -122.5 -9.5t-100.5 -19.5l-37 -8l35 178q106 33 258 33
q326 0 326 -306v-258q0 -78 61 -77q76 0 120 84t44 213q0 217 -148.5 358t-392.5 141q-252 0 -415.5 -159.5t-163.5 -411.5q0 -258 165 -418t427 -160q180 0 340 54v-179q-145 -47 -340 -47q-168 0 -314.5 58.5t-248 159t-158 237.5t-56.5 293q0 207 98.5 378t274.5 269
t391 98zM944 647v33h-180q-100 0 -100 -90q0 -96 110 -96q86 0 128 35.5t42 117.5z" />
    <glyph glyph-name="A" unicode="A" horiz-adv-x="1392" 
d="M1028 0l-88 279h-496l-90 -279h-356l526 1434h342l527 -1434h-365zM528 547h326l-164 508z" />
    <glyph glyph-name="B" unicode="B" horiz-adv-x="1357" 
d="M145 0v1434h607q248 0 367.5 -96.5t119.5 -293.5q0 -211 -152 -303q186 -84 191 -333q2 -408 -504 -408h-629zM492 854h237q86 0 128 37t42 118t-42 117.5t-128 36.5h-237v-309zM492 270h253q94 0 140.5 39t46.5 125q0 82 -46 120t-141 38h-253v-322z" />
    <glyph glyph-name="C" unicode="C" horiz-adv-x="1161" 
d="M711 -33q-317 0 -474 185.5t-157 564.5t156.5 564t474.5 185q98 0 192 -22.5t152 -50.5l18 -308q-53 31 -140 54.5t-175 23.5q-172 0 -248 -102.5t-76 -343.5q0 -242 76 -344.5t248 -102.5q94 0 189 27t155 57l-47 -317q-55 -27 -149.5 -48.5t-194.5 -21.5z" />
    <glyph glyph-name="D" unicode="D" horiz-adv-x="1376" 
d="M145 0v1434h543q311 0 458.5 -168t147.5 -549t-147.5 -549t-458.5 -168h-543zM494 295h194q88 0 141.5 35t82 128t28.5 259t-28.5 259t-82 128t-141.5 35h-194v-844z" />
    <glyph glyph-name="E" unicode="E" horiz-adv-x="1247" 
d="M145 0v1434h988l16 -289h-655v-277h575v-290h-575v-289h680l-48 -289h-981z" />
    <glyph glyph-name="F" unicode="F" horiz-adv-x="1212" 
d="M145 0v1434h990l16 -289h-655v-289h573v-289h-573v-567h-351z" />
    <glyph glyph-name="G" unicode="G" horiz-adv-x="1282" 
d="M737 -33q-332 0 -494.5 185.5t-162.5 564.5t163 564t494 185q115 0 220.5 -22.5t164.5 -48.5l17 -308q-57 31 -159.5 55.5t-207.5 24.5q-180 0 -259 -103t-79 -347t75 -347.5t241 -103.5q55 0 104 8v506h326v-731q-228 -82 -443 -82z" />
    <glyph glyph-name="H" unicode="H" horiz-adv-x="1419" 
d="M926 1434h348v-1434h-348v573h-432v-573h-349v1434h349v-562h432v562z" />
    <glyph glyph-name="I" unicode="I" horiz-adv-x="641" 
d="M145 0v1434h351v-1434h-351z" />
    <glyph glyph-name="J" unicode="J" horiz-adv-x="1064" 
d="M383 -31q-184 0 -305 51l-49 318q137 -61 303 -62q131 0 192.5 70t61.5 229v859h346v-859q0 -606 -549 -606z" />
    <glyph glyph-name="K" unicode="K" horiz-adv-x="1355" 
d="M963 0l-351 584h-118v-584h-349v1434h349v-572h118l328 572h383l-426 -693l461 -741h-395z" />
    <glyph glyph-name="L" unicode="L" horiz-adv-x="1161" 
d="M145 0v1434h349v-1129h641l-50 -305h-940z" />
    <glyph glyph-name="M" unicode="M" horiz-adv-x="1722" 
d="M1284 1434h293v-1434h-330v889l-387 -555l-393 555v-889h-322v1434h291l424 -609z" />
    <glyph glyph-name="N" unicode="N" horiz-adv-x="1454" 
d="M993 1434h316v-1434h-297l-549 872v-872h-318v1434h299l549 -871v871z" />
    <glyph glyph-name="O" unicode="O" horiz-adv-x="1376" 
d="M688 -33q-311 0 -457.5 176t-146.5 573.5t146.5 573.5t457.5 176t457.5 -176t146.5 -573.5t-146.5 -573.5t-457.5 -176zM688 266q88 0 140.5 38t82 137.5t29.5 275.5t-29.5 276.5t-82 137t-140.5 36.5t-140 -36.5t-81 -137t-29 -276.5t29 -275.5t81 -137.5t140 -38z" />
    <glyph glyph-name="P" unicode="P" horiz-adv-x="1318" 
d="M145 0v1434h594q264 0 397.5 -124t133.5 -354q0 -227 -133 -351t-398 -124h-247v-481h-347zM489 766h236q98 0 148.5 49t50.5 141.5t-50.5 142.5t-148.5 50h-236v-383z" />
    <glyph glyph-name="Q" unicode="Q" horiz-adv-x="1376" 
d="M1157 -324l-412 293q-18 -2 -57 -2q-311 0 -457.5 176t-146.5 573.5t146.5 573.5t457.5 176t457.5 -176t146.5 -573q0 -485 -227 -647l250 -119zM688 266q88 0 140.5 38t82 137.5t29.5 275.5t-29.5 276.5t-82 137t-140.5 36.5t-140 -36.5t-81 -137t-29 -276.5t29 -275.5
t81 -137.5t140 -38z" />
    <glyph glyph-name="R" unicode="R" horiz-adv-x="1370" 
d="M1323 0h-379l-260 514h-195v-514h-344v1434h590q268 0 401.5 -119t133.5 -346q0 -305 -250 -406zM489 1149v-358h232q203 0 203 178q0 180 -203 180h-232z" />
    <glyph glyph-name="S" unicode="S" horiz-adv-x="1239" 
d="M614 -33q-139 0 -273 22.5t-214 51.5l-47 311q98 -35 241.5 -62.5t270.5 -27.5q236 0 235 148q0 59 -39.5 92t-136.5 55l-231 57q-174 41 -258 141.5t-84 276.5q0 205 136 319.5t411 114.5q141 0 267 -20.5t195 -46.5l17 -303q-82 31 -207 54.5t-244 23.5
q-221 0 -221 -134q0 -61 40 -95t138 -58l224 -53q178 -43 264 -139.5t86 -278.5q0 -213 -140.5 -331t-429.5 -118z" />
    <glyph glyph-name="T" unicode="T" horiz-adv-x="1179" 
d="M1143 1434v-306h-379v-1128h-348v1128h-379v306h1106z" />
    <glyph glyph-name="U" unicode="U" horiz-adv-x="1384" 
d="M692 -33q-285 0 -422 137.5t-137 423.5v906h348v-906q0 -135 52.5 -194.5t158.5 -59.5t158.5 59.5t52.5 194.5v906h348v-906q0 -287 -137 -424t-422 -137z" />
    <glyph glyph-name="V" unicode="V" horiz-adv-x="1325" 
d="M954 1434h363l-486 -1434h-335l-490 1434h375l285 -961z" />
    <glyph glyph-name="W" unicode="W" horiz-adv-x="1867" 
d="M1493 1434h340l-281 -1434h-342l-274 735l-277 -735h-340l-284 1434h350l156 -951l364 951h70l362 -951z" />
    <glyph glyph-name="X" unicode="X" horiz-adv-x="1320" 
d="M1321 0h-403l-261 483l-266 -483h-393l455 739l-424 695h401l236 -428l235 428h389l-420 -689z" />
    <glyph glyph-name="Y" unicode="Y" horiz-adv-x="1292" 
d="M1282 1434l-461 -910v-524h-350v524l-465 910h381l262 -570l260 570h373z" />
    <glyph glyph-name="Z" unicode="Z" horiz-adv-x="1202" 
d="M489 301h648l-50 -301h-1015v264l622 869h-594v301h1010v-265z" />
    <glyph glyph-name="bracketleft" unicode="[" horiz-adv-x="710" 
d="M139 -412v1868h523v-237h-250v-1393h250v-238h-523z" />
    <glyph glyph-name="backslash" unicode="\" horiz-adv-x="923" 
d="M610 -184l-571 1802h274l572 -1802h-275z" />
    <glyph glyph-name="bracketright" unicode="]" horiz-adv-x="710" 
d="M571 -412h-524v238h252v1393h-252v237h524v-1868z" />
    <glyph glyph-name="asciicircum" unicode="^" horiz-adv-x="1157" 
d="M1094 778h-310l-209 373l-213 -373h-299l406 656h225z" />
    <glyph glyph-name="underscore" unicode="_" horiz-adv-x="833" 
d="M0 -240v189h834v-189h-834z" />
    <glyph glyph-name="grave" unicode="`" horiz-adv-x="632" 
d="M338 1176l-338 303h350l201 -256z" />
    <glyph glyph-name="a" unicode="a" horiz-adv-x="1097" 
d="M393 -23q-164 0 -251 88.5t-87 245.5q0 150 96.5 234t276.5 84h244v35q0 78 -45 111.5t-158 33.5q-172 0 -330 -45l47 268q150 37 346 37q459 0 459 -407v-662h-278l-41 106q-66 -129 -279 -129zM494 213q94 0 136 36t42 128v61h-178q-131 0 -132 -112q1 -113 132 -113z
" />
    <glyph glyph-name="b" unicode="b" horiz-adv-x="1173" 
d="M721 1073q197 0 288 -130t91 -416.5t-91 -418t-288 -131.5q-80 0 -144.5 28t-91 53.5t-43.5 47.5l-41 -106h-282v1407l323 49v-512q16 25 43 49.5t91.5 52t144.5 27.5zM607 244q91 0 129 62.5t38 220t-38 220t-129 62.5t-128 -62.5t-37 -220t37 -220t128 -62.5z" />
    <glyph glyph-name="c" unicode="c" horiz-adv-x="950" 
d="M571 -23q-256 0 -379.5 134.5t-123.5 412.5q0 279 123.5 414t379.5 135q176 0 285 -53l16 -266q-123 57 -256 57q-117 0 -169 -66.5t-52 -220.5q0 -150 53.5 -215t172.5 -65q147 0 278 61l-47 -274q-39 -20 -116 -37t-165 -17z" />
    <glyph glyph-name="d" unicode="d" horiz-adv-x="1173" 
d="M731 1407l324 49v-1456h-283l-41 106q-16 -25 -41.5 -49t-91.5 -52t-145 -28q-195 0 -287 131.5t-92 417t92 416.5t287 131q80 0 145.5 -27.5t91 -52t41.5 -49.5v463zM566 244q91 0 128 62.5t37 220t-37 220t-128 62.5t-129 -62.5t-38 -220t38 -220t129 -62.5z" />
    <glyph glyph-name="e" unicode="e" horiz-adv-x="1103" 
d="M623 -23q-289 0 -422 136.5t-133 408.5q0 270 125.5 410.5t369.5 140.5q475 0 475 -543v-94h-653q8 -100 70.5 -149t197.5 -49q88 0 183.5 17t154.5 38l-45 -268q-151 -48 -323 -48zM385 633h365q-10 203 -181 203q-82 0 -129 -51.5t-55 -151.5z" />
    <glyph glyph-name="f" unicode="f" horiz-adv-x="821" 
d="M203 0v809h-160v244h160v4q0 207 105.5 308t297.5 101q115 0 215 -28l17 -242q-76 27 -170 27q-72 0 -107 -39t-35 -127v-4h273v-244h-273v-809h-323z" />
    <glyph glyph-name="g" unicode="g" horiz-adv-x="1173" 
d="M508 -412q-178 0 -311 52l-47 274q152 -66 315 -66q137 0 200.5 59.5t65.5 203.5v18q-16 -23 -42.5 -45.5t-91.5 -46t-144 -23.5q-197 0 -288 125t-91 398q0 281 92 408.5t287 127.5q80 0 145.5 -27.5t91 -52t41.5 -49.5l41 109h283v-930q0 -535 -547 -535zM566 272
q91 0 128 57.5t37 205.5q0 152 -37 213t-128 61t-129 -61.5t-38 -212.5q0 -147 38 -205t129 -58z" />
    <glyph glyph-name="h" unicode="h" horiz-adv-x="1189" 
d="M733 1073q168 0 257 -103.5t89 -275.5v-694h-323v610q0 98 -35 147.5t-117 49.5q-86 0 -124 -49t-38 -148v-610h-323v1407l323 49v-516q111 133 291 133z" />
    <glyph glyph-name="i" unicode="i" horiz-adv-x="561" 
d="M119 1188v244h323v-244h-323zM119 0v1053h323v-1053h-323z" />
    <glyph glyph-name="j" unicode="j" horiz-adv-x="577" 
d="M135 1188v244h324v-244h-324zM61 -412q-92 0 -174 37l-47 271q68 -37 146 -37q76 0 112.5 45t36.5 151v998h324v-998q0 -238 -104 -352.5t-294 -114.5z" />
    <glyph glyph-name="k" unicode="k" horiz-adv-x="1134" 
d="M766 0l-229 412h-101v-412h-317v1407l317 49v-797h94l222 394h352l-311 -502l337 -551h-364z" />
    <glyph glyph-name="l" unicode="l" horiz-adv-x="561" 
d="M119 0v1407l323 49v-1456h-323z" />
    <glyph glyph-name="m" unicode="m" horiz-adv-x="1798" 
d="M1335 1073q172 0 262.5 -102.5t90.5 -272.5v-698h-324v618q0 94 -34 141.5t-109 47.5q-84 0 -120 -47t-36 -142v-618h-324v618q0 94 -32.5 141.5t-110.5 47.5q-84 0 -120 -47t-36 -142v-618h-323v1053h282l41 -113q104 133 283 133q201 0 283 -149q126 149 327 149z" />
    <glyph glyph-name="n" unicode="n" horiz-adv-x="1189" 
d="M119 0v1053h282l41 -113q109 133 291 133q168 0 257 -104.5t89 -276.5v-692h-323v612q0 98 -35 146.5t-117 48.5q-86 0 -124 -48t-38 -147v-612h-323z" />
    <glyph glyph-name="o" unicode="o" horiz-adv-x="1122" 
d="M561 -23q-256 0 -373.5 132.5t-117.5 417t117.5 415.5t373.5 131t374 -131t118 -415.5t-118 -417t-374 -132.5zM560 244q91 0 128 62.5t37 220t-37 220t-128 62.5t-127 -62.5t-36 -220t36 -220t127 -62.5z" />
    <glyph glyph-name="p" unicode="p" horiz-adv-x="1173" 
d="M721 1073q197 0 288 -130t91 -416.5t-91 -418t-288 -131.5q-80 0 -144.5 28t-91 53.5t-43.5 47.5v-468l-323 -48v1463h282l41 -109q16 25 43 49.5t91.5 52t144.5 27.5zM607 244q91 0 129 62.5t38 220t-38 220t-129 62.5t-128 -62.5t-37 -220t37 -220t128 -62.5z" />
    <glyph glyph-name="q" unicode="q" horiz-adv-x="1173" 
d="M772 1053h283v-1415l-324 -48v516q-16 -25 -41.5 -49t-91.5 -52t-145 -28q-195 0 -287 131.5t-92 417t92 416.5t287 131q80 0 145.5 -27.5t91 -52t41.5 -49.5zM566 244q91 0 128 62.5t37 220t-37 220t-128 62.5t-129 -62.5t-38 -220t38 -220t129 -62.5z" />
    <glyph glyph-name="r" unicode="r" horiz-adv-x="854" 
d="M119 0v1053h282l41 -111q94 131 246 131q84 0 125 -26l18 -287q-66 43 -174 43q-98 0 -156.5 -55.5t-58.5 -163.5v-584h-323z" />
    <glyph glyph-name="s" unicode="s" horiz-adv-x="999" 
d="M473 -20q-205 0 -360 57l-45 270q66 -31 176 -54.5t221 -23.5q166 0 166 80q0 35 -21.5 52.5t-85.5 29.5l-162 33q-154 31 -220 105.5t-66 213.5q0 160 111.5 245t338.5 85q199 0 344 -53l17 -258q-53 23 -144.5 41t-189.5 18q-166 0 -166 -69q0 -33 22.5 -50.5
t88.5 -31.5l155 -29q154 -31 220.5 -106.5t66.5 -221.5q0 -166 -111.5 -249.5t-355.5 -83.5z" />
    <glyph glyph-name="t" unicode="t" horiz-adv-x="872" 
d="M666 248q90 0 178 33l-47 -261q-78 -41 -217 -40q-188 0 -290 107.5t-102 332.5v389h-159v244h159v211l324 67v-278h307v-244h-307v-383q0 -98 37 -138t117 -40z" />
    <glyph glyph-name="u" unicode="u" horiz-adv-x="1189" 
d="M457 -23q-168 0 -257 104.5t-89 276.5v695h323v-613q0 -98 35 -146t117 -48q86 0 124 48t38 146v613h323v-1053h-283l-40 111q-109 -134 -291 -134z" />
    <glyph glyph-name="v" unicode="v" horiz-adv-x="1083" 
d="M741 1053h336l-377 -1053h-317l-377 1053h342l197 -682z" />
    <glyph glyph-name="w" unicode="w" horiz-adv-x="1540" 
d="M1196 1053h305l-229 -1053h-314l-190 479l-186 -479h-316l-227 1053h313l127 -664l264 662h60l266 -656z" />
    <glyph glyph-name="x" unicode="x" horiz-adv-x="1087" 
d="M1085 0h-360l-184 334l-189 -334h-350l346 545l-319 508h358l162 -295l164 295h346l-318 -504z" />
    <glyph glyph-name="y" unicode="y" horiz-adv-x="1079" 
d="M313 -410q-121 0 -176 35l-49 262q68 -29 141 -28q111 0 152 98l18 47l-397 1049h344l213 -668l178 668h334l-393 -1157q-55 -162 -145.5 -234t-219.5 -72z" />
    <glyph glyph-name="z" unicode="z" horiz-adv-x="995" 
d="M457 258h483l-45 -258h-825v229l450 564h-432v260h821v-230z" />
    <glyph glyph-name="braceleft" unicode="{" horiz-adv-x="735" 
d="M483 784q0 -213 -174 -260q174 -49 174 -262v-305q0 -72 30 -102.5t97 -30.5h74v-236h-92q-199 0 -290 86t-91 273v321q0 72 -27.5 102.5t-95.5 30.5h-53v244h53q68 0 95.5 31t27.5 102v320q0 186 93 272t294 86h86v-235h-74q-68 0 -97.5 -31t-29.5 -103v-303z" />
    <glyph glyph-name="bar" unicode="|" horiz-adv-x="528" 
d="M139 -389v2007h250v-2007h-250z" />
    <glyph glyph-name="braceright" unicode="}" horiz-adv-x="735" 
d="M645 645h55v-244h-55q-66 0 -93.5 -30.5t-27.5 -102.5v-321q0 -186 -92 -272.5t-289 -86.5h-94v236h76q68 0 97.5 30.5t29.5 102.5v305q0 213 174 262q-174 47 -174 260v303q0 72 -29.5 103t-97.5 31h-76v235h88q201 0 294 -86t93 -272v-320q0 -72 27.5 -102.5
t93.5 -30.5z" />
    <glyph glyph-name="asciitilde" unicode="~" horiz-adv-x="1234" 
d="M866 510q-76 0 -164 32.5t-159.5 64.5t-106.5 32q-41 0 -59.5 -27.5t-18.5 -91.5h-245q-4 385 270 385q82 0 168 -31.5t155.5 -64.5t108.5 -33q78 0 78 121h248q0 -201 -69 -294t-206 -93z" />
    <glyph glyph-name="uni00A0" unicode="&#xa0;" horiz-adv-x="432" 
 />
    <glyph glyph-name="exclamdown" unicode="&#xa1;" horiz-adv-x="563" 
d="M111 1053h342v-334h-342v334zM176 567h209l78 -948h-365z" />
    <glyph glyph-name="cent" unicode="&#xa2;" horiz-adv-x="983" 
d="M909 305l-47 -274q-61 -31 -172 -45v-191h-252v195q-182 35 -271 166t-89 368q0 238 89 371t271 166v168h252v-162q111 -14 174 -47l17 -266q-123 57 -256 57q-117 0 -169.5 -66.5t-52.5 -220.5q0 -150 54.5 -215t171.5 -65q147 0 280 61z" />
    <glyph glyph-name="sterling" unicode="&#xa3;" horiz-adv-x="1241" 
d="M539 287h630v-287h-1087v287q94 0 134 40t40 128v147h-174v238h174v125q0 244 130 371.5t372 127.5q94 0 183 -16t132 -33l41 -16l21 -301q-16 8 -45 20t-115 31.5t-168 19.5q-113 0 -161 -49t-48 -153v-127h356v-238h-356v-147q0 -115 -59 -168z" />
    <glyph glyph-name="currency" unicode="&#xa4;" horiz-adv-x="1218" 
d="M1061 524q0 -123 -55 -223l139 -141l-174 -172l-144 143q-98 -51 -216.5 -51t-217.5 49l-141 -141l-178 172l139 141q-57 100 -57 223t57 226l-141 139l172 170l143 -141q100 51 223 51q121 0 221 -54l144 144l172 -172l-141 -139q55 -101 55 -224zM428 524
q0 -82 51 -134t131 -52q78 0 129.5 53t51.5 133q0 82 -51.5 134.5t-129.5 52.5q-80 0 -131 -52.5t-51 -134.5z" />
    <glyph glyph-name="yen" unicode="&#xa5;" horiz-adv-x="1312" 
d="M1268 1434l-383 -707h200v-213h-256v-104h256v-213h-256v-197h-344v197h-254v213h254v104h-254v213h199l-385 707h385l232 -508l231 508h375z" />
    <glyph glyph-name="brokenbar" unicode="&#xa6;" horiz-adv-x="528" 
d="M139 778v840h250v-840h-250zM139 -389v840h250v-840h-250z" />
    <glyph glyph-name="section" unicode="&#xa7;" horiz-adv-x="1105" 
d="M825 246q96 -53 139.5 -120t43.5 -179q0 -174 -113 -268.5t-342 -94.5q-207 0 -375 60l-45 280q23 -10 69 -25.5t141 -34t187 -18.5q156 0 156 91q0 37 -27.5 62.5t-107.5 59.5l-225 103q-141 61 -202 134t-61 198q0 113 65 193.5t151 119.5q-80 51 -118 118.5t-38 176.5
q0 170 107.5 265t324.5 95q84 0 169 -11t128 -21.5t61 -16.5l17 -270q-20 8 -58 20.5t-122 24.5t-172 12q-135 0 -136 -88q0 -43 26 -68.5t87 -54.5l236 -104q137 -61 192 -132t55 -196q0 -113 -63.5 -192.5t-149.5 -118.5zM467 414l164 -74q119 49 119 149q0 53 -26 86
t-91 62l-162 76q-53 -20 -87 -60.5t-34 -93.5q0 -49 25.5 -80.5t91.5 -64.5z" />
    <glyph glyph-name="dieresis" unicode="&#xa8;" horiz-adv-x="770" 
d="M0 1192v244h268v-244h-268zM418 1192v244h270v-244h-270z" />
    <glyph glyph-name="copyright" unicode="&#xa9;" horiz-adv-x="1632" 
d="M817 -20q-207 0 -377 98t-268 268t-98 377t98 377t268 267t377 97t377 -97t267.5 -267t97.5 -377t-97.5 -377t-267.5 -268t-377 -98zM817 127q252 0 420 171t168 425t-168 424t-420 170t-421 -170t-169 -424t169 -425t421 -171zM821 281q-182 0 -265 106.5t-83 333.5
q0 233 85 338.5t263 105.5q150 0 231 -70.5t107 -224.5h-182q-16 76 -53 107t-103 31q-92 0 -129 -63.5t-37 -223.5q0 -158 37 -220.5t129 -62.5q68 0 102.5 29t51.5 98h182q-29 -150 -109 -217t-227 -67z" />
    <glyph glyph-name="ordfeminine" unicode="&#xaa;" horiz-adv-x="884" 
d="M428 1452q346 0 346 -315v-504h-223l-23 82q-49 -98 -206 -99q-123 0 -188.5 67t-65.5 187q0 117 71.5 181.5t206.5 64.5h182v21q0 61 -32.5 86.5t-116.5 25.5q-117 0 -248 -30l35 204q110 29 262 29zM397 801q70 0 100.5 27.5t30.5 97.5v41h-137q-90 0 -90 -86
q0 -80 96 -80z" />
    <glyph glyph-name="guillemotleft" unicode="&#xab;" horiz-adv-x="1120" 
d="M313 121l-256 405l256 404h271l-211 -404l211 -405h-271zM770 121l-258 405l258 404h268l-209 -404l209 -405h-268z" />
    <glyph glyph-name="logicalnot" unicode="&#xac;" horiz-adv-x="1226" 
d="M1114 842v-639h-266v370h-748v269h1014z" />
    <glyph glyph-name="registered" unicode="&#xae;" horiz-adv-x="1632" 
d="M817 -18q-207 0 -378 97t-268 267t-97 377q0 209 98 379t268 266t377 96t377 -97t266 -267t96 -377t-96 -377t-266 -267t-377 -97zM817 127q252 0 420 171t168 425t-168 425t-420 171t-422 -171t-170 -425t170 -425t422 -171zM518 303v850h324q317 0 317 -270
q0 -188 -160 -244l162 -336h-196l-148 313h-123v-313h-176zM694 772h148q74 0 105.5 27.5t31.5 83t-32 82t-105 26.5h-148v-219z" />
    <glyph glyph-name="macron" unicode="&#xaf;" horiz-adv-x="727" 
d="M0 1233v178h645v-178h-645z" />
    <glyph glyph-name="degree" unicode="&#xb0;" horiz-adv-x="827" 
d="M416 735q-145 0 -249 95.5t-104 256.5q0 158 103.5 253.5t249.5 95.5q143 0 245.5 -95.5t102.5 -253.5q0 -162 -101.5 -257t-246.5 -95zM416 954q57 0 91 36t34 97q0 59 -34 94.5t-91 35.5q-61 0 -95 -35t-34 -95q0 -61 34 -97t95 -36z" />
    <glyph glyph-name="plusminus" unicode="&#xb1;" horiz-adv-x="1224" 
d="M748 1004h360v-252h-360v-244h-271v244h-360v252h360v258h271v-258zM117 150v256h991v-256h-991z" />
    <glyph glyph-name="acute" unicode="&#xb4;" horiz-adv-x="632" 
d="M215 1176l-215 47l201 256h352z" />
    <glyph glyph-name="paragraph" unicode="&#xb6;" horiz-adv-x="1323" 
d="M467 -389v991q-188 0 -302 113.5t-114 302.5q0 188 114 302t302 114h688v-1823h-225v1610h-234v-1610h-229z" />
    <glyph glyph-name="periodcentered" unicode="&#xb7;" horiz-adv-x="557" 
d="M106 387v334h345v-334h-345z" />
    <glyph glyph-name="cedilla" unicode="&#xb8;" horiz-adv-x="471" 
d="M137 -410q-35 0 -69.5 5.5t-51.5 11.5l-16 4v139q47 -23 109 -22q88 0 88 55q0 53 -80 53h-74l76 207h143l-45 -115q172 -8 172 -147q0 -88 -65.5 -139.5t-186.5 -51.5z" />
    <glyph glyph-name="ordmasculine" unicode="&#xba;" horiz-adv-x="897" 
d="M449 616q-197 0 -287 100.5t-90 317.5t90 317.5t287 100.5t286.5 -100.5t89.5 -317.5t-89.5 -317.5t-286.5 -100.5zM449 819q70 0 98 47t28 168t-28.5 168t-97.5 47q-70 0 -97.5 -47t-27.5 -168t27.5 -168t97.5 -47z" />
    <glyph glyph-name="guillemotright" unicode="&#xbb;" horiz-adv-x="1120" 
d="M350 121h-270l211 405l-211 404h270l256 -404zM807 121h-270l208 405l-208 404h270l256 -404z" />
    <glyph glyph-name="onequarter" unicode="&#xbc;" horiz-adv-x="1673" 
d="M190 666v491l-149 -47v213l379 121v-778h-230zM135 0l971 1434h250l-971 -1434h-250zM1341 0v127h-385v156l277 485h229l-264 -461h143v154h209v-154h99l-33 -180h-66v-127h-209z" />
    <glyph glyph-name="onehalf" unicode="&#xbd;" horiz-adv-x="1691" 
d="M190 666v491l-149 -47v213l379 121v-778h-230zM1106 1434h250l-971 -1434h-250zM1346 190h278v-190h-594v180l250 185q61 47 83.5 78.5t22.5 70.5q0 76 -96 76q-72 0 -143.5 -23.5t-102.5 -40.5l13 197q141 61 284 59q131 0 205 -64.5t74 -178.5q0 -88 -49 -160
t-158 -141z" />
    <glyph glyph-name="threequarters" unicode="&#xbe;" horiz-adv-x="1869" 
d="M668 874q0 -223 -322 -223q-76 0 -142.5 11.5t-92.5 21.5l-29 12l-33 209q4 -4 35 -17.5t96.5 -30.5t128.5 -17q70 0 98.5 17t28.5 52q0 61 -80 62h-163v166h145q76 0 76 59q0 33 -22.5 49.5t-80.5 16.5q-27 0 -53.5 -3.5t-49 -9.5t-43 -12t-35.5 -13t-27.5 -12.5
t-18.5 -9.5l-6 -4l12 197q10 6 30.5 15t88 24.5t143.5 15.5q137 0 215 -52t78 -161q0 -119 -104 -170q127 -50 127 -193zM1305 1434h249l-970 -1434h-250zM1747 307h98l-30 -180h-68v-127h-207v127h-387v156l279 485h229l-264 -461h143v154h207v-154z" />
    <glyph glyph-name="questiondown" unicode="&#xbf;" horiz-adv-x="974" 
d="M686 1053v-334h-342v334h342zM659 567q0 -74 -26.5 -139.5t-64.5 -113.5t-76.5 -94t-65.5 -100t-27 -112q0 -147 181 -147q90 0 186 28.5t160 63.5l-37 -279q-57 -35 -158.5 -61.5t-214.5 -26.5q-225 0 -341 95.5t-116 283.5q0 88 33 162t80 125t95 98t81 102.5t33 114.5
h278z" />
    <glyph glyph-name="Agrave" unicode="&#xc0;" horiz-adv-x="1392" 
d="M885 1602l-215 -48l-338 304h352zM1028 0l-88 279h-496l-90 -279h-356l526 1434h342l527 -1434h-365zM528 547h326l-164 508z" />
    <glyph glyph-name="Aacute" unicode="&#xc1;" horiz-adv-x="1392" 
d="M1032 1860l-338 -304l-215 50l201 254h352zM1028 0l-88 279h-496l-90 -279h-356l526 1434h342l527 -1434h-365zM528 547h326l-164 508z" />
    <glyph glyph-name="Acircumflex" unicode="&#xc2;" horiz-adv-x="1392" 
d="M690 1698l-196 -142l-185 50l234 254h299l233 -254l-182 -50zM1028 0l-88 279h-496l-90 -279h-356l526 1434h342l527 -1434h-365zM528 547h326l-164 508z" />
    <glyph glyph-name="Atilde" unicode="&#xc3;" horiz-adv-x="1392" 
d="M588 1655q-27 0 -50.5 -19.5t-72.5 -81.5l-146 107q84 111 141.5 150.5t123.5 39.5q53 0 125.5 -50t97.5 -50t47.5 18.5t75.5 81.5l143 -106q-84 -113 -140 -152t-122 -39q-41 0 -84 25t-78.5 50.5t-60.5 25.5zM1028 0l-88 279h-496l-90 -279h-356l524 1434h344
l527 -1434h-365zM528 547h326l-164 508z" />
    <glyph glyph-name="Adieresis" unicode="&#xc4;" horiz-adv-x="1392" 
d="M618 1821v-244h-268v244h268zM1036 1821v-244h-268v244h268zM1028 0l-88 279h-496l-90 -279h-356l526 1434h342l527 -1434h-365zM528 547h326l-164 508z" />
    <glyph glyph-name="Aring" unicode="&#xc5;" horiz-adv-x="1392" 
d="M696 1546q-113 0 -186.5 65.5t-73.5 174.5q0 111 73 177.5t187 66.5q113 0 185.5 -67t72.5 -177q0 -109 -72.5 -174.5t-185.5 -65.5zM696 1886q-47 0 -73.5 -26.5t-26.5 -73.5q0 -45 26.5 -70.5t73.5 -25.5q45 0 72 25.5t27 70.5q0 47 -27 73.5t-72 26.5zM1028 0l-88 279
h-496l-90 -279h-356l526 1434h342l527 -1434h-365zM528 547h326l-164 508z" />
    <glyph glyph-name="AE" unicode="&#xc6;" horiz-adv-x="2033" 
d="M1280 289h680l-47 -289h-981v311h-438l-168 -311h-355l803 1434h1145l16 -289h-655v-277h575v-290h-575v-289zM647 592h285v526z" />
    <glyph glyph-name="Ccedilla" unicode="&#xc7;" horiz-adv-x="1161" 
d="M1055 37q-133 -63 -324 -70l-16 -41q178 -8 178 -153q0 -90 -67.5 -142.5t-192.5 -52.5q-23 0 -46.5 2t-40 5t-29.5 6t-19 6l-6 2v143q49 -23 110 -23q92 0 92 58q0 53 -84 53h-73l51 145q-256 33 -382 217.5t-126 524.5q0 379 156.5 564t474.5 185q98 0 192 -22.5
t152 -50.5l18 -308q-53 31 -140 54.5t-175 23.5q-172 0 -248 -102.5t-76 -343.5q0 -242 76 -344.5t248 -102.5q94 0 189 27t155 57z" />
    <glyph glyph-name="Egrave" unicode="&#xc8;" horiz-adv-x="1247" 
d="M614 1554l-338 304h353l200 -256zM145 0v1434h988l16 -289h-655v-277h575v-290h-575v-289h680l-48 -289h-981z" />
    <glyph glyph-name="Eacute" unicode="&#xc9;" horiz-adv-x="1247" 
d="M637 1556l-213 50l199 254h352zM145 0v1434h988l16 -289h-655v-277h575v-290h-575v-289h680l-48 -289h-981z" />
    <glyph glyph-name="Ecircumflex" unicode="&#xca;" horiz-adv-x="1247" 
d="M438 1556l-184 50l233 254h299l234 -254l-184 -50l-201 142zM145 0v1434h988l16 -289h-655v-277h575v-290h-575v-289h680l-48 -289h-981z" />
    <glyph glyph-name="Edieresis" unicode="&#xcb;" horiz-adv-x="1247" 
d="M293 1577v244h270v-244h-270zM713 1577v244h268v-244h-268zM145 0v1434h988l16 -289h-655v-277h575v-290h-575v-289h680l-48 -289h-981z" />
    <glyph glyph-name="Igrave" unicode="&#xcc;" horiz-adv-x="641" 
d="M293 1554l-338 304h352l201 -256zM145 0v1434h351v-1434h-351z" />
    <glyph glyph-name="Iacute" unicode="&#xcd;" horiz-adv-x="641" 
d="M317 1556l-215 50l201 254h352zM145 0v1434h351v-1434h-351z" />
    <glyph glyph-name="Icircumflex" unicode="&#xce;" horiz-adv-x="641" 
d="M150 1556l-177 50l209 254h275l207 -254l-175 -50l-172 144zM145 0v1434h351v-1434h-351z" />
    <glyph glyph-name="Idieresis" unicode="&#xcf;" horiz-adv-x="641" 
d="M-4 1577v244h258v-244h-258zM383 1577v244h258v-244h-258zM145 0v1434h351v-1434h-351z" />
    <glyph glyph-name="Eth" unicode="&#xd0;" horiz-adv-x="1402" 
d="M713 1434q311 0 458.5 -168t147.5 -549t-147.5 -549t-458.5 -168h-541v631h-141v192h141v611h541zM713 295q88 0 141 35t82 128t29 259t-29 259t-82 128t-141 35h-195v-316h250v-192h-250v-336h195z" />
    <glyph glyph-name="Ntilde" unicode="&#xd1;" horiz-adv-x="1454" 
d="M492 1554l-146 107q84 111 140.5 150.5t123.5 39.5q53 0 125 -50t99 -50q25 0 47 18.5t73 81.5l146 -106q-84 -113 -140.5 -152t-121.5 -39q-41 0 -85 25t-79 50.5t-60 25.5q-27 0 -50 -20t-72 -81zM993 1434h316v-1434h-297l-549 872v-872h-318v1434h299l549 -871v871z
" />
    <glyph glyph-name="Ograve" unicode="&#xd2;" horiz-adv-x="1376" 
d="M664 1554l-338 304h352l201 -256zM688 -33q-311 0 -457.5 176t-146.5 573.5t146.5 573.5t457.5 176t457.5 -176t146.5 -573.5t-146.5 -573.5t-457.5 -176zM688 266q88 0 140.5 38t82 137.5t29.5 275.5t-29.5 276.5t-82 137t-140.5 36.5t-140 -36.5t-81 -137t-29 -276.5
t29 -275.5t81 -137.5t140 -38z" />
    <glyph glyph-name="Oacute" unicode="&#xd3;" horiz-adv-x="1376" 
d="M686 1556l-213 50l201 254h350zM688 -33q-311 0 -457.5 176t-146.5 573.5t146.5 573.5t457.5 176t457.5 -176t146.5 -573.5t-146.5 -573.5t-457.5 -176zM688 266q88 0 140.5 38t82 137.5t29.5 275.5t-29.5 276.5t-82 137t-140.5 36.5t-140 -36.5t-81 -137t-29 -276.5
t29 -275.5t81 -137.5t140 -38z" />
    <glyph glyph-name="Ocircumflex" unicode="&#xd4;" horiz-adv-x="1376" 
d="M487 1556l-184 50l234 254h299l233 -254l-184 -50l-201 142zM688 -33q-311 0 -457.5 176t-146.5 573.5t146.5 573.5t457.5 176t457.5 -176t146.5 -573.5t-146.5 -573.5t-457.5 -176zM688 266q88 0 140.5 38t82 137.5t29.5 275.5t-29.5 276.5t-82 137t-140.5 36.5
t-140 -36.5t-81 -137t-29 -276.5t29 -275.5t81 -137.5t140 -38z" />
    <glyph glyph-name="Otilde" unicode="&#xd5;" horiz-adv-x="1376" 
d="M457 1554l-144 107q84 111 140.5 150.5t124.5 39.5q53 0 124.5 -50t98.5 -50q25 0 47 18.5t74 81.5l145 -106q-84 -113 -140.5 -152t-121.5 -39q-41 0 -85 25t-79 50.5t-59 25.5q-27 0 -50.5 -20t-74.5 -81zM688 -33q-311 0 -457.5 176t-146.5 573.5t146.5 573.5
t457.5 176t457.5 -176t146.5 -573.5t-146.5 -573.5t-457.5 -176zM688 266q88 0 140.5 38t82 137.5t29.5 275.5t-29.5 276.5t-82 137t-140.5 36.5t-140 -36.5t-81 -137t-29 -276.5t29 -275.5t81 -137.5t140 -38z" />
    <glyph glyph-name="Odieresis" unicode="&#xd6;" horiz-adv-x="1376" 
d="M342 1577v244h270v-244h-270zM762 1577v244h268v-244h-268zM688 -33q-311 0 -457.5 176t-146.5 573.5t146.5 573.5t457.5 176t457.5 -176t146.5 -573.5t-146.5 -573.5t-457.5 -176zM688 266q88 0 140.5 38t82 137.5t29.5 275.5t-29.5 276.5t-82 137t-140.5 36.5
t-140 -36.5t-81 -137t-29 -276.5t29 -275.5t81 -137.5t140 -38z" />
    <glyph glyph-name="multiply" unicode="&#xd7;" horiz-adv-x="1116" 
d="M1038 1001l-295 -294l295 -293l-186 -187l-293 295l-295 -295l-186 187l295 293l-295 294l186 187l295 -295l293 295z" />
    <glyph glyph-name="Oslash" unicode="&#xd8;" horiz-adv-x="1398" 
d="M1346 1454l-154 -213q111 -178 111 -524q0 -397 -146.5 -573.5t-458.5 -176.5q-236 0 -372 99l-66 -86h-209l156 210q-113 178 -113 527q0 397 146.5 573t457.5 176q236 0 375 -98l66 86h207zM698 1167q-88 0 -140 -36.5t-82 -137t-30 -276.5q0 -133 17 -223l403 610
q-55 63 -168 63zM698 266q88 0 140.5 38t81 137.5t28.5 275.5q0 133 -16 221l-402 -608q55 -64 168 -64z" />
    <glyph glyph-name="Ugrave" unicode="&#xd9;" horiz-adv-x="1384" 
d="M668 1554l-338 304h352l201 -256zM692 -33q-285 0 -422 137.5t-137 423.5v906h348v-906q0 -135 52.5 -194.5t158.5 -59.5t158.5 59.5t52.5 194.5v906h348v-906q0 -287 -137 -424t-422 -137z" />
    <glyph glyph-name="Uacute" unicode="&#xda;" horiz-adv-x="1384" 
d="M690 1556l-213 50l201 254h350zM692 -33q-285 0 -422 137.5t-137 423.5v906h348v-906q0 -135 52.5 -194.5t158.5 -59.5t158.5 59.5t52.5 194.5v906h348v-906q0 -287 -137 -424t-422 -137z" />
    <glyph glyph-name="Ucircumflex" unicode="&#xdb;" horiz-adv-x="1384" 
d="M492 1556l-185 50l234 254h299l233 -254l-184 -50l-201 142zM692 -33q-285 0 -422 137.5t-137 423.5v906h348v-906q0 -135 52.5 -194.5t158.5 -59.5t158.5 59.5t52.5 194.5v906h348v-906q0 -287 -137 -424t-422 -137z" />
    <glyph glyph-name="Udieresis" unicode="&#xdc;" horiz-adv-x="1384" 
d="M346 1577v244h270v-244h-270zM766 1577v244h268v-244h-268zM692 -33q-285 0 -422 137.5t-137 423.5v906h348v-906q0 -135 52.5 -194.5t158.5 -59.5t158.5 59.5t52.5 194.5v906h348v-906q0 -287 -137 -424t-422 -137z" />
    <glyph glyph-name="Yacute" unicode="&#xdd;" horiz-adv-x="1292" 
d="M645 1556l-213 50l199 254h352zM1282 1434l-461 -910v-524h-350v524l-465 910h381l262 -570l260 570h373z" />
    <glyph glyph-name="Thorn" unicode="&#xde;" horiz-adv-x="1325" 
d="M731 1200q266 0 398.5 -124t132.5 -352t-132.5 -352t-398.5 -124h-244v-248h-342v1434h342v-234h244zM723 532q98 0 147.5 50.5t49.5 142.5t-49.5 141t-147.5 49h-236v-383h236z" />
    <glyph glyph-name="germandbls" unicode="&#xdf;" horiz-adv-x="1173" 
d="M946 825q78 -43 108.5 -119.5t30.5 -193.5v-115q0 -213 -99 -315t-284 -102q-117 0 -178 30v242q57 -29 115 -29q63 0 93 35t30 125v143q0 96 -35 136t-121 40h-82v240h72q78 0 111.5 33t33.5 106q0 70 -34.5 103t-114.5 33q-82 0 -116 -44.5t-34 -148.5v-1024h-323v1024
q0 221 117.5 330.5t359.5 109.5q231 0 350 -91t119 -267q0 -207 -119 -281z" />
    <glyph glyph-name="agrave" unicode="&#xe0;" horiz-adv-x="1097" 
d="M535 1176l-338 303h352l201 -256zM393 -23q-164 0 -251 88.5t-87 245.5q0 150 96.5 234t276.5 84h244v35q0 78 -45 111.5t-158 33.5q-172 0 -330 -45l47 268q150 37 346 37q459 0 459 -407v-662h-278l-41 106q-66 -129 -279 -129zM494 213q94 0 136 36t42 128v61h-178
q-131 0 -132 -112q1 -113 132 -113z" />
    <glyph glyph-name="aacute" unicode="&#xe1;" horiz-adv-x="1097" 
d="M559 1176l-215 47l201 256h352zM393 -23q-164 0 -251 88.5t-87 245.5q0 150 96.5 234t276.5 84h244v35q0 78 -45 111.5t-158 33.5q-172 0 -330 -45l47 268q150 37 346 37q459 0 459 -407v-662h-278l-41 106q-66 -129 -279 -129zM494 213q94 0 136 36t42 128v61h-178
q-131 0 -132 -112q1 -113 132 -113z" />
    <glyph glyph-name="acircumflex" unicode="&#xe2;" horiz-adv-x="1097" 
d="M358 1176l-184 47l234 256h299l233 -256l-182 -47l-201 139zM393 -23q-164 0 -251 88.5t-87 245.5q0 150 96.5 234t276.5 84h244v35q0 78 -45 111.5t-158 33.5q-172 0 -330 -45l47 268q150 37 346 37q459 0 459 -407v-662h-278l-41 106q-66 -129 -279 -129zM494 213
q94 0 136 36t42 128v61h-178q-131 0 -132 -112q1 -113 132 -113z" />
    <glyph glyph-name="atilde" unicode="&#xe3;" horiz-adv-x="1097" 
d="M330 1171l-146 107q86 113 142.5 151.5t122.5 38.5q53 0 125.5 -49t97.5 -49q27 0 48 18.5t75 79.5l143 -106q-82 -111 -139.5 -151t-122.5 -40q-41 0 -84 26t-79 51.5t-58 25.5q-29 0 -51.5 -20t-73.5 -83zM393 -23q-164 0 -251 88.5t-87 245.5q0 150 96.5 234t276.5 84
h244v35q0 78 -45 111.5t-158 33.5q-172 0 -330 -45l47 268q150 37 346 37q459 0 459 -407v-662h-278l-41 106q-66 -129 -279 -129zM494 213q94 0 136 36t42 128v61h-178q-131 0 -132 -112q1 -113 132 -113z" />
    <glyph glyph-name="adieresis" unicode="&#xe4;" horiz-adv-x="1097" 
d="M215 1192v244h268v-244h-268zM633 1192v244h268v-244h-268zM393 -23q-164 0 -251 88.5t-87 245.5q0 150 96.5 234t276.5 84h244v35q0 78 -45 111.5t-158 33.5q-172 0 -330 -45l47 268q150 37 346 37q459 0 459 -407v-662h-278l-41 106q-66 -129 -279 -129zM494 213
q94 0 136 36t42 128v61h-178q-131 0 -132 -112q1 -113 132 -113z" />
    <glyph glyph-name="aring" unicode="&#xe5;" horiz-adv-x="1097" 
d="M561 1165q-113 0 -186.5 64.5t-73.5 175.5t74 176.5t186 65.5q113 0 185.5 -65.5t72.5 -176.5t-72.5 -175.5t-185.5 -64.5zM561 1307q45 0 71.5 26.5t26.5 71.5t-26.5 71.5t-71.5 26.5q-47 0 -73.5 -25.5t-26.5 -72.5q0 -45 26.5 -71.5t73.5 -26.5zM393 -23
q-164 0 -251 88.5t-87 245.5q0 150 96.5 234t276.5 84h244v35q0 78 -45 111.5t-158 33.5q-172 0 -330 -45l47 268q150 37 346 37q459 0 459 -407v-662h-278l-41 106q-66 -129 -279 -129zM494 213q94 0 136 36t42 128v61h-178q-131 0 -132 -112q1 -113 132 -113z" />
    <glyph glyph-name="ae" unicode="&#xe6;" horiz-adv-x="1716" 
d="M467 -20q-414 0 -414 331q0 152 96.5 235t276.5 83h248v37q0 78 -45 110.5t-154 32.5q-170 0 -332 -43l47 268q156 35 349 35q219 0 321 -113q121 117 326 117q465 0 465 -543v-96h-658q6 -100 68.5 -147t200.5 -47q182 0 340 53l-46 -268q-143 -45 -309 -45
q-264 0 -395 126q-115 -126 -385 -126zM993 629h369q-8 207 -180 207q-175 0 -189 -207zM494 215q96 0 138 36t42 126v61h-189q-59 0 -92 -29.5t-33 -84.5q1 -109 134 -109z" />
    <glyph glyph-name="ccedilla" unicode="&#xe7;" horiz-adv-x="950" 
d="M852 31q-88 -45 -242 -51l-18 -52q172 -8 172 -147q0 -88 -65.5 -139.5t-186.5 -51.5q-35 0 -69.5 5.5t-51.5 11.5l-16 4v139q47 -23 106 -22q90 0 90 55q0 53 -79 53h-74l53 148q-205 25 -304 157.5t-99 382.5q0 279 123.5 414t379.5 135q176 0 285 -53l16 -266
q-123 57 -256 57q-117 0 -169 -66.5t-52 -220.5q0 -150 53.5 -215t172.5 -65q147 0 278 61z" />
    <glyph glyph-name="egrave" unicode="&#xe8;" horiz-adv-x="1103" 
d="M539 1176l-338 303h352l201 -256zM623 -23q-289 0 -422 136.5t-133 408.5q0 270 125.5 410.5t369.5 140.5q475 0 475 -543v-94h-653q8 -100 70.5 -149t197.5 -49q88 0 183.5 17t154.5 38l-45 -268q-151 -48 -323 -48zM385 633h365q-10 203 -181 203q-82 0 -129 -51.5
t-55 -151.5z" />
    <glyph glyph-name="eacute" unicode="&#xe9;" horiz-adv-x="1103" 
d="M563 1176l-215 47l201 256h352zM623 -23q-289 0 -422 136.5t-133 408.5q0 270 125.5 410.5t369.5 140.5q475 0 475 -543v-94h-653q8 -100 70.5 -149t197.5 -49q88 0 183.5 17t154.5 38l-45 -268q-151 -48 -323 -48zM385 633h365q-10 203 -181 203q-82 0 -129 -51.5
t-55 -151.5z" />
    <glyph glyph-name="ecircumflex" unicode="&#xea;" horiz-adv-x="1103" 
d="M362 1176l-184 47l234 256h299l233 -256l-182 -47l-201 139zM623 -23q-289 0 -422 136.5t-133 408.5q0 270 125.5 410.5t369.5 140.5q475 0 475 -543v-94h-653q8 -100 70.5 -149t197.5 -49q88 0 183.5 17t154.5 38l-45 -268q-151 -48 -323 -48zM385 633h365
q-10 203 -181 203q-82 0 -129 -51.5t-55 -151.5z" />
    <glyph glyph-name="edieresis" unicode="&#xeb;" horiz-adv-x="1103" 
d="M219 1192v244h268v-244h-268zM637 1192v244h268v-244h-268zM623 -23q-289 0 -422 136.5t-133 408.5q0 270 125.5 410.5t369.5 140.5q475 0 475 -543v-94h-653q8 -100 70.5 -149t197.5 -49q88 0 183.5 17t154.5 38l-45 -268q-151 -48 -323 -48zM385 633h365
q-10 203 -181 203q-82 0 -129 -51.5t-55 -151.5z" />
    <glyph glyph-name="igrave" unicode="&#xec;" horiz-adv-x="561" 
d="M256 1176l-338 303h352l201 -256zM119 0v1053h323v-1053h-323z" />
    <glyph glyph-name="iacute" unicode="&#xed;" horiz-adv-x="561" 
d="M281 1176l-215 47l200 256h350zM119 0v1053h323v-1053h-323z" />
    <glyph glyph-name="icircumflex" unicode="&#xee;" horiz-adv-x="561" 
d="M111 1174l-174 49l206 256h275l209 -256l-176 -49l-170 143zM119 0v1053h323v-1053h-323z" />
    <glyph glyph-name="idieresis" unicode="&#xef;" horiz-adv-x="561" 
d="M-41 1192v244h256v-244h-256zM346 1192v244h258v-244h-258zM119 0v1053h323v-1053h-323z" />
    <glyph glyph-name="eth" unicode="&#xf0;" horiz-adv-x="1118" 
d="M664 1257q119 -76 193.5 -154.5t114.5 -176t54 -198.5t14 -247q0 -262 -115.5 -381.5t-367.5 -119.5q-254 0 -370.5 118.5t-116.5 374.5q0 260 95 378t302 118q162 0 262 -97q-66 119 -287 234l-235 -141l-60 98l170 102q-80 37 -180 76l92 225q186 -74 318 -143l239 143
l62 -100zM559 242q92 0 130 54t38 185t-38 185.5t-130 54.5t-130 -54.5t-38 -185.5t38 -185t130 -54z" />
    <glyph glyph-name="ntilde" unicode="&#xf1;" horiz-adv-x="1189" 
d="M358 1171l-143 107q84 113 140.5 151.5t123.5 38.5q53 0 125 -49t96 -49q27 0 49.5 18.5t73.5 79.5l146 -106q-84 -111 -140.5 -151t-121.5 -40q-43 0 -86 26t-78 51.5t-60 25.5q-29 0 -51.5 -20t-73.5 -83zM119 0v1053h282l41 -113q109 133 291 133q168 0 257 -104.5
t89 -276.5v-692h-323v612q0 98 -35 146.5t-117 48.5q-86 0 -124 -48t-38 -147v-612h-323z" />
    <glyph glyph-name="ograve" unicode="&#xf2;" horiz-adv-x="1122" 
d="M537 1176l-338 303h352l199 -256zM561 -23q-256 0 -373.5 132.5t-117.5 417t117.5 415.5t373.5 131t374 -131t118 -415.5t-118 -417t-374 -132.5zM560 244q91 0 128 62.5t37 220t-37 220t-128 62.5t-127 -62.5t-36 -220t36 -220t127 -62.5z" />
    <glyph glyph-name="oacute" unicode="&#xf3;" horiz-adv-x="1122" 
d="M559 1176l-215 47l201 256h352zM561 -23q-256 0 -373.5 132.5t-117.5 417t117.5 415.5t373.5 131t374 -131t118 -415.5t-118 -417t-374 -132.5zM560 244q91 0 128 62.5t37 220t-37 220t-128 62.5t-127 -62.5t-36 -220t36 -220t127 -62.5z" />
    <glyph glyph-name="ocircumflex" unicode="&#xf4;" horiz-adv-x="1122" 
d="M358 1176l-182 47l234 256h299l233 -256l-184 -47l-201 139zM561 -23q-256 0 -373.5 132.5t-117.5 417t117.5 415.5t373.5 131t374 -131t118 -415.5t-118 -417t-374 -132.5zM560 244q91 0 128 62.5t37 220t-37 220t-128 62.5t-127 -62.5t-36 -220t36 -220t127 -62.5z" />
    <glyph glyph-name="otilde" unicode="&#xf5;" horiz-adv-x="1122" 
d="M330 1171l-144 107q84 113 140.5 151.5t122.5 38.5q53 0 125.5 -49t97.5 -49q27 0 49 18.5t74 79.5l145 -106q-84 -111 -140.5 -151t-121.5 -40q-43 0 -86 26t-79 51.5t-58 25.5q-29 0 -51.5 -20t-73.5 -83zM561 -23q-256 0 -373.5 132.5t-117.5 417t117.5 415.5
t373.5 131t374 -131t118 -415.5t-118 -417t-374 -132.5zM560 244q91 0 128 62.5t37 220t-37 220t-128 62.5t-127 -62.5t-36 -220t36 -220t127 -62.5z" />
    <glyph glyph-name="odieresis" unicode="&#xf6;" horiz-adv-x="1122" 
d="M215 1192v244h270v-244h-270zM633 1192v244h270v-244h-270zM561 -23q-256 0 -373.5 132.5t-117.5 417t117.5 415.5t373.5 131t374 -131t118 -415.5t-118 -417t-374 -132.5zM560 244q91 0 128 62.5t37 220t-37 220t-128 62.5t-127 -62.5t-36 -220t36 -220t127 -62.5z" />
    <glyph glyph-name="divide" unicode="&#xf7;" horiz-adv-x="1173" 
d="M444 985v250h285v-250h-285zM84 573v267h1006v-267h-1006zM444 178v250h285v-250h-285z" />
    <glyph glyph-name="oslash" unicode="&#xf8;" horiz-adv-x="1150" 
d="M1112 1073l-135 -168q88 -129 88 -379q0 -285 -117 -417t-373 -132q-197 0 -309 76l-57 -73h-172l137 165q-90 131 -90 381q0 285 117.5 416t373.5 131q195 0 308 -76l57 76h172zM575 809q-92 0 -128.5 -62.5t-36.5 -220.5q0 -70 8 -118l276 352q-37 49 -119 49zM575 244
q90 0 127 61.5t37 220.5q0 61 -6 107l-274 -346q36 -43 116 -43z" />
    <glyph glyph-name="ugrave" unicode="&#xf9;" horiz-adv-x="1189" 
d="M563 1176l-338 303h353l198 -256zM457 -23q-168 0 -257 104.5t-89 276.5v695h323v-613q0 -98 35 -146t117 -48q86 0 124 48t38 146v613h323v-1053h-283l-40 111q-109 -134 -291 -134z" />
    <glyph glyph-name="uacute" unicode="&#xfa;" horiz-adv-x="1189" 
d="M586 1176l-215 47l200 256h353zM457 -23q-168 0 -257 104.5t-89 276.5v695h323v-613q0 -98 35 -146t117 -48q86 0 124 48t38 146v613h323v-1053h-283l-40 111q-109 -134 -291 -134z" />
    <glyph glyph-name="ucircumflex" unicode="&#xfb;" horiz-adv-x="1189" 
d="M385 1176l-182 47l233 256h297l236 -256l-185 -47l-200 139zM457 -23q-168 0 -257 104.5t-89 276.5v695h323v-613q0 -98 35 -146t117 -48q86 0 124 48t38 146v613h323v-1053h-283l-40 111q-109 -134 -291 -134z" />
    <glyph glyph-name="udieresis" unicode="&#xfc;" horiz-adv-x="1189" 
d="M242 1192v244h268v-244h-268zM659 1192v244h271v-244h-271zM457 -23q-168 0 -257 104.5t-89 276.5v695h323v-613q0 -98 35 -146t117 -48q86 0 124 48t38 146v613h323v-1053h-283l-40 111q-109 -134 -291 -134z" />
    <glyph glyph-name="yacute" unicode="&#xfd;" horiz-adv-x="1079" 
d="M547 1176l-215 47l200 256h353zM313 -410q-121 0 -176 35l-49 262q68 -29 141 -28q111 0 152 98l18 47l-397 1049h344l213 -668l178 668h334l-393 -1157q-55 -162 -145.5 -234t-219.5 -72z" />
    <glyph glyph-name="thorn" unicode="&#xfe;" horiz-adv-x="1173" 
d="M119 -389v1798l323 49v-514q16 25 43 49.5t91.5 52t144.5 27.5q197 0 288 -131t91 -416.5t-91 -415.5t-288 -130q-80 0 -144.5 27.5t-91 52t-43.5 46.5v-495h-323zM607 244q91 0 129 62.5t38 219t-38 219t-129 62.5t-128 -62.5t-37 -219t37 -219t128 -62.5z" />
    <glyph glyph-name="ydieresis" unicode="&#xff;" horiz-adv-x="1079" 
d="M203 1192v244h268v-244h-268zM621 1192v244h270v-244h-270zM313 -410q-121 0 -176 35l-49 262q68 -29 141 -28q111 0 152 98l18 47l-397 1049h344l213 -668l178 668h334l-393 -1157q-55 -162 -145.5 -234t-219.5 -72z" />
    <glyph glyph-name="Amacron" unicode="&#x100;" horiz-adv-x="1392" 
d="M1018 1792v-178h-645v178h645zM1028 0l-88 279h-496l-90 -279h-356l526 1434h342l527 -1434h-365zM528 547h326l-164 508z" />
    <glyph glyph-name="amacron" unicode="&#x101;" horiz-adv-x="1097" 
d="M238 1233v178h645v-178h-645zM393 -23q-164 0 -251 88.5t-87 245.5q0 150 96.5 234t276.5 84h244v35q0 78 -45 111.5t-158 33.5q-172 0 -330 -45l47 268q150 37 346 37q459 0 459 -407v-662h-278l-41 106q-66 -129 -279 -129zM494 213q94 0 136 36t42 128v61h-178
q-131 0 -132 -112q1 -113 132 -113z" />
    <glyph glyph-name="Abreve" unicode="&#x102;" horiz-adv-x="1392" 
d="M696 1546q-164 0 -249 79t-97 210l238 43q6 -160 108 -160t107 160l239 -43q-12 -131 -97 -210t-249 -79zM1028 0l-88 279h-496l-90 -279h-356l526 1434h342l527 -1434h-365zM528 547h326l-164 508z" />
    <glyph glyph-name="abreve" unicode="&#x103;" horiz-adv-x="1097" 
d="M561 1165q-164 0 -250 78t-98 211l240 43q4 -162 108 -162q100 0 107 162l237 -43q-12 -133 -97 -211t-247 -78zM393 -23q-164 0 -251 88.5t-87 245.5q0 150 96.5 234t276.5 84h244v35q0 78 -45 111.5t-158 33.5q-172 0 -330 -45l47 268q150 37 346 37q459 0 459 -407
v-662h-278l-41 106q-66 -129 -279 -129zM494 213q94 0 136 36t42 128v61h-178q-131 0 -132 -112q1 -113 132 -113z" />
    <glyph glyph-name="Aogonek" unicode="&#x104;" horiz-adv-x="1392" 
d="M1255 -172q0 -66 70 -66q20 0 37.5 3.5t23.5 7.5l7 4v-162q-55 -25 -146 -25q-106 0 -160.5 46.5t-54.5 125.5q0 68 46 131.5t130 106.5h-180l-88 279h-496l-90 -279h-356l526 1434h342l527 -1434q-138 -92 -138 -172zM528 547h326l-164 508z" />
    <glyph glyph-name="aogonek" unicode="&#x105;" horiz-adv-x="1097" 
d="M922 -238q20 0 37.5 3.5t25.5 7.5l6 4v-162q-55 -25 -147 -25q-106 0 -160.5 46.5t-54.5 125.5q0 68 46 131.5t132 106.5h-94l-41 106q-66 -129 -279 -129q-164 0 -251 88.5t-87 245.5q0 150 95.5 234t275.5 84h246v33q0 80 -45 113.5t-158 33.5q-172 0 -330 -45l47 268
q150 37 346 37q459 0 459 -407v-662q-139 -92 -139 -172q0 -66 70 -66zM494 213q94 0 136 36t42 128v61h-178q-131 0 -132 -112q1 -113 132 -113z" />
    <glyph glyph-name="Cacute" unicode="&#x106;" horiz-adv-x="1161" 
d="M664 1556l-215 50l200 254h350zM711 -33q-317 0 -474 185.5t-157 564.5t156.5 564t474.5 185q98 0 192 -22.5t152 -50.5l18 -308q-53 31 -140 54.5t-175 23.5q-172 0 -248 -102.5t-76 -343.5q0 -242 76 -344.5t248 -102.5q94 0 189 27t155 57l-47 -317
q-55 -27 -149.5 -48.5t-194.5 -21.5z" />
    <glyph glyph-name="cacute" unicode="&#x107;" horiz-adv-x="950" 
d="M530 1176l-213 47l199 256h352zM571 -23q-256 0 -379.5 134.5t-123.5 412.5q0 279 123.5 414t379.5 135q176 0 285 -53l16 -266q-123 57 -256 57q-117 0 -169 -66.5t-52 -220.5q0 -150 53.5 -215t172.5 -65q147 0 278 61l-47 -274q-39 -20 -116 -37t-165 -17z" />
    <glyph glyph-name="Ccircumflex" unicode="&#x108;" horiz-adv-x="1161" 
d="M463 1556l-184 50l233 254h299l233 -254l-184 -50l-201 142zM711 -33q-317 0 -474 185.5t-157 564.5t156.5 564t474.5 185q98 0 192 -22.5t152 -50.5l18 -308q-53 31 -140 54.5t-175 23.5q-172 0 -248 -102.5t-76 -343.5q0 -242 76 -344.5t248 -102.5q94 0 189 27t155 57
l-47 -317q-55 -27 -149.5 -48.5t-194.5 -21.5z" />
    <glyph glyph-name="ccircumflex" unicode="&#x109;" horiz-adv-x="950" 
d="M330 1176l-183 47l234 256h299l233 -256l-184 -47l-201 139zM571 -23q-256 0 -379.5 134.5t-123.5 412.5q0 279 123.5 414t379.5 135q176 0 285 -53l16 -266q-123 57 -256 57q-117 0 -169 -66.5t-52 -220.5q0 -150 53.5 -215t172.5 -65q147 0 278 61l-47 -274
q-39 -20 -116 -37t-165 -17z" />
    <glyph glyph-name="Cdotaccent" unicode="&#x10a;" horiz-adv-x="1161" 
d="M506 1575v248h315v-248h-315zM711 -33q-317 0 -474 185.5t-157 564.5t156.5 564t474.5 185q98 0 192 -22.5t152 -50.5l18 -308q-53 31 -140 54.5t-175 23.5q-172 0 -248 -102.5t-76 -343.5q0 -242 76 -344.5t248 -102.5q94 0 189 27t155 57l-47 -317
q-55 -27 -149.5 -48.5t-194.5 -21.5z" />
    <glyph glyph-name="cdotaccent" unicode="&#x10b;" horiz-adv-x="950" 
d="M375 1190v250h315v-250h-315zM571 -23q-256 0 -379.5 134.5t-123.5 412.5q0 279 123.5 414t379.5 135q176 0 285 -53l16 -266q-123 57 -256 57q-117 0 -169 -66.5t-52 -220.5q0 -150 53.5 -215t172.5 -65q147 0 278 61l-47 -274q-39 -20 -116 -37t-165 -17z" />
    <glyph glyph-name="Ccaron" unicode="&#x10c;" horiz-adv-x="1161" 
d="M469 1860l197 -140l200 140l185 -48l-234 -256h-299l-233 256zM711 -33q-317 0 -474 185.5t-157 564.5t156.5 564t474.5 185q98 0 192 -22.5t152 -50.5l18 -308q-53 31 -140 54.5t-175 23.5q-172 0 -248 -102.5t-76 -343.5q0 -242 76 -344.5t248 -102.5q94 0 189 27
t155 57l-47 -317q-55 -27 -149.5 -48.5t-194.5 -21.5z" />
    <glyph glyph-name="ccaron" unicode="&#x10d;" horiz-adv-x="950" 
d="M733 1483l185 -47l-234 -254h-299l-233 254l182 47l201 -137zM571 -23q-256 0 -379.5 134.5t-123.5 412.5q0 279 123.5 414t379.5 135q176 0 285 -53l16 -266q-123 57 -256 57q-117 0 -169 -66.5t-52 -220.5q0 -150 53.5 -215t172.5 -65q147 0 278 61l-47 -274
q-39 -20 -116 -37t-165 -17z" />
    <glyph glyph-name="Dcaron" unicode="&#x10e;" horiz-adv-x="1376" 
d="M451 1860l198 -140l201 140l182 -48l-233 -256h-299l-234 256zM145 0v1434h543q311 0 458.5 -168t147.5 -549t-147.5 -549t-458.5 -168h-543zM494 295h194q88 0 141.5 35t82 128t28.5 259t-28.5 259t-82 128t-141.5 35h-194v-844z" />
    <glyph glyph-name="dcaron" unicode="&#x10f;" horiz-adv-x="1271" 
d="M731 1407l324 49v-1456h-283l-41 106q-16 -25 -41.5 -49t-91.5 -52t-145 -28q-195 0 -287 131.5t-92 417t92 416.5t287 131q80 0 145.5 -27.5t91 -52t41.5 -49.5v463zM1157 1073l35 361h293l-189 -361h-139zM566 244q91 0 128 62.5t37 220t-37 220t-128 62.5t-129 -62.5
t-38 -220t38 -220t129 -62.5z" />
    <glyph glyph-name="Dcroat" unicode="&#x110;" horiz-adv-x="1402" 
d="M713 1434q311 0 458.5 -168t147.5 -549t-147.5 -549t-458.5 -168h-541v631h-141v192h141v611h541zM713 295q88 0 141 35t82 128t29 259t-29 259t-82 128t-141 35h-195v-316h250v-192h-250v-336h195z" />
    <glyph glyph-name="dcroat" unicode="&#x111;" horiz-adv-x="1173" 
d="M1200 1284v-149h-145v-1135h-283l-41 106q-16 -25 -41.5 -49t-91.5 -52t-145 -28q-195 0 -287 131.5t-92 417t92 416.5t287 131q80 0 145.5 -27.5t91 -52t41.5 -49.5v191h-311v149h311v123l324 49v-172h145zM566 244q91 0 128 62.5t37 220t-37 220t-128 62.5t-129 -62.5
t-38 -220t38 -220t129 -62.5z" />
    <glyph glyph-name="Emacron" unicode="&#x112;" horiz-adv-x="1247" 
d="M317 1614v178h646v-178h-646zM145 0v1434h988l16 -289h-655v-277h575v-290h-575v-289h680l-48 -289h-981z" />
    <glyph glyph-name="emacron" unicode="&#x113;" horiz-adv-x="1103" 
d="M242 1233v178h645v-178h-645zM623 -23q-289 0 -422 136.5t-133 408.5q0 270 125.5 410.5t369.5 140.5q475 0 475 -543v-94h-653q8 -100 70.5 -149t197.5 -49q88 0 183.5 17t154.5 38l-45 -268q-151 -48 -323 -48zM385 633h365q-10 203 -181 203q-82 0 -129 -51.5
t-55 -151.5z" />
    <glyph glyph-name="Ebreve" unicode="&#x114;" horiz-adv-x="1247" 
d="M641 1546q-164 0 -250 79t-96 210l237 43q6 -160 109 -160q100 0 107 160l237 -43q-10 -131 -96 -210t-248 -79zM145 0v1434h988l16 -289h-655v-277h575v-290h-575v-289h680l-48 -289h-981z" />
    <glyph glyph-name="ebreve" unicode="&#x115;" horiz-adv-x="1103" 
d="M565 1165q-164 0 -250 78t-98 211l240 43q4 -162 108 -162q100 0 107 162l237 -43q-12 -133 -97 -211t-247 -78zM623 -23q-289 0 -422 136.5t-133 408.5q0 270 125.5 410.5t369.5 140.5q475 0 475 -543v-94h-653q8 -100 70.5 -149t197.5 -49q88 0 183.5 17t154.5 38
l-45 -268q-151 -48 -323 -48zM385 633h365q-10 203 -181 203q-82 0 -129 -51.5t-55 -151.5z" />
    <glyph glyph-name="Edotaccent" unicode="&#x116;" horiz-adv-x="1247" 
d="M481 1575v248h316v-248h-316zM145 0v1434h988l16 -289h-655v-277h575v-290h-575v-289h680l-48 -289h-981z" />
    <glyph glyph-name="edotaccent" unicode="&#x117;" horiz-adv-x="1103" 
d="M408 1190v250h313v-250h-313zM623 -23q-289 0 -422 136.5t-133 408.5q0 270 125.5 410.5t369.5 140.5q475 0 475 -543v-94h-653q8 -100 70.5 -149t197.5 -49q88 0 183.5 17t154.5 38l-45 -268q-151 -48 -323 -48zM385 633h365q-10 203 -181 203q-82 0 -129 -51.5
t-55 -151.5z" />
    <glyph glyph-name="Eogonek" unicode="&#x118;" horiz-adv-x="1247" 
d="M1126 0q-139 -92 -139 -172q0 -66 72 -66q20 0 36.5 3.5t24.5 7.5l6 4v-162q-55 -25 -147 -25q-106 0 -160.5 46.5t-54.5 125.5q0 68 47 131.5t131 106.5h-797v1434h988l16 -289h-655v-277h575v-290h-575v-289h680z" />
    <glyph glyph-name="eogonek" unicode="&#x119;" horiz-adv-x="1103" 
d="M1038 530v-94h-653q8 -100 70.5 -149t197.5 -49q88 0 183.5 17t154.5 38l-45 -268q-219 -104 -219 -203q0 -66 76 -66q18 0 35.5 3t25.5 8l6 4v-156q-57 -25 -149 -25q-104 0 -158.5 44t-54.5 122q0 135 172 224q-29 -2 -57 -3q-289 0 -422 136.5t-133 408.5
q0 270 125.5 410.5t369.5 140.5q475 0 475 -543zM385 633h365q-10 203 -181 203q-82 0 -129 -51.5t-55 -151.5z" />
    <glyph glyph-name="Ecaron" unicode="&#x11a;" horiz-adv-x="1247" 
d="M444 1860l197 -140l201 140l184 -48l-233 -256h-299l-234 256zM145 0v1434h988l16 -289h-655v-277h575v-290h-575v-289h680l-48 -289h-981z" />
    <glyph glyph-name="ecaron" unicode="&#x11b;" horiz-adv-x="1103" 
d="M766 1483l182 -47l-233 -254h-299l-234 254l185 47l198 -137zM623 -23q-289 0 -422 136.5t-133 408.5q0 270 125.5 410.5t369.5 140.5q475 0 475 -543v-94h-653q8 -100 70.5 -149t197.5 -49q88 0 183.5 17t154.5 38l-45 -268q-151 -48 -323 -48zM385 633h365
q-10 203 -181 203q-82 0 -129 -51.5t-55 -151.5z" />
    <glyph glyph-name="Gcircumflex" unicode="&#x11c;" horiz-adv-x="1282" 
d="M475 1556l-182 50l233 254h299l234 -254l-185 -50l-200 142zM737 -33q-332 0 -494.5 185.5t-162.5 564.5t163 564t494 185q115 0 220.5 -22.5t164.5 -48.5l17 -308q-57 31 -159.5 55.5t-207.5 24.5q-180 0 -259 -103t-79 -347t75 -347.5t241 -103.5q55 0 104 8v506h326
v-731q-228 -82 -443 -82z" />
    <glyph glyph-name="gcircumflex" unicode="&#x11d;" horiz-adv-x="1173" 
d="M399 1176l-182 47l234 256h299l233 -256l-184 -47l-201 139zM508 -412q-178 0 -311 52l-47 274q152 -66 315 -66q137 0 200.5 59.5t65.5 203.5v18q-16 -23 -42.5 -45.5t-91.5 -46t-144 -23.5q-197 0 -288 125t-91 398q0 281 92 408.5t287 127.5q80 0 145.5 -27.5t91 -52
t41.5 -49.5l41 109h283v-930q0 -535 -547 -535zM566 272q91 0 128 57.5t37 205.5q0 152 -37 213t-128 61t-129 -61.5t-38 -212.5q0 -147 38 -205t129 -58z" />
    <glyph glyph-name="Gbreve" unicode="&#x11e;" horiz-adv-x="1282" 
d="M680 1546q-164 0 -250 79t-96 210l237 43q6 -160 109 -160q100 0 106 160l238 -43q-10 -131 -96 -210t-248 -79zM737 -33q-332 0 -494.5 185.5t-162.5 564.5t163 564t494 185q115 0 220.5 -22.5t164.5 -48.5l17 -308q-57 31 -159.5 55.5t-207.5 24.5q-180 0 -259 -103
t-79 -347t75 -347.5t241 -103.5q55 0 104 8v506h326v-731q-228 -82 -443 -82z" />
    <glyph glyph-name="gbreve" unicode="&#x11f;" horiz-adv-x="1173" 
d="M602 1165q-164 0 -250 78t-96 211l238 43q6 -162 108 -162q100 0 107 162l239 -43q-12 -133 -98 -211t-248 -78zM508 -412q-178 0 -311 52l-47 274q152 -66 315 -66q137 0 200.5 59.5t65.5 203.5v18q-16 -23 -42.5 -45.5t-91.5 -46t-144 -23.5q-197 0 -288 125t-91 398
q0 281 92 408.5t287 127.5q80 0 145.5 -27.5t91 -52t41.5 -49.5l41 109h283v-930q0 -535 -547 -535zM566 272q91 0 128 57.5t37 205.5q0 152 -37 213t-128 61t-129 -61.5t-38 -212.5q0 -147 38 -205t129 -58z" />
    <glyph glyph-name="Gdotaccent" unicode="&#x120;" horiz-adv-x="1282" 
d="M520 1575v248h316v-248h-316zM737 -33q-332 0 -494.5 185.5t-162.5 564.5t163 564t494 185q115 0 220.5 -22.5t164.5 -48.5l17 -308q-57 31 -159.5 55.5t-207.5 24.5q-180 0 -259 -103t-79 -347t75 -347.5t241 -103.5q55 0 104 8v506h326v-731q-228 -82 -443 -82z" />
    <glyph glyph-name="gdotaccent" unicode="&#x121;" horiz-adv-x="1173" 
d="M444 1190v250h316v-250h-316zM508 -412q-178 0 -311 52l-47 274q152 -66 315 -66q137 0 200.5 59.5t65.5 203.5v18q-16 -23 -42.5 -45.5t-91.5 -46t-144 -23.5q-197 0 -288 125t-91 398q0 281 92 408.5t287 127.5q80 0 145.5 -27.5t91 -52t41.5 -49.5l41 109h283v-930
q0 -535 -547 -535zM566 272q91 0 128 57.5t37 205.5q0 152 -37 213t-128 61t-129 -61.5t-38 -212.5q0 -147 38 -205t129 -58z" />
    <glyph glyph-name="uni0122" unicode="&#x122;" horiz-adv-x="1282" 
d="M737 -33q-332 0 -494.5 185.5t-162.5 564.5t163 564t494 185q115 0 220.5 -22.5t164.5 -48.5l17 -308q-57 31 -159.5 55.5t-207.5 24.5q-180 0 -259 -103t-79 -347t75 -347.5t241 -103.5q55 0 104 8v506h326v-731q-228 -82 -443 -82zM530 -498l41 383h328l-213 -383h-156
z" />
    <glyph glyph-name="uni0123" unicode="&#x123;" horiz-adv-x="1173" 
d="M438 1155l221 381h156l-49 -381h-328zM508 -412q-178 0 -311 52l-47 274q152 -66 315 -66q137 0 200.5 59.5t65.5 203.5v18q-16 -23 -42.5 -45.5t-91.5 -46t-144 -23.5q-197 0 -288 125t-91 398q0 281 92 408.5t287 127.5q80 0 145.5 -27.5t91 -52t41.5 -49.5l41 109h283
v-930q0 -535 -547 -535zM566 272q91 0 128 57.5t37 205.5q0 152 -37 213t-128 61t-129 -61.5t-38 -212.5q0 -147 38 -205t129 -58z" />
    <glyph glyph-name="Hcircumflex" unicode="&#x124;" horiz-adv-x="1419" 
d="M510 1556l-182 48l233 256h299l234 -256l-185 -48l-200 140zM926 1434h348v-1434h-348v573h-432v-573h-349v1434h349v-562h432v562z" />
    <glyph glyph-name="hcircumflex" unicode="&#x125;" horiz-adv-x="1189" 
d="M80 1556l-184 50l233 254h299l234 -254l-183 -50l-200 142zM733 1073q168 0 257 -103.5t89 -275.5v-694h-323v610q0 98 -35 147.5t-117 49.5q-86 0 -124 -49t-38 -148v-610h-323v1407l323 49v-516q111 133 291 133z" />
    <glyph glyph-name="Hbar" unicode="&#x126;" horiz-adv-x="1492" 
d="M1460 1251v-174h-151v-1077h-346v573h-433v-573h-346v1077h-151v174h151v183h346v-183h433v183h346v-183h151zM963 872v205h-433v-205h433z" />
    <glyph glyph-name="hbar" unicode="&#x127;" horiz-adv-x="1189" 
d="M733 1036q168 0 257 -103.5t89 -275.5v-657h-323v573q0 98 -35 146.5t-117 48.5q-86 0 -124 -48t-38 -147v-573h-323v1130h-144v152h144v127l323 49v-176h349v-152h-349v-227q111 133 291 133z" />
    <glyph glyph-name="Itilde" unicode="&#x128;" horiz-adv-x="641" 
d="M109 1554l-142 107q74 111 128.5 150.5t115.5 39.5q51 0 117.5 -50t93.5 -50q25 0 45 19.5t59 80.5l142 -106q-74 -113 -126.5 -152t-115.5 -39q-49 0 -116.5 50.5t-93.5 50.5t-47 -20t-60 -81zM145 0v1434h351v-1434h-351z" />
    <glyph glyph-name="itilde" unicode="&#x129;" horiz-adv-x="561" 
d="M72 1171l-142 107q74 111 127.5 150.5t114.5 39.5q51 0 118.5 -49t92.5 -49q27 0 47.5 19.5t58.5 78.5l142 -106q-74 -111 -127 -151t-115 -40q-51 0 -117.5 51.5t-93 51.5t-47 -21t-59.5 -82zM119 0v1053h323v-1053h-323z" />
    <glyph glyph-name="Imacron" unicode="&#x12a;" horiz-adv-x="641" 
d="M29 1614v178h581v-178h-581zM145 0v1434h351v-1434h-351z" />
    <glyph glyph-name="imacron" unicode="&#x12b;" horiz-adv-x="561" 
d="M-10 1233v178h581v-178h-581zM119 0v1053h323v-1053h-323z" />
    <glyph glyph-name="Ibreve" unicode="&#x12c;" horiz-adv-x="641" 
d="M322 1546q-162 0 -244 78t-92 211l235 43q4 -160 101 -160q92 0 96 160l235 -43q-10 -133 -91.5 -211t-239.5 -78zM145 0v1434h351v-1434h-351z" />
    <glyph glyph-name="ibreve" unicode="&#x12d;" horiz-adv-x="561" 
d="M283 1165q-162 0 -244 78t-92 211l235 43q4 -162 101 -162q92 0 96 162l235 -43q-10 -133 -91.5 -211t-239.5 -78zM119 0v1053h323v-1053h-323z" />
    <glyph glyph-name="Iogonek" unicode="&#x12e;" horiz-adv-x="638" 
d="M426 -238q20 0 37.5 3.5t23.5 7.5l9 4v-162q-57 -25 -150 -25q-104 0 -158.5 46.5t-54.5 125.5q0 68 46 131.5t128 106.5h-162v1434h349v-1434q-139 -92 -140 -172q0 -66 72 -66z" />
    <glyph glyph-name="iogonek" unicode="&#x12f;" horiz-adv-x="561" 
d="M119 1432h323v-244h-323v244zM119 0v1053h323v-1053q-139 -90 -139 -172q0 -66 72 -66q45 0 67 15v-162q-57 -25 -147 -25q-104 0 -158.5 46.5t-54.5 125.5q0 68 46 131.5t130 106.5h-139z" />
    <glyph glyph-name="Idotaccent" unicode="&#x130;" horiz-adv-x="641" 
d="M162 1575v248h313v-248h-313zM145 0v1434h351v-1434h-351z" />
    <glyph glyph-name="dotlessi" unicode="&#x131;" horiz-adv-x="561" 
d="M119 0v1053h323v-1053h-323z" />
    <glyph glyph-name="IJ" unicode="&#x132;" horiz-adv-x="1705" 
d="M145 0v1434h351v-1434h-351zM1024 -31q-184 0 -305 51l-51 318q139 -61 305 -62q129 0 190.5 70t61.5 229v859h348v-859q0 -606 -549 -606z" />
    <glyph glyph-name="ij" unicode="&#x133;" horiz-adv-x="1140" 
d="M119 1188v244h323v-244h-323zM696 1188v244h324v-244h-324zM119 0v1053h323v-1053h-323zM623 -412q-92 0 -172 37l-48 271q66 -37 144 -37q76 0 112.5 45t36.5 151v998h324v-998q0 -238 -103.5 -352.5t-293.5 -114.5z" />
    <glyph glyph-name="Jcircumflex" unicode="&#x134;" horiz-adv-x="1064" 
d="M588 1556l-176 50l209 254h274l209 -254l-176 -50l-172 144zM383 -31q-184 0 -305 51l-49 318q137 -61 303 -62q131 0 192.5 70t61.5 229v859h346v-859q0 -606 -549 -606z" />
    <glyph glyph-name="jcircumflex" unicode="&#x135;" horiz-adv-x="577" 
d="M125 1174l-176 49l209 256h274l209 -256l-176 -49l-172 143zM61 -410q-94 0 -174 37l-47 271q70 -39 146 -39t112.5 45t36.5 153v996h324v-996q0 -238 -104 -352.5t-294 -114.5z" />
    <glyph glyph-name="uni0136" unicode="&#x136;" horiz-adv-x="1355" 
d="M963 0l-351 584h-118v-584h-349v1434h349v-572h118l328 572h383l-426 -693l461 -741h-395zM512 -483l41 381h328l-213 -381h-156z" />
    <glyph glyph-name="uni0137" unicode="&#x137;" horiz-adv-x="1134" 
d="M766 0l-229 412h-101v-412h-317v1407l317 49v-797h94l222 394h352l-311 -502l337 -551h-364zM397 -483l39 381h328l-211 -381h-156z" />
    <glyph glyph-name="kgreenlandic" unicode="&#x138;" horiz-adv-x="1134" 
d="M119 0v1053h317v-398h94l222 398h352l-311 -510l337 -543h-364l-229 406h-101v-406h-317z" />
    <glyph glyph-name="Lacute" unicode="&#x139;" horiz-adv-x="1161" 
d="M319 1556l-215 50l201 254h352zM145 0v1434h349v-1129h641l-50 -305h-940z" />
    <glyph glyph-name="lacute" unicode="&#x13a;" horiz-adv-x="561" 
d="M279 1556l-216 50l201 254h352zM119 0v1407l323 49v-1456h-323z" />
    <glyph glyph-name="uni013B" unicode="&#x13b;" horiz-adv-x="1161" 
d="M145 0v1434h349v-1129h641l-50 -305h-940zM440 -483l41 381h328l-213 -381h-156z" />
    <glyph glyph-name="uni013C" unicode="&#x13c;" horiz-adv-x="561" 
d="M119 0v1407l323 49v-1456h-323zM88 -483l41 381h328l-213 -381h-156z" />
    <glyph glyph-name="Lcaron" unicode="&#x13d;" horiz-adv-x="1169" 
d="M145 0v1434h349v-1129h641l-50 -305h-940zM684 1053l39 381h328l-213 -381h-154z" />
    <glyph glyph-name="lcaron" unicode="&#x13e;" horiz-adv-x="561" 
d="M119 0v1407l323 49v-1456h-323zM549 1073l35 361h293l-191 -361h-137z" />
    <glyph glyph-name="Ldot" unicode="&#x13f;" horiz-adv-x="1175" 
d="M145 0v1434h349v-1129h641l-50 -305h-940zM702 651v332h342v-332h-342z" />
    <glyph glyph-name="ldot" unicode="&#x140;" horiz-adv-x="811" 
d="M119 0v1407l323 49v-1456h-323zM549 674v303h266v-303h-266z" />
    <glyph glyph-name="Lslash" unicode="&#x141;" horiz-adv-x="1208" 
d="M541 305h641l-49 -305h-940v571l-152 -84v236l152 86v625h348v-459l307 176v-236l-307 -178v-432z" />
    <glyph glyph-name="lslash" unicode="&#x142;" horiz-adv-x="716" 
d="M670 1065v-205l-146 -88v-772h-323v641l-148 -90v207l148 86v563l323 49v-481z" />
    <glyph glyph-name="Nacute" unicode="&#x143;" horiz-adv-x="1454" 
d="M719 1556l-213 50l201 254h350zM993 1434h316v-1434h-297l-549 872v-872h-318v1434h299l549 -871v871z" />
    <glyph glyph-name="nacute" unicode="&#x144;" horiz-adv-x="1189" 
d="M588 1176l-213 47l198 256h353zM119 0v1053h282l41 -113q109 133 291 133q168 0 257 -104.5t89 -276.5v-692h-323v612q0 98 -35 146.5t-117 48.5q-86 0 -124 -48t-38 -147v-612h-323z" />
    <glyph glyph-name="uni0145" unicode="&#x145;" horiz-adv-x="1454" 
d="M993 1434h316v-1434h-297l-549 872v-872h-318v1434h299l549 -871v871zM547 -483l39 381h327l-213 -381h-153z" />
    <glyph glyph-name="uni0146" unicode="&#x146;" horiz-adv-x="1189" 
d="M119 0v1053h282l41 -113q109 133 291 133q168 0 257 -104.5t89 -276.5v-692h-323v612q0 98 -35 146.5t-117 48.5q-86 0 -124 -48t-38 -147v-612h-323zM403 -483l39 381h328l-211 -381h-156z" />
    <glyph glyph-name="Ncaron" unicode="&#x147;" horiz-adv-x="1454" 
d="M526 1860l197 -140l201 140l184 -48l-234 -256h-299l-233 256zM993 1434h316v-1434h-297l-549 872v-872h-318v1434h299l549 -871v871z" />
    <glyph glyph-name="ncaron" unicode="&#x148;" horiz-adv-x="1189" 
d="M791 1483l184 -47l-234 -254h-299l-233 254l182 47l201 -137zM119 0v1053h282l41 -113q109 133 291 133q168 0 257 -104.5t89 -276.5v-692h-323v612q0 98 -35 146.5t-117 48.5q-86 0 -124 -48t-38 -147v-612h-323z" />
    <glyph glyph-name="napostrophe" unicode="&#x149;" horiz-adv-x="1284" 
d="M31 1159l32 340h275l-178 -340h-129zM213 0v1053h283l41 -113q109 133 290 133q168 0 257.5 -104.5t89.5 -276.5v-692h-324v612q0 98 -35 146.5t-117 48.5q-86 0 -123.5 -48t-37.5 -147v-612h-324z" />
    <glyph glyph-name="Eng" unicode="&#x14a;" horiz-adv-x="1454" 
d="M993 1434h316v-1434q0 -209 -90.5 -309.5t-255.5 -100.5q-88 0 -152 31l-41 246q72 -31 117 -31q63 0 94 37t31 127l-549 872v-872h-318v1434h299l549 -871v871z" />
    <glyph glyph-name="eng" unicode="&#x14b;" horiz-adv-x="1189" 
d="M733 1073q168 0 257 -104.5t89 -276.5v-692q0 -209 -90 -309.5t-256 -100.5q-86 0 -151 31l-41 246q49 -31 104 -31t83 37t28 127v612q0 98 -35 146.5t-117 48.5q-86 0 -124 -48t-38 -147v-612h-323v1053h282l41 -113q109 133 291 133z" />
    <glyph glyph-name="Omacron" unicode="&#x14c;" horiz-adv-x="1376" 
d="M367 1614v178h645v-178h-645zM688 -33q-311 0 -457.5 176t-146.5 573.5t146.5 573.5t457.5 176t457.5 -176t146.5 -573.5t-146.5 -573.5t-457.5 -176zM688 266q88 0 140.5 38t82 137.5t29.5 275.5t-29.5 276.5t-82 137t-140.5 36.5t-140 -36.5t-81 -137t-29 -276.5
t29 -275.5t81 -137.5t140 -38z" />
    <glyph glyph-name="omacron" unicode="&#x14d;" horiz-adv-x="1122" 
d="M238 1233v178h645v-178h-645zM561 -23q-256 0 -373.5 132.5t-117.5 417t117.5 415.5t373.5 131t374 -131t118 -415.5t-118 -417t-374 -132.5zM560 244q91 0 128 62.5t37 220t-37 220t-128 62.5t-127 -62.5t-36 -220t36 -220t127 -62.5z" />
    <glyph glyph-name="Obreve" unicode="&#x14e;" horiz-adv-x="1376" 
d="M690 1546q-164 0 -250 79t-96 210l238 43q6 -160 108 -160q100 0 107 160l237 -43q-10 -131 -96 -210t-248 -79zM688 -33q-311 0 -457.5 176t-146.5 573.5t146.5 573.5t457.5 176t457.5 -176t146.5 -573.5t-146.5 -573.5t-457.5 -176zM688 266q88 0 140.5 38t82 137.5
t29.5 275.5t-29.5 276.5t-82 137t-140.5 36.5t-140 -36.5t-81 -137t-29 -276.5t29 -275.5t81 -137.5t140 -38z" />
    <glyph glyph-name="obreve" unicode="&#x14f;" horiz-adv-x="1122" 
d="M561 1165q-164 0 -250 78t-96 211l238 43q6 -162 108 -162q100 0 107 162l239 -43q-12 -133 -98 -211t-248 -78zM561 -23q-256 0 -373.5 132.5t-117.5 417t117.5 415.5t373.5 131t374 -131t118 -415.5t-118 -417t-374 -132.5zM560 244q91 0 128 62.5t37 220t-37 220
t-128 62.5t-127 -62.5t-36 -220t36 -220t127 -62.5z" />
    <glyph glyph-name="Ohungarumlaut" unicode="&#x150;" horiz-adv-x="1376" 
d="M530 1556l-168 46l181 258h284zM887 1556l-168 46l178 258h287zM688 -33q-311 0 -457.5 176t-146.5 573.5t146.5 573.5t457.5 176t457.5 -176t146.5 -573.5t-146.5 -573.5t-457.5 -176zM688 266q88 0 140.5 38t82 137.5t29.5 275.5t-29.5 276.5t-82 137t-140.5 36.5
t-140 -36.5t-81 -137t-29 -276.5t29 -275.5t81 -137.5t140 -38z" />
    <glyph glyph-name="ohungarumlaut" unicode="&#x151;" horiz-adv-x="1122" 
d="M403 1176l-167 45l178 258h286zM760 1176l-168 45l178 258h287zM561 -23q-256 0 -373.5 132.5t-117.5 417t117.5 415.5t373.5 131t374 -131t118 -415.5t-118 -417t-374 -132.5zM560 244q91 0 128 62.5t37 220t-37 220t-128 62.5t-127 -62.5t-36 -220t36 -220t127 -62.5z
" />
    <glyph glyph-name="OE" unicode="&#x152;" horiz-adv-x="1998" 
d="M1280 289h647l-49 -289h-944v63q-104 -94 -297 -94q-285 0 -419 175t-134 572.5t134 572.5t419 175q193 0 297 -94v64h950l17 -289h-621v-277h541v-290h-541v-289zM686 268q86 0 138.5 37t81 137.5t28.5 274.5q0 176 -28.5 275.5t-80 136t-138.5 36.5t-139 -36.5
t-80 -136t-28 -275.5q0 -174 28 -274.5t80 -137.5t138 -37z" />
    <glyph glyph-name="oe" unicode="&#x153;" horiz-adv-x="1746" 
d="M1679 530v-94h-655q6 -100 67.5 -148t198.5 -48q82 0 169 13t134 28l47 12l-45 -268q-150 -45 -319 -45q-252 0 -379 122q-111 -123 -350 -122q-248 0 -362.5 131t-114.5 415.5t114.5 415.5t362.5 131q238 0 348 -123q117 123 319 123q465 0 465 -543zM1210 836
q-172 0 -186 -203h371q-15 203 -185 203zM562 244q91 0 128 62.5t37 219t-37 219t-128 62.5t-128 -62.5t-37 -219t37 -219t128 -62.5z" />
    <glyph glyph-name="Racute" unicode="&#x154;" horiz-adv-x="1370" 
d="M651 1556l-213 50l199 254h352zM1323 0h-379l-260 514h-192v-514h-347v1434h590q268 0 401.5 -119t133.5 -346q0 -305 -250 -406zM492 1149v-358h229q203 0 203 178q0 180 -203 180h-229z" />
    <glyph glyph-name="racute" unicode="&#x155;" horiz-adv-x="854" 
d="M453 1176l-215 47l200 256h353zM119 0v1053h282l41 -111q94 131 246 131q84 0 125 -26l18 -287q-66 43 -174 43q-98 0 -156.5 -55.5t-58.5 -163.5v-584h-323z" />
    <glyph glyph-name="uni0156" unicode="&#x156;" horiz-adv-x="1370" 
d="M1323 0h-379l-260 514h-195v-514h-344v1434h590q268 0 401.5 -119t133.5 -346q0 -305 -250 -406zM489 1149v-358h232q203 0 203 178q0 180 -203 180h-232zM510 -483l41 381h328l-213 -381h-156z" />
    <glyph glyph-name="uni0157" unicode="&#x157;" horiz-adv-x="854" 
d="M119 0v1053h282l41 -111q94 131 246 131q84 0 125 -26l18 -287q-66 43 -174 43q-98 0 -156.5 -55.5t-58.5 -163.5v-584h-323zM86 -483l39 381h328l-213 -381h-154z" />
    <glyph glyph-name="Rcaron" unicode="&#x158;" horiz-adv-x="1370" 
d="M457 1860l198 -140l201 140l184 -48l-233 -256h-299l-234 256zM1323 0h-379l-260 514h-192v-514h-347v1434h590q268 0 401.5 -119t133.5 -346q0 -305 -250 -406zM492 1149v-358h229q203 0 203 178q0 180 -203 180h-229z" />
    <glyph glyph-name="rcaron" unicode="&#x159;" horiz-adv-x="854" 
d="M655 1483l185 -47l-236 -254h-297l-233 254l182 47l201 -137zM119 0v1053h282l41 -111q94 131 246 131q84 0 125 -26l18 -287q-66 43 -174 43q-98 0 -156.5 -55.5t-58.5 -163.5v-584h-323z" />
    <glyph glyph-name="Sacute" unicode="&#x15a;" horiz-adv-x="1239" 
d="M623 1556l-215 50l200 254h353zM614 -33q-139 0 -273 22.5t-214 51.5l-47 311q98 -35 241.5 -62.5t270.5 -27.5q236 0 235 148q0 59 -39.5 92t-136.5 55l-231 57q-174 41 -258 141.5t-84 276.5q0 205 136 319.5t411 114.5q141 0 267 -20.5t195 -46.5l17 -303
q-82 31 -207 54.5t-244 23.5q-221 0 -221 -134q0 -61 40 -95t138 -58l224 -53q178 -43 264 -139.5t86 -278.5q0 -213 -140.5 -331t-429.5 -118z" />
    <glyph glyph-name="sacute" unicode="&#x15b;" horiz-adv-x="999" 
d="M508 1176l-213 47l199 256h352zM473 -20q-205 0 -360 57l-45 270q66 -31 176 -54.5t221 -23.5q166 0 166 80q0 35 -21.5 52.5t-85.5 29.5l-162 33q-154 31 -220 105.5t-66 213.5q0 160 111.5 245t338.5 85q199 0 344 -53l17 -258q-53 23 -144.5 41t-189.5 18
q-166 0 -166 -69q0 -33 22.5 -50.5t88.5 -31.5l155 -29q154 -31 220.5 -106.5t66.5 -221.5q0 -166 -111.5 -249.5t-355.5 -83.5z" />
    <glyph glyph-name="Scircumflex" unicode="&#x15c;" horiz-adv-x="1239" 
d="M422 1556l-182 50l233 254h299l234 -254l-185 -50l-200 142zM614 -33q-139 0 -273 22.5t-214 51.5l-47 311q98 -35 241.5 -62.5t270.5 -27.5q236 0 235 148q0 59 -39.5 92t-136.5 55l-231 57q-174 41 -258 141.5t-84 276.5q0 205 136 319.5t411 114.5q141 0 267 -20.5
t195 -46.5l17 -303q-82 31 -207 54.5t-244 23.5q-221 0 -221 -134q0 -61 40 -95t138 -58l224 -53q178 -43 264 -139.5t86 -278.5q0 -213 -140.5 -331t-429.5 -118z" />
    <glyph glyph-name="scircumflex" unicode="&#x15d;" horiz-adv-x="999" 
d="M307 1176l-182 47l233 256h299l234 -256l-184 -47l-201 139zM473 -20q-205 0 -360 57l-45 270q66 -31 176 -54.5t221 -23.5q166 0 166 80q0 35 -21.5 52.5t-85.5 29.5l-162 33q-154 31 -220 105.5t-66 213.5q0 160 111.5 245t338.5 85q199 0 344 -53l17 -258
q-53 23 -144.5 41t-189.5 18q-166 0 -166 -69q0 -33 22.5 -50.5t88.5 -31.5l155 -29q154 -31 220.5 -106.5t66.5 -221.5q0 -166 -111.5 -249.5t-355.5 -83.5z" />
    <glyph glyph-name="Scedilla" unicode="&#x15e;" horiz-adv-x="1239" 
d="M1184 416q0 -201 -124 -316.5t-378 -130.5l-16 -41q172 -8 172 -147q0 -88 -65.5 -139.5t-186.5 -51.5q-35 0 -70 5.5t-51 9.5l-16 6v139q49 -23 108 -22q88 0 88 55q0 53 -80 53h-71l47 133q-242 12 -414 72l-47 311q98 -35 241.5 -62.5t270.5 -27.5q236 0 235 148
q0 59 -39.5 92t-136.5 55l-231 57q-174 41 -258 141.5t-84 276.5q0 205 136 319.5t411 114.5q141 0 267 -20.5t195 -46.5l17 -303q-82 31 -207 54.5t-244 23.5q-221 0 -221 -134q0 -61 40 -95t138 -58l224 -53q178 -43 264 -139.5t86 -278.5z" />
    <glyph glyph-name="scedilla" unicode="&#x15f;" horiz-adv-x="999" 
d="M940 313q0 -295 -358 -329l-23 -56q172 -8 172 -147q0 -88 -64.5 -139.5t-185.5 -51.5q-37 0 -70.5 5.5t-52.5 9.5l-16 6v139q49 -23 109 -22q88 0 88 55q0 53 -80 53h-72l51 144q-188 6 -325 57l-45 270q66 -31 176 -54.5t221 -23.5q166 0 166 80q0 35 -21.5 52.5
t-85.5 29.5l-162 33q-154 31 -220 105.5t-66 213.5q0 160 111.5 245t338.5 85q199 0 344 -53l17 -258q-53 23 -144.5 41t-189.5 18q-166 0 -166 -69q0 -33 22.5 -50.5t88.5 -31.5l155 -29q154 -31 220.5 -107t66.5 -221z" />
    <glyph glyph-name="Scaron" unicode="&#x160;" horiz-adv-x="1239" 
d="M428 1860l199 -140l200 140l185 -48l-234 -256h-299l-233 256zM614 -33q-139 0 -273 22.5t-214 51.5l-47 311q98 -35 241.5 -62.5t270.5 -27.5q236 0 235 148q0 59 -39.5 92t-136.5 55l-231 57q-174 41 -258 141.5t-84 276.5q0 205 136 319.5t411 114.5q141 0 267 -20.5
t195 -46.5l17 -303q-82 31 -207 54.5t-244 23.5q-221 0 -221 -134q0 -61 40 -95t138 -58l224 -53q178 -43 264 -139.5t86 -278.5q0 -213 -140.5 -331t-429.5 -118z" />
    <glyph glyph-name="scaron" unicode="&#x161;" horiz-adv-x="999" 
d="M711 1483l184 -47l-233 -254h-300l-233 254l182 47l201 -137zM473 -20q-205 0 -360 57l-45 270q66 -31 176 -54.5t221 -23.5q166 0 166 80q0 35 -21.5 52.5t-85.5 29.5l-162 33q-154 31 -220 105.5t-66 213.5q0 160 111.5 245t338.5 85q199 0 344 -53l17 -258
q-53 23 -144.5 41t-189.5 18q-166 0 -166 -69q0 -33 22.5 -50.5t88.5 -31.5l155 -29q154 -31 220.5 -106.5t66.5 -221.5q0 -166 -111.5 -249.5t-355.5 -83.5z" />
    <glyph glyph-name="uni0162" unicode="&#x162;" horiz-adv-x="1179" 
d="M764 0h-123l-29 -72q170 -8 170 -147q0 -88 -64.5 -139.5t-185.5 -51.5q-43 0 -83.5 6.5t-59.5 10.5l-20 6v141q53 -27 133 -26q88 0 88 57q0 51 -80 51h-72l60 164h-82v1128h-379v306h1106v-306h-379v-1128z" />
    <glyph glyph-name="uni0163" unicode="&#x163;" horiz-adv-x="872" 
d="M797 20q-68 -37 -193 -40l-18 -52q172 -8 172 -147q0 -88 -65.5 -139.5t-186.5 -51.5q-35 0 -70 5.5t-51 11.5l-16 4v139q47 -23 106 -22q90 0 90 55q0 53 -80 53h-73l55 154q-279 59 -279 430v389h-159v244h159v211l324 67v-278h307v-244h-307v-383q0 -98 37 -138
t117 -40q90 0 178 33z" />
    <glyph glyph-name="Tcaron" unicode="&#x164;" horiz-adv-x="1179" 
d="M393 1860l199 -140l201 140l184 -48l-236 -256h-297l-233 256zM1143 1434v-306h-379v-1128h-348v1128h-379v306h1106z" />
    <glyph glyph-name="tcaron" unicode="&#x165;" horiz-adv-x="872" 
d="M641 1126l35 363h297l-193 -363h-139zM666 248q90 0 178 33l-47 -261q-78 -41 -217 -40q-188 0 -290 107.5t-102 332.5v389h-159v244h159v211l324 67v-278h307v-244h-307v-383q0 -98 37 -138t117 -40z" />
    <glyph glyph-name="Tbar" unicode="&#x166;" horiz-adv-x="1196" 
d="M1151 1128h-379v-331h205v-203h-205v-594h-348v594h-205v203h205v331h-379v306h1106v-306z" />
    <glyph glyph-name="tbar" unicode="&#x167;" horiz-adv-x="884" 
d="M676 248q90 0 178 33l-47 -261q-78 -41 -217 -40q-188 0 -289.5 107.5t-101.5 332.5v92h-160v164h160v133h-160v244h160v211l323 67v-278h307v-244h-307v-133h307v-164h-307v-86q0 -98 37 -138t117 -40z" />
    <glyph glyph-name="Utilde" unicode="&#x168;" horiz-adv-x="1384" 
d="M461 1554l-144 107q84 111 140.5 150.5t124.5 39.5q53 0 124.5 -50t98.5 -50q25 0 47 18.5t74 81.5l145 -106q-84 -113 -140.5 -152t-121.5 -39q-41 0 -85 25t-79 50.5t-59 25.5q-27 0 -50.5 -20t-74.5 -81zM692 -33q-285 0 -422 137.5t-137 423.5v906h348v-906
q0 -135 52.5 -194.5t158.5 -59.5t158.5 59.5t52.5 194.5v906h348v-906q0 -287 -137 -424t-422 -137z" />
    <glyph glyph-name="utilde" unicode="&#x169;" horiz-adv-x="1189" 
d="M356 1171l-145 107q86 113 142.5 151.5t121.5 38.5q53 0 126 -49t97 -49q27 0 49.5 18.5t73.5 79.5l146 -106q-84 -111 -141.5 -151t-120.5 -40q-43 0 -86.5 26t-79 51.5t-58.5 25.5q-29 0 -51.5 -20t-73.5 -83zM457 -23q-168 0 -257 104.5t-89 276.5v695h323v-613
q0 -98 35 -146t117 -48q86 0 124 48t38 146v613h323v-1053h-283l-40 111q-109 -134 -291 -134z" />
    <glyph glyph-name="Umacron" unicode="&#x16a;" horiz-adv-x="1384" 
d="M371 1614v178h645v-178h-645zM692 -33q-285 0 -422 137.5t-137 423.5v906h348v-906q0 -135 52.5 -194.5t158.5 -59.5t158.5 59.5t52.5 194.5v906h348v-906q0 -287 -137 -424t-422 -137z" />
    <glyph glyph-name="umacron" unicode="&#x16b;" horiz-adv-x="1189" 
d="M264 1233v178h645v-178h-645zM457 -23q-168 0 -257 104.5t-89 276.5v695h323v-613q0 -98 35 -146t117 -48q86 0 124 48t38 146v613h323v-1053h-283l-40 111q-109 -134 -291 -134z" />
    <glyph glyph-name="Uring" unicode="&#x16e;" horiz-adv-x="1384" 
d="M694 1546q-115 0 -187.5 65.5t-72.5 174.5q0 111 73 177.5t187 66.5q111 0 184.5 -67t73.5 -177q0 -109 -73.5 -174.5t-184.5 -65.5zM694 1690q45 0 71 25.5t26 70.5q0 47 -26 73.5t-71 26.5q-47 0 -73.5 -26.5t-26.5 -73.5q0 -45 26.5 -70.5t73.5 -25.5zM692 -33
q-285 0 -422 137.5t-137 423.5v906h348v-906q0 -135 52.5 -194.5t158.5 -59.5t158.5 59.5t52.5 194.5v906h348v-906q0 -287 -137 -424t-422 -137z" />
    <glyph glyph-name="uring" unicode="&#x16f;" horiz-adv-x="1189" 
d="M588 1165q-113 0 -185.5 64.5t-72.5 175.5t72.5 176.5t185.5 65.5t185.5 -65.5t72.5 -176.5t-72.5 -175.5t-185.5 -64.5zM588 1307q47 0 72.5 26.5t25.5 71.5t-25.5 71.5t-72.5 26.5t-73 -25.5t-26 -72.5q0 -45 26 -71.5t73 -26.5zM457 -23q-168 0 -257 104.5t-89 276.5
v695h323v-613q0 -98 35 -146t117 -48q86 0 124 48t38 146v613h323v-1053h-283l-40 111q-109 -134 -291 -134z" />
    <glyph glyph-name="Uhungarumlaut" unicode="&#x170;" horiz-adv-x="1384" 
d="M535 1556l-168 46l180 258h284zM891 1556l-168 46l178 258h287zM692 -33q-285 0 -422 137.5t-137 423.5v906h348v-906q0 -135 52.5 -194.5t158.5 -59.5t158.5 59.5t52.5 194.5v906h348v-906q0 -287 -137 -424t-422 -137z" />
    <glyph glyph-name="uhungarumlaut" unicode="&#x171;" horiz-adv-x="1189" 
d="M428 1176l-166 45l178 258h287zM786 1176l-168 45l179 258h286zM457 -23q-168 0 -257 104.5t-89 276.5v695h323v-613q0 -98 35 -146t117 -48q86 0 124 48t38 146v613h323v-1053h-283l-40 111q-109 -134 -291 -134z" />
    <glyph glyph-name="Uogonek" unicode="&#x172;" horiz-adv-x="1384" 
d="M903 1434h348v-906q0 -434 -325 -530q-135 -90 -135 -170q0 -66 71 -66q20 0 36.5 3.5t25.5 7.5l6 4v-162q-55 -25 -148 -25q-106 0 -160.5 46.5t-54.5 125.5q0 117 125 205q-285 0 -422 137.5t-137 423.5v906h348v-906q0 -135 52.5 -194.5t158.5 -59.5t158.5 59.5
t52.5 194.5v906z" />
    <glyph glyph-name="uogonek" unicode="&#x173;" horiz-adv-x="1189" 
d="M1071 0q-139 -92 -139 -172q0 -66 72 -66q18 0 35.5 3.5t25.5 7.5l6 4v-162q-57 -25 -147 -25q-106 0 -160.5 46.5t-54.5 125.5q0 68 47 131.5t129 106.5h-99l-38 111q-111 -133 -291 -134q-168 0 -257 104.5t-89 276.5v695h323v-613q0 -98 35 -146t117 -48q86 0 124 48
t38 146v613h323v-1053z" />
    <glyph glyph-name="Wcircumflex" unicode="&#x174;" horiz-adv-x="1867" 
d="M737 1556l-184 50l233 254h299l234 -254l-182 -50l-201 142zM1493 1434h340l-281 -1434h-342l-274 735l-277 -735h-340l-284 1434h350l156 -951l364 951h70l362 -951z" />
    <glyph glyph-name="wcircumflex" unicode="&#x175;" horiz-adv-x="1540" 
d="M569 1176l-182 47l234 256h299l233 -256l-184 -47l-201 139zM1196 1053h305l-229 -1053h-314l-190 479l-186 -479h-316l-227 1053h313l127 -664l264 662h60l266 -656z" />
    <glyph glyph-name="Ycircumflex" unicode="&#x176;" horiz-adv-x="1292" 
d="M444 1556l-182 50l234 254h299l233 -254l-184 -50l-201 142zM1282 1434l-461 -910v-524h-350v524l-465 910h381l262 -570l260 570h373z" />
    <glyph glyph-name="ycircumflex" unicode="&#x177;" horiz-adv-x="1079" 
d="M346 1176l-184 47l233 256h299l234 -256l-183 -47l-200 139zM313 -410q-121 0 -176 35l-49 262q68 -29 141 -28q111 0 152 98l18 47l-397 1049h344l213 -668l178 668h334l-393 -1157q-55 -162 -145.5 -234t-219.5 -72z" />
    <glyph glyph-name="Ydieresis" unicode="&#x178;" horiz-adv-x="1292" 
d="M301 1577v244h270v-244h-270zM721 1577v244h268v-244h-268zM1282 1434l-461 -910v-524h-350v524l-465 910h381l262 -570l260 570h373z" />
    <glyph glyph-name="Zacute" unicode="&#x179;" horiz-adv-x="1202" 
d="M602 1556l-215 50l201 254h352zM489 301h648l-50 -301h-1015v264l622 869h-594v301h1010v-265z" />
    <glyph glyph-name="zacute" unicode="&#x17a;" horiz-adv-x="995" 
d="M502 1176l-215 47l200 256h353zM457 258h483l-45 -258h-825v229l450 564h-432v260h821v-230z" />
    <glyph glyph-name="Zdotaccent" unicode="&#x17b;" horiz-adv-x="1202" 
d="M446 1575v248h314v-248h-314zM489 301h648l-50 -301h-1015v264l622 869h-594v301h1010v-265z" />
    <glyph glyph-name="zdotaccent" unicode="&#x17c;" horiz-adv-x="995" 
d="M344 1190v250h315v-250h-315zM457 258h483l-45 -258h-825v229l450 564h-432v260h821v-230z" />
    <glyph glyph-name="Zcaron" unicode="&#x17d;" horiz-adv-x="1202" 
d="M408 1860l198 -140l201 140l182 -48l-233 -256h-299l-234 256zM489 301h648l-50 -301h-1015v264l622 869h-594v301h1010v-265z" />
    <glyph glyph-name="zcaron" unicode="&#x17e;" horiz-adv-x="995" 
d="M702 1483l185 -47l-234 -254h-299l-233 254l184 47l199 -137zM457 258h483l-45 -258h-825v229l450 564h-432v260h821v-230z" />
    <glyph glyph-name="longs" unicode="&#x17f;" horiz-adv-x="686" 
d="M834 1427l16 -247q-72 33 -176 32q-76 0 -112 -35.5t-36 -123.5v-1053h-323v809h-160v244h160q0 207 106.5 306t302.5 99q113 0 222 -31z" />
    <glyph glyph-name="florin" unicode="&#x192;" horiz-adv-x="1118" 
d="M942 1188q-76 0 -120 -44t-62 -153l-12 -63h204l-43 -252h-204l-117 -660q-72 -426 -445 -426q-125 0 -194 37l2 271q57 -39 137 -39q76 0 120 45t62 153l109 619h-203l43 252h205l18 104q72 426 445 426q127 0 194 -37v-270q-57 37 -139 37z" />
    <glyph glyph-name="Aringacute" unicode="&#x1fa;" horiz-adv-x="1392" 
d="M1077 2230l-334 -280l-217 47l201 233h350zM693.5 1466q-115.5 0 -190.5 62.5t-75 167.5q0 104 75 165.5t190.5 61.5t190 -61.5t74.5 -165.5t-74.5 -167t-190 -63zM693 1792q-50 0 -77.5 -25.5t-27.5 -70.5t27.5 -71t77.5 -26t78 26t28 71t-28 70.5t-78 25.5zM1028 0
l-88 279h-496l-90 -279h-356l526 1434h342l527 -1434h-365zM528 547h326l-164 508z" />
    <glyph glyph-name="aringacute" unicode="&#x1fb;" horiz-adv-x="1097" 
d="M575 1624l-215 51l197 211h354zM541.5 1116q-115.5 0 -191.5 62.5t-76 167.5q0 106 76 167.5t191.5 61.5t191.5 -61.5t76 -167.5q0 -104 -76 -167t-191.5 -63zM541 1255q51 0 79.5 24t28.5 67t-28.5 67.5t-79.5 24.5q-49 0 -78 -24.5t-29 -67.5t29 -67t78 -24zM393 -23
q-164 0 -251 88.5t-87 245.5q0 150 96.5 234t276.5 84h244v35q0 78 -45 111.5t-158 33.5q-172 0 -330 -45l47 268q150 37 346 37q459 0 459 -407v-662h-278l-41 106q-66 -129 -279 -129zM494 213q94 0 136 36t42 128v61h-178q-131 0 -132 -112q1 -113 132 -113z" />
    <glyph glyph-name="AEacute" unicode="&#x1fc;" horiz-adv-x="2033" 
d="M1632 1860l-338 -304l-215 50l201 254h352zM1280 289h680l-47 -289h-981v311h-438l-168 -311h-355l803 1434h1145l16 -289h-655v-277h575v-290h-575v-289zM647 592h285v526z" />
    <glyph glyph-name="aeacute" unicode="&#x1fd;" horiz-adv-x="1716" 
d="M872 1176l-213 47l199 256h352zM467 -20q-414 0 -414 331q0 152 96.5 235t276.5 83h248v37q0 78 -45 110.5t-154 32.5q-170 0 -332 -43l47 268q156 35 349 35q219 0 321 -113q121 117 326 117q465 0 465 -543v-96h-658q6 -100 68.5 -147t200.5 -47q182 0 340 53l-46 -268
q-143 -45 -309 -45q-264 0 -395 126q-115 -126 -385 -126zM993 629h369q-8 207 -180 207q-175 0 -189 -207zM494 215q96 0 138 36t42 126v61h-189q-59 0 -92 -29.5t-33 -84.5q1 -109 134 -109z" />
    <glyph glyph-name="Oslashacute" unicode="&#x1fe;" horiz-adv-x="1398" 
d="M1059 1860l-338 -304l-215 50l201 254h352zM1346 1454l-154 -213q111 -178 111 -524q0 -397 -146.5 -573.5t-458.5 -176.5q-236 0 -372 99l-66 -86h-209l156 210q-113 178 -113 527q0 397 146.5 573t457.5 176q236 0 375 -98l64 86h209zM698 1167q-88 0 -140 -36.5
t-82 -137t-30 -276.5q0 -133 17 -223l403 610q-55 63 -168 63zM698 266q88 0 140.5 38t81 137.5t28.5 275.5q0 133 -16 221l-402 -608q55 -64 168 -64z" />
    <glyph glyph-name="oslashacute" unicode="&#x1ff;" horiz-adv-x="1150" 
d="M915 1479l-337 -303l-216 47l201 256h352zM1112 1073l-135 -168q88 -129 88 -379q0 -285 -117 -417t-373 -132q-197 0 -309 76l-57 -73h-172l137 165q-90 131 -90 381q0 285 117.5 416t373.5 131q195 0 308 -76l57 76h172zM575 809q-92 0 -128.5 -62.5t-36.5 -220.5
q0 -70 8 -118l276 352q-37 49 -119 49zM575 244q90 0 127 61.5t37 220.5q0 61 -6 107l-274 -346q36 -43 116 -43z" />
    <glyph glyph-name="uni0218" unicode="&#x218;" horiz-adv-x="1239" 
d="M614 -33q-139 0 -273 22.5t-214 51.5l-47 311q98 -35 241.5 -62.5t270.5 -27.5q236 0 235 148q0 59 -39.5 92t-136.5 55l-231 57q-174 41 -258 141.5t-84 276.5q0 205 136 319.5t411 114.5q141 0 267 -20.5t195 -46.5l17 -303q-82 31 -207 54.5t-244 23.5
q-221 0 -221 -134q0 -61 40 -95t138 -58l224 -53q178 -43 264 -139.5t86 -278.5q0 -213 -140.5 -331t-429.5 -118zM430 -483l41 381h328l-213 -381h-156z" />
    <glyph glyph-name="uni0219" unicode="&#x219;" horiz-adv-x="999" 
d="M473 -20q-205 0 -360 57l-45 270q66 -31 176 -54.5t221 -23.5q166 0 166 80q0 35 -21.5 52.5t-85.5 29.5l-162 33q-154 31 -220 105.5t-66 213.5q0 160 111.5 245t338.5 85q199 0 344 -53l17 -258q-53 23 -144.5 41t-189.5 18q-166 0 -166 -69q0 -33 22.5 -50.5
t88.5 -31.5l155 -29q154 -31 220.5 -106.5t66.5 -221.5q0 -166 -111.5 -249.5t-355.5 -83.5zM326 -483l39 381h327l-213 -381h-153z" />
    <glyph glyph-name="uni021A" unicode="&#x21a;" horiz-adv-x="1179" 
d="M1143 1434v-306h-379v-1128h-348v1128h-379v306h1106zM397 -483l39 381h328l-213 -381h-154z" />
    <glyph glyph-name="uni021B" unicode="&#x21b;" horiz-adv-x="872" 
d="M666 248q90 0 178 33l-47 -261q-78 -41 -217 -40q-188 0 -290 107.5t-102 332.5v389h-159v244h159v211l324 67v-278h307v-244h-307v-383q0 -98 37 -138t117 -40zM350 -483l39 381h328l-211 -381h-156z" />
    <glyph glyph-name="uni0237" unicode="&#x237;" horiz-adv-x="577" 
d="M61 -410q-94 0 -174 37l-47 271q70 -39 146 -39t112.5 45t36.5 153v996h324v-996q0 -238 -104 -352.5t-294 -114.5z" />
    <glyph glyph-name="circumflex" unicode="&#x2c6;" horiz-adv-x="847" 
d="M227 1176l-184 47l233 256h299l234 -256l-182 -47l-203 139z" />
    <glyph glyph-name="caron" unicode="&#x2c7;" horiz-adv-x="847" 
d="M582 1483l184 -47l-234 -254h-299l-233 254l184 47l199 -137z" />
    <glyph glyph-name="breve" unicode="&#x2d8;" horiz-adv-x="774" 
d="M348 1165q-164 0 -250 78t-98 211l238 43q6 -162 110 -162q100 0 105 162l239 -43q-12 -133 -97 -211t-247 -78z" />
    <glyph glyph-name="dotaccent" unicode="&#x2d9;" horiz-adv-x="405" 
d="M18 1190v250h316v-250h-316z" />
    <glyph glyph-name="ring" unicode="&#x2da;" horiz-adv-x="600" 
d="M268 1165q-115 0 -187.5 64.5t-72.5 175.5t73 176.5t187 65.5q111 0 183.5 -65.5t72.5 -176.5t-72.5 -175.5t-183.5 -64.5zM268 1307q45 0 71 26.5t26 71.5t-26 71.5t-71 26.5q-47 0 -73.5 -25.5t-26.5 -72.5q0 -45 26.5 -71.5t73.5 -26.5z" />
    <glyph glyph-name="ogonek" unicode="&#x2db;" horiz-adv-x="442" 
d="M213 -410q-104 0 -158.5 46.5t-54.5 125.5q0 68 46 131.5t130 106.5h184q-139 -92 -139 -172q0 -66 72 -66q20 0 36.5 3.5t24.5 7.5l6 4v-162q-55 -25 -147 -25z" />
    <glyph glyph-name="tilde" unicode="&#x2dc;" horiz-adv-x="835" 
d="M145 1171l-145 107q84 113 141.5 151.5t122.5 38.5q53 0 126 -49t97 -49q25 0 47.5 18.5t75.5 79.5l144 -106q-84 -111 -140.5 -151t-121.5 -40q-41 0 -84 26t-79 51.5t-61 25.5q-27 0 -50.5 -20t-72.5 -83z" />
    <glyph glyph-name="hungarumlaut" unicode="&#x2dd;" horiz-adv-x="903" 
d="M168 1176l-168 45l180 258h285zM524 1176l-168 45l179 258h286z" />
    <glyph glyph-name="gravecomb" unicode="&#x300;" horiz-adv-x="0" 
d="M-256 1176l-338 303h352l201 -256z" />
    <glyph glyph-name="acutecomb" unicode="&#x301;" horiz-adv-x="0" 
d="M-338 1176l-213 47l201 256h350z" />
    <glyph glyph-name="uni0302" unicode="&#x302;" horiz-adv-x="0" 
d="M-621 1176l-184 47l234 256h299l233 -256l-184 -47l-201 139z" />
    <glyph glyph-name="tildecomb" unicode="&#x303;" horiz-adv-x="0" 
d="M-651 1171l-144 107q84 113 140.5 151.5t124.5 38.5q53 0 124.5 -49t98.5 -49q25 0 47 18.5t74 79.5l145 -106q-84 -111 -140.5 -151t-121.5 -40q-43 0 -86 26t-78 51.5t-59 25.5q-27 0 -50.5 -20t-74.5 -83z" />
    <glyph glyph-name="uni0304" unicode="&#x304;" horiz-adv-x="0" 
d="M-686 1233v178h645v-178h-645z" />
    <glyph glyph-name="uni0306" unicode="&#x306;" horiz-adv-x="0" 
d="M-385 1165q-164 0 -250 78t-98 211l239 43q4 -162 109 -162q100 0 106 162l238 -43q-12 -133 -97 -211t-247 -78z" />
    <glyph glyph-name="uni0307" unicode="&#x307;" horiz-adv-x="0" 
d="M-360 1190v250h315v-250h-315z" />
    <glyph glyph-name="uni0308" unicode="&#x308;" horiz-adv-x="0" 
d="M-729 1192v244h270v-244h-270zM-309 1192v244h268v-244h-268z" />
    <glyph glyph-name="uni030A" unicode="&#x30a;" horiz-adv-x="0" 
d="M-299 1165q-113 0 -186.5 64.5t-73.5 175.5t73.5 176.5t186.5 65.5t185.5 -65.5t72.5 -176.5t-72.5 -175.5t-185.5 -64.5zM-299 1307q45 0 71.5 26.5t26.5 71.5t-26.5 71.5t-71.5 26.5q-47 0 -73.5 -25.5t-26.5 -72.5q0 -45 26.5 -71.5t73.5 -26.5z" />
    <glyph glyph-name="uni030B" unicode="&#x30b;" horiz-adv-x="0" 
d="M-694 1176l-168 45l180 258h285zM-338 1176l-168 45l178 258h287z" />
    <glyph glyph-name="uni030C" unicode="&#x30c;" horiz-adv-x="0" 
d="M-225 1483l184 -47l-233 -254h-299l-234 254l184 47l199 -137z" />
    <glyph glyph-name="uni0312" unicode="&#x312;" horiz-adv-x="0" 
d="M-418 1536l221 381h156l-49 -381h-328z" />
    <glyph glyph-name="uni0326" unicode="&#x326;" horiz-adv-x="0" 
d="M-408 -483l39 381h328l-213 -381h-154z" />
    <glyph glyph-name="uni0327" unicode="&#x327;" horiz-adv-x="0" 
d="M-293 -410q-35 0 -69.5 5.5t-51.5 11.5l-16 4v139q47 -23 108 -22q88 0 89 55q0 53 -80 53h-74l76 207h143l-45 -115q172 -8 172 -147q0 -88 -65.5 -139.5t-186.5 -51.5z" />
    <glyph glyph-name="uni0328" unicode="&#x328;" horiz-adv-x="0" 
d="M-188 -410q-104 0 -158.5 46.5t-54.5 125.5q0 68 46 131.5t128 106.5h186q-139 -92 -139 -172q0 -66 71 -66q18 0 36 3.5t26 7.5l6 4v-162q-55 -25 -147 -25z" />
    <glyph glyph-name="tonos" unicode="&#x384;" horiz-adv-x="634" 
d="M256 1176l-215 47l201 256h352z" />
    <glyph glyph-name="dieresistonos" unicode="&#x385;" horiz-adv-x="1056" 
d="M514 1165l-186 49l125 265h309zM43 1192v244h248v-244h-248zM766 1192v244h246v-244h-246z" />
    <glyph glyph-name="Alphatonos" unicode="&#x386;" horiz-adv-x="1392" 
d="M442 1434l-338 -304l-215 48l201 256h352zM1028 0l-88 279h-496l-90 -279h-356l526 1434h342l527 -1434h-365zM528 547h326l-164 508z" />
    <glyph glyph-name="Epsilontonos" unicode="&#x388;" horiz-adv-x="1247" 
d="M-252 1130l-213 48l199 256h352zM145 0v1434h988l16 -289h-655v-277h575v-290h-575v-289h680l-48 -289h-981z" />
    <glyph glyph-name="Etatonos" unicode="&#x389;" horiz-adv-x="1419" 
d="M-252 1130l-215 48l201 256h352zM926 1434h348v-1434h-348v573h-432v-573h-349v1434h349v-562h432v562z" />
    <glyph glyph-name="Iotatonos" unicode="&#x38a;" horiz-adv-x="641" 
d="M-246 1130l-215 48l201 256h352zM145 0v1434h351v-1434h-351z" />
    <glyph glyph-name="Omicrontonos" unicode="&#x38c;" horiz-adv-x="1376" 
d="M688 -33q-311 0 -457.5 176t-146.5 573.5t146.5 573.5t457.5 176t457.5 -176t146.5 -573.5t-146.5 -573.5t-457.5 -176zM-115 1130l-215 48l201 256h352zM688 266q88 0 140.5 38t82 137.5t29.5 275.5t-29.5 276.5t-82 137t-140.5 36.5t-140 -36.5t-81 -137t-29 -276.5
t29 -275.5t81 -137.5t140 -38z" />
    <glyph glyph-name="Upsilontonos" unicode="&#x38e;" horiz-adv-x="1292" 
d="M-371 1130l-213 48l201 256h350zM1282 1434l-461 -910v-524h-350v524l-465 910h381l262 -570l260 570h373z" />
    <glyph glyph-name="Omegatonos" unicode="&#x38f;" horiz-adv-x="1458" 
d="M1155 262h201v-262h-553v94l2 139q53 14 90 58.5t62.5 153t25.5 276.5q0 174 -29.5 273.5t-82 136t-141.5 36.5t-142 -36.5t-82 -136t-29 -273.5q0 -168 24.5 -275.5t61.5 -152.5t92 -60v-139v-94h-551v262h201q-180 180 -180 518q0 365 146.5 525.5t457.5 160.5
t458.5 -160.5t147.5 -525.5q0 -338 -180 -518zM-111 1434h353l-338 -304l-215 48z" />
    <glyph glyph-name="iotadieresistonos" unicode="&#x390;" horiz-adv-x="653" 
d="M270 1165l-186 49l113 265h305zM-193 1192v244h238v-244h-238zM506 1192v244h237v-244h-237zM438 -20q-168 0 -244.5 85t-76.5 269v719h323v-670q0 -74 24.5 -104.5t76.5 -30.5q66 0 108 24l-47 -258q-60 -34 -164 -34z" />
    <glyph glyph-name="Alpha" unicode="&#x391;" horiz-adv-x="1392" 
d="M1028 0l-88 279h-496l-90 -279h-356l526 1434h342l527 -1434h-365zM528 547h326l-164 508z" />
    <glyph glyph-name="Beta" unicode="&#x392;" horiz-adv-x="1357" 
d="M145 0v1434h607q248 0 367.5 -96.5t119.5 -293.5q0 -211 -152 -303q186 -84 191 -333q2 -408 -504 -408h-629zM492 854h237q86 0 128 37t42 118t-42 117.5t-128 36.5h-237v-309zM492 270h253q94 0 140.5 39t46.5 125q0 82 -46 120t-141 38h-253v-322z" />
    <glyph glyph-name="Gamma" unicode="&#x393;" horiz-adv-x="1107" 
d="M145 0v1434h924v-306h-575v-1128h-349z" />
    <glyph glyph-name="uni0394" unicode="&#x394;" horiz-adv-x="1392" 
d="M866 1434l527 -1434h-1395l526 1434h342zM692 1061l-254 -793h508z" />
    <glyph glyph-name="Epsilon" unicode="&#x395;" horiz-adv-x="1247" 
d="M145 0v1434h988l16 -289h-655v-277h575v-290h-575v-289h680l-48 -289h-981z" />
    <glyph glyph-name="Zeta" unicode="&#x396;" horiz-adv-x="1202" 
d="M489 301h648l-50 -301h-1015v264l622 869h-594v301h1010v-265z" />
    <glyph glyph-name="Eta" unicode="&#x397;" horiz-adv-x="1419" 
d="M926 1434h348v-1434h-348v573h-432v-573h-349v1434h349v-562h432v562z" />
    <glyph glyph-name="Theta" unicode="&#x398;" horiz-adv-x="1390" 
d="M696 -33q-315 0 -463.5 176t-148.5 573.5t148.5 573.5t463.5 176q313 0 463 -176t150 -573.5t-150 -573.5t-463 -176zM695.5 266q95.5 0 152.5 38t88 137.5t31 275.5t-31 276.5t-88 137t-152.5 36.5t-152 -36.5t-88 -137t-31.5 -276.5t31.5 -275.5t88 -137.5t152 -38z
M883 627h-369v178h369v-178z" />
    <glyph glyph-name="Iota" unicode="&#x399;" horiz-adv-x="641" 
d="M145 0v1434h351v-1434h-351z" />
    <glyph glyph-name="Kappa" unicode="&#x39a;" horiz-adv-x="1355" 
d="M963 0l-351 584h-118v-584h-349v1434h349v-572h118l328 572h383l-426 -693l461 -741h-395z" />
    <glyph glyph-name="Lambda" unicode="&#x39b;" horiz-adv-x="1357" 
d="M1356 0h-373l-307 987l-309 -987h-365l510 1434h334z" />
    <glyph glyph-name="Mu" unicode="&#x39c;" horiz-adv-x="1722" 
d="M1284 1434h293v-1434h-330v889l-387 -555l-393 555v-889h-322v1434h291l424 -609z" />
    <glyph glyph-name="Nu" unicode="&#x39d;" horiz-adv-x="1454" 
d="M993 1434h316v-1434h-297l-549 872v-872h-318v1434h299l549 -871v871z" />
    <glyph glyph-name="Xi" unicode="&#x39e;" horiz-adv-x="1226" 
d="M96 1139l19 295h997l18 -295h-1034zM186 575v295h852v-295h-852zM121 0l-53 295h1091l-53 -295h-985z" />
    <glyph glyph-name="Omicron" unicode="&#x39f;" horiz-adv-x="1376" 
d="M688 -33q-311 0 -457.5 176t-146.5 573.5t146.5 573.5t457.5 176t457.5 -176t146.5 -573.5t-146.5 -573.5t-457.5 -176zM688 266q88 0 140.5 38t82 137.5t29.5 275.5t-29.5 276.5t-82 137t-140.5 36.5t-140 -36.5t-81 -137t-29 -276.5t29 -275.5t81 -137.5t140 -38z" />
    <glyph glyph-name="Pi" unicode="&#x3a0;" horiz-adv-x="1406" 
d="M145 0v1434h1117v-1434h-349v1128h-419v-1128h-349z" />
    <glyph glyph-name="Rho" unicode="&#x3a1;" horiz-adv-x="1318" 
d="M145 0v1434h594q264 0 397.5 -124t133.5 -354q0 -227 -133 -351t-398 -124h-247v-481h-347zM489 766h236q98 0 148.5 49t50.5 141.5t-50.5 142.5t-148.5 50h-236v-383z" />
    <glyph glyph-name="Sigma" unicode="&#x3a3;" horiz-adv-x="1183" 
d="M457 289h663l-47 -289h-991v276l389 449l-379 428v281h987l17 -289h-629l358 -422z" />
    <glyph glyph-name="Tau" unicode="&#x3a4;" horiz-adv-x="1179" 
d="M1143 1434v-306h-379v-1128h-348v1128h-379v306h1106z" />
    <glyph glyph-name="Upsilon" unicode="&#x3a5;" horiz-adv-x="1292" 
d="M1282 1434l-461 -910v-524h-350v524l-465 910h381l262 -570l260 570h373z" />
    <glyph glyph-name="Phi" unicode="&#x3a6;" horiz-adv-x="1775" 
d="M1706 743.5q0 -290.5 -155.5 -439t-489.5 -154.5v-150h-346v150q-334 6 -489.5 154.5t-155.5 439t155.5 439t489.5 154.5v136h346v-136q334 -6 489.5 -154.5t155.5 -439zM410 743.5q0 -176.5 76.5 -253t248.5 -80.5v667q-172 -4 -248.5 -80.5t-76.5 -253zM1042 410
q170 4 247 80.5t77 253t-77 253t-247 80.5v-667z" />
    <glyph glyph-name="Chi" unicode="&#x3a7;" horiz-adv-x="1320" 
d="M1321 0h-403l-261 483l-266 -483h-393l455 739l-424 695h401l236 -428l235 428h389l-420 -689z" />
    <glyph glyph-name="Psi" unicode="&#x3a8;" horiz-adv-x="1777" 
d="M1352 1434h342v-553q0 -291 -152.5 -439.5t-480.5 -154.5v-287h-346v287q-326 6 -478.5 154.5t-152.5 439.5v553h340v-553q0 -170 69.5 -247t221.5 -85v885h346v-885q154 8 222.5 85t68.5 247v553z" />
    <glyph glyph-name="uni03A9" unicode="&#x3a9;" horiz-adv-x="1458" 
d="M1155 262h201v-262h-553v94l2 139q53 14 90 58.5t62.5 153t25.5 276.5q0 174 -29.5 273.5t-82 136t-141.5 36.5t-142 -36.5t-82 -136t-29 -273.5q0 -168 24.5 -275.5t61.5 -152.5t92 -60v-139v-94h-551v262h201q-180 180 -180 518q0 365 146.5 525.5t457.5 160.5
t458.5 -160.5t147.5 -525.5q0 -338 -180 -518z" />
    <glyph glyph-name="Iotadieresis" unicode="&#x3aa;" horiz-adv-x="641" 
d="M-27 1577v244h269v-244h-269zM391 1577v244h271v-244h-271zM145 0v1434h351v-1434h-351z" />
    <glyph glyph-name="Upsilondieresis" unicode="&#x3ab;" horiz-adv-x="1292" 
d="M299 1577v244h270v-244h-270zM719 1577v244h268v-244h-268zM1282 1434l-461 -910v-524h-350v524l-465 910h381l262 -570l260 570h373z" />
    <glyph glyph-name="alphatonos" unicode="&#x3ac;" horiz-adv-x="1173" 
d="M911 1479l-338 -303l-213 47l199 256h352zM772 1053h283v-1053h-283l-39 109l-2 -3q-16 -25 -41.5 -48t-91.5 -50.5t-145 -27.5q-195 0 -287 130t-92 415.5t92 416.5t287 131q80 0 145.5 -27.5t91 -52t41.5 -49.5l2 -2zM566 244q91 0 128 62.5t37 219t-37 219t-128 62.5
t-129 -62.5t-38 -219t38 -219t129 -62.5z" />
    <glyph glyph-name="epsilontonos" unicode="&#x3ad;" horiz-adv-x="966" 
d="M811 1479l-338 -303l-213 47l199 256h352zM555 225q188 0 358 49l-32 -247q-168 -49 -353 -50q-238 0 -348 78t-110 238q0 188 161 256q-137 70 -137 223q0 152 104.5 226.5t329.5 74.5q166 0 340 -45l15 -237q-166 37 -324 36q-158 0 -158 -86q0 -49 35 -71.5t115 -22.5
h174v-229h-186q-160 0 -160 -94q0 -51 42 -75t134 -24z" />
    <glyph glyph-name="etatonos" unicode="&#x3ae;" horiz-adv-x="1189" 
d="M590 1176l-215 47l200 256h353zM756 -410v1022q0 98 -35 146.5t-117 48.5q-86 0 -124 -48t-38 -147v-612h-323v1053h282l41 -113q109 133 291 133q168 0 257 -104.5t89 -276.5v-1054z" />
    <glyph glyph-name="iotatonos" unicode="&#x3af;" horiz-adv-x="653" 
d="M276 1176l-215 47l201 256h352zM438 -20q-168 0 -244.5 85t-76.5 269v719h323v-670q0 -74 24.5 -104.5t76.5 -30.5q66 0 108 24l-47 -258q-60 -34 -164 -34z" />
    <glyph glyph-name="upsilondieresistonos" unicode="&#x3b0;" horiz-adv-x="1175" 
d="M573 1165l-188 49l125 265h309zM102 1192v244h246v-244h-246zM823 1192v244h248v-244h-248zM1069 1053v-604q0 -244 -115.5 -358t-366.5 -114t-366 113t-115 359v604h328v-617q0 -109 34 -150.5t119 -41.5t119.5 42t34.5 150v617h328z" />
    <glyph glyph-name="alpha" unicode="&#x3b1;" horiz-adv-x="1173" 
d="M772 1053h283v-1053h-283l-39 109l-2 -3q-16 -25 -41.5 -48t-91.5 -50.5t-145 -27.5q-195 0 -287 130t-92 415.5t92 416.5t287 131q80 0 145.5 -27.5t91 -52t41.5 -49.5l2 -2zM566 244q91 0 128 62.5t37 219t-37 219t-128 62.5t-129 -62.5t-38 -219t38 -219t129 -62.5z
" />
    <glyph glyph-name="beta" unicode="&#x3b2;" horiz-adv-x="1177" 
d="M950 823q80 -41 111 -118.5t31 -192.5v-115q0 -213 -109 -315t-309 -102q-127 0 -232 75v-417l-323 -48v1434q0 221 117.5 330.5t359.5 109.5q236 0 355.5 -91t119.5 -267q0 -102 -26.5 -171t-94.5 -112zM770 389v137q0 96 -38 136t-126 40h-78v240h68q82 0 117 33
t35 106q0 70 -36 103t-116 33q-86 0 -120 -43.5t-34 -149.5v-645q0 -78 54.5 -117t115.5 -39q84 0 121 37t37 129z" />
    <glyph glyph-name="gamma" unicode="&#x3b3;" horiz-adv-x="1159" 
d="M825 1053h332l-379 -1012v-403l-319 -48v451l-213 616q-25 78 -63 108t-93 30q-59 0 -104 -17l34 258q59 27 166 27q131 0 210 -70.5t124 -232.5l109 -359z" />
    <glyph glyph-name="delta" unicode="&#x3b4;" horiz-adv-x="1116" 
d="M723 948q72 -18 126 -50t102 -85t74 -141t26 -205q0 -254 -117 -372t-374 -118t-374.5 118t-117.5 372q0 174 58 280.5t191 157.5q-115 55 -160.5 120t-45.5 151q0 131 114.5 206.5t331.5 75.5q190 0 344 -53l27 -266q-143 59 -350 59q-82 0 -113 -18.5t-31 -55.5
q0 -49 77 -95t212 -81zM560 213q91 0 128 56.5t37 197.5q0 143 -37 199.5t-128 56.5t-128 -56.5t-37 -199.5q0 -141 37 -197.5t128 -56.5z" />
    <glyph glyph-name="epsilon" unicode="&#x3b5;" horiz-adv-x="966" 
d="M555 225q188 0 358 49l-32 -247q-168 -49 -353 -50q-238 0 -348 78t-110 238q0 188 161 256q-137 70 -137 223q0 152 104.5 226.5t329.5 74.5q166 0 340 -45l15 -237q-166 37 -324 36q-158 0 -158 -86q0 -49 35 -71.5t115 -22.5h174v-229h-186q-160 0 -160 -94
q0 -51 42 -75t134 -24z" />
    <glyph glyph-name="zeta" unicode="&#x3b6;" horiz-adv-x="942" 
d="M631 221q80 -16 129 -31.5t93 -48t61.5 -80t17.5 -124t-23 -183.5l-280 -43q18 78 19 124t-20.5 76t-57 43t-105.5 26q-401 55 -402 430q0 410 435 751h-408l45 273h791v-238q-246 -168 -383 -361.5t-137 -377.5q0 -109 56 -162.5t169 -73.5z" />
    <glyph glyph-name="eta" unicode="&#x3b7;" horiz-adv-x="1189" 
d="M756 -410v1022q0 98 -35 146.5t-117 48.5q-86 0 -124 -48t-38 -147v-612h-323v1053h282l41 -113q109 133 291 133q168 0 257 -104.5t89 -276.5v-1054z" />
    <glyph glyph-name="theta" unicode="&#x3b8;" horiz-adv-x="1165" 
d="M584 1466q258 0 375.5 -179t117.5 -566t-117.5 -565.5t-375.5 -178.5t-377 178.5t-119 565.5t119 566t377 179zM583 1200q-87 0 -126 -85t-45 -296h344q-8 211 -47 296t-126 85zM584 240q88 0 127 87t45 304h-344q4 -217 44 -304t128 -87z" />
    <glyph glyph-name="iota" unicode="&#x3b9;" horiz-adv-x="653" 
d="M438 -20q-168 0 -244.5 85t-76.5 269v719h323v-670q0 -74 24.5 -104.5t76.5 -30.5q66 0 108 24l-47 -258q-60 -34 -164 -34z" />
    <glyph glyph-name="kappa" unicode="&#x3ba;" horiz-adv-x="1134" 
d="M119 0v1053h317v-398h94l222 398h352l-311 -510l337 -543h-364l-229 406h-101v-406h-317z" />
    <glyph glyph-name="lambda" unicode="&#x3bb;" horiz-adv-x="1087" 
d="M1083 0h-325l-209 680l-207 -680h-336l391 1022l-8 22q-31 90 -63.5 121t-96.5 31q-57 0 -120 -18l47 260q63 27 174 26q76 0 127 -18.5t94 -70.5t74.5 -121.5t76.5 -198.5z" />
    <glyph glyph-name="uni03BC" unicode="&#x3bc;" horiz-adv-x="1198" 
d="M756 1053h323v-1053h-274l-39 102q-94 -125 -256 -125q-43 0 -80 11v-353l-311 -47v1465h323v-613q0 -98 35 -146t117 -48q86 0 124 48t38 146v613z" />
    <glyph glyph-name="nu" unicode="&#x3bd;" horiz-adv-x="1083" 
d="M741 1053h336l-377 -1053h-317l-377 1053h342l197 -682z" />
    <glyph glyph-name="xi" unicode="&#x3be;" horiz-adv-x="985" 
d="M662 213q182 -29 241.5 -130t5.5 -329l-280 -43q18 74 20 121t-17.5 77t-53 44t-91.5 22q-193 23 -305 133.5t-112 294.5q0 262 206 359q-178 90 -178 315q0 389 480 389q113 0 204.5 -19.5t141.5 -41.5l14 -266q-143 61 -303 61q-115 0 -166 -36t-51 -115q0 -92 46 -132
t150 -40h203v-256h-221q-104 0 -152.5 -42t-48.5 -141q0 -104 64 -153t203 -72z" />
    <glyph glyph-name="omicron" unicode="&#x3bf;" horiz-adv-x="1122" 
d="M561 -23q-256 0 -373.5 132.5t-117.5 417t117.5 415.5t373.5 131t374 -131t118 -415.5t-118 -417t-374 -132.5zM560 244q91 0 128 62.5t37 220t-37 220t-128 62.5t-127 -62.5t-36 -220t36 -220t127 -62.5z" />
    <glyph glyph-name="pi" unicode="&#x3c0;" horiz-adv-x="1157" 
d="M119 0v1053h919v-1053h-321v784h-277v-784h-321z" />
    <glyph glyph-name="rho" unicode="&#x3c1;" horiz-adv-x="1155" 
d="M594 1073q256 0 373.5 -131t117.5 -416q0 -287 -92 -418t-288 -131q-78 0 -143.5 28t-92.5 53.5t-41 47.5v-462l-324 -47v929q0 285 117 416t373 131zM593 244q91 0 128 62.5t37 220t-37 220t-127 62.5q-92 0 -129 -62.5t-37 -220t37 -220t128 -62.5z" />
    <glyph glyph-name="sigma1" unicode="&#x3c2;" horiz-adv-x="962" 
d="M631 217q74 -14 120 -29.5t89 -47t60.5 -80t18.5 -125t-22 -181.5l-281 -43q14 66 16.5 110t-6 70.5t-34 44t-54 25.5t-81.5 16q-57 10 -104.5 25.5t-102.5 53.5t-92 93.5t-62.5 150.5t-25.5 220q0 281 126 417t384 136q190 0 305 -53l16 -266q-133 57 -274 57
q-123 0 -177.5 -67.5t-54.5 -229.5q0 -61 7.5 -106.5t23.5 -75t32.5 -49t48.5 -32.5t56.5 -19.5t67.5 -14.5z" />
    <glyph glyph-name="sigma" unicode="&#x3c3;" horiz-adv-x="1210" 
d="M1196 1053v-258h-211q68 -113 68 -279q0 -281 -118 -410t-374 -129t-373.5 129.5t-117.5 409.5q0 279 117.5 408t373.5 129h635zM561 244q90 0 127 59t37 212t-37 213t-127 60t-127 -60t-37 -213t37 -212t127 -59z" />
    <glyph glyph-name="tau" unicode="&#x3c4;" horiz-adv-x="966" 
d="M922 776h-295v-393q0 -74 25.5 -104.5t78.5 -30.5q68 0 113 24l-47 -258q-59 -35 -168 -34q-168 0 -247 86t-79 272v438h-268v277h887v-277z" />
    <glyph glyph-name="upsilon" unicode="&#x3c5;" horiz-adv-x="1175" 
d="M1069 1053v-604q0 -244 -115.5 -358t-366.5 -114t-366 113t-115 359v604h328v-617q0 -109 34 -150.5t119 -41.5t119.5 42t34.5 150v617h328z" />
    <glyph glyph-name="phi" unicode="&#x3c6;" horiz-adv-x="1550" 
d="M1483 522q0 -279 -135.5 -408.5t-421.5 -133.5v-342l-301 -48v390q-287 2 -422 133t-135 409q0 227 108.5 362.5t298.5 180.5l100 -217q-98 -37 -145 -107.5t-47 -218.5q0 -150 57.5 -214t184.5 -66v811h293q293 0 429 -128.5t136 -402.5zM926 242q129 2 184 66.5
t55 213.5q0 145 -55 207t-184 62v-549z" />
    <glyph glyph-name="chi" unicode="&#x3c7;" horiz-adv-x="1071" 
d="M1081 -389h-348l-196 498l-209 -498h-338l358 741l-332 701h342l183 -455l182 455h332l-326 -695z" />
    <glyph glyph-name="psi" unicode="&#x3c8;" horiz-adv-x="1576" 
d="M1157 1053h318v-531q0 -279 -130.5 -409.5t-404.5 -132.5v-338l-301 -48v386q-276 2 -406.5 133t-130.5 409v531h318v-531q0 -150 51 -214t168 -66v831l301 45v-876q117 2 167 66.5t50 213.5v531z" />
    <glyph glyph-name="omega" unicode="&#x3c9;" horiz-adv-x="1622" 
d="M1141 1073q213 -8 311 -136t98 -405q0 -274 -99 -414.5t-312 -140.5q-129 0 -208 59.5t-120 184.5q-41 -125 -120 -184.5t-206 -59.5q-213 0 -313 139.5t-100 415.5t99 404.5t310 136.5l66 -262q-88 -8 -122 -69.5t-34 -221.5q0 -154 30 -216t102.5 -62t102 62.5
t29.5 219.5v152h312v-152q0 -158 29.5 -220t103.5 -62q72 0 101.5 62.5t29.5 215.5q0 160 -34 221.5t-122 69.5z" />
    <glyph glyph-name="iotadieresis" unicode="&#x3ca;" horiz-adv-x="653" 
d="M-68 1192v244h271v-244h-271zM350 1192v244h271v-244h-271zM438 -20q-168 0 -244.5 85t-76.5 269v719h323v-670q0 -74 24.5 -104.5t76.5 -30.5q66 0 108 24l-47 -258q-60 -34 -164 -34z" />
    <glyph glyph-name="upsilondieresis" unicode="&#x3cb;" horiz-adv-x="1175" 
d="M242 1192v244h268v-244h-268zM659 1192v244h269v-244h-269zM1069 1053v-604q0 -244 -115.5 -358t-366.5 -114t-366 113t-115 359v604h328v-617q0 -109 34 -150.5t119 -41.5t119.5 42t34.5 150v617h328z" />
    <glyph glyph-name="omicrontonos" unicode="&#x3cc;" horiz-adv-x="1122" 
d="M559 1176l-215 47l201 256h352zM561 -23q-256 0 -373.5 132.5t-117.5 417t117.5 415.5t373.5 131t374 -131t118 -415.5t-118 -417t-374 -132.5zM560 244q91 0 128 62.5t37 220t-37 220t-128 62.5t-127 -62.5t-36 -220t36 -220t127 -62.5z" />
    <glyph glyph-name="upsilontonos" unicode="&#x3cd;" horiz-adv-x="1175" 
d="M586 1176l-215 47l200 256h353zM1069 1053v-604q0 -244 -115.5 -358t-366.5 -114t-366 113t-115 359v604h328v-617q0 -109 34 -150.5t119 -41.5t119.5 42t34.5 150v617h328z" />
    <glyph glyph-name="omegatonos" unicode="&#x3ce;" horiz-adv-x="1622" 
d="M1147 1479l-338 -303l-215 47l201 256h352zM1141 1073q213 -8 311 -136t98 -405q0 -274 -99 -414.5t-312 -140.5q-129 0 -208 59.5t-120 184.5q-41 -125 -120 -184.5t-206 -59.5q-213 0 -313 139.5t-100 415.5t99 404.5t310 136.5l66 -262q-88 -8 -122 -69.5t-34 -221.5
q0 -154 30 -216t102.5 -62t102 62.5t29.5 219.5v152h312v-152q0 -158 29.5 -220t103.5 -62q72 0 101.5 62.5t29.5 215.5q0 160 -34 221.5t-122 69.5z" />
    <glyph glyph-name="uni0401" unicode="&#x401;" horiz-adv-x="1247" 
d="M293 1577v244h270v-244h-270zM713 1577v244h268v-244h-268zM145 0v1434h988l16 -289h-655v-277h575v-290h-575v-289h680l-48 -289h-981z" />
    <glyph glyph-name="uni0402" unicode="&#x402;" horiz-adv-x="1503" 
d="M938 -23l-45 279q213 0 213 164q0 160 -178 160q-47 0 -96.5 -10.5t-72 -18.5t-30.5 -12v-539h-346v1128h-346v306h1071v-306h-379v-319q12 8 45 20.5t104.5 26.5t143.5 14q207 0 323.5 -119.5t116.5 -320.5q0 -215 -129 -334t-395 -119z" />
    <glyph glyph-name="uni0403" unicode="&#x403;" horiz-adv-x="1107" 
d="M602 1556l-215 50l201 254h352zM145 0v1434h924v-306h-575v-1128h-349z" />
    <glyph glyph-name="uni0404" unicode="&#x404;" horiz-adv-x="1208" 
d="M774 262q102 0 202.5 25.5t162.5 58.5l-47 -309q-57 -27 -157.5 -48.5t-207.5 -21.5q-326 0 -486.5 185.5t-160.5 564.5t160.5 564t486.5 185q106 0 208.5 -23.5t162.5 -51.5l18 -299q-59 33 -153.5 57.5t-188.5 24.5q-154 0 -235.5 -71t-104.5 -233h481v-295h-483
q20 -168 102 -240.5t240 -72.5z" />
    <glyph glyph-name="uni0405" unicode="&#x405;" horiz-adv-x="1239" 
d="M614 -33q-139 0 -273 22.5t-214 51.5l-47 311q98 -35 241.5 -62.5t270.5 -27.5q236 0 235 148q0 59 -39.5 92t-136.5 55l-231 57q-174 41 -258 141.5t-84 276.5q0 205 136 319.5t411 114.5q141 0 267 -20.5t195 -46.5l17 -303q-82 31 -207 54.5t-244 23.5
q-221 0 -221 -134q0 -61 40 -95t138 -58l224 -53q178 -43 264 -139.5t86 -278.5q0 -213 -140.5 -331t-429.5 -118z" />
    <glyph glyph-name="uni0406" unicode="&#x406;" horiz-adv-x="641" 
d="M145 0v1434h351v-1434h-351z" />
    <glyph glyph-name="uni0407" unicode="&#x407;" horiz-adv-x="641" 
d="M-27 1575v244h269v-244h-269zM391 1575v244h271v-244h-271zM145 0v1434h351v-1434h-351z" />
    <glyph glyph-name="uni0408" unicode="&#x408;" horiz-adv-x="1064" 
d="M383 -31q-184 0 -305 51l-49 318q137 -61 303 -62q131 0 192.5 70t61.5 229v859h346v-859q0 -606 -549 -606z" />
    <glyph glyph-name="uni0409" unicode="&#x409;" horiz-adv-x="2017" 
d="M172 -20q-72 0 -111 16l-47 295q29 -10 82 -10q84 0 124 82.5t50 308.5l33 762h922v-529h237q254 0 381 -117.5t127 -334.5t-127 -335t-381 -118h-583l6 1137h-279l-18 -475q-12 -350 -109.5 -516t-306.5 -166zM1225 281h217q90 0 136 45t46 127t-46 127t-136 45h-217
v-344z" />
    <glyph glyph-name="uni040A" unicode="&#x40a;" horiz-adv-x="2031" 
d="M145 0v1434h349v-562h397v562h348v-529h238q252 0 380 -117.5t128 -334.5t-128 -335t-380 -118h-586v573h-397v-573h-349zM1239 281h217q90 0 135 45t45 127t-45 127t-135 45h-217v-344z" />
    <glyph glyph-name="uni040B" unicode="&#x40b;" horiz-adv-x="1505" 
d="M383 0v1128h-346v306h1071v-306h-379v-319q43 23 124 42t171 19q201 0 308.5 -121.5t107.5 -326.5v-422h-348v393q0 174 -170 174q-115 0 -193 -41v-526h-346z" />
    <glyph glyph-name="uni040C" unicode="&#x40c;" horiz-adv-x="1355" 
d="M696 1556l-215 50l201 254h352zM963 0l-351 584h-118v-584h-349v1434h349v-572h118l328 572h383l-426 -693l461 -741h-395z" />
    <glyph glyph-name="uni040D" unicode="&#x40d;" horiz-adv-x="1466" 
d="M918 1602l-213 -48l-338 304h352zM1006 1434h315v-1434h-338v891l-522 -891h-316v1434h338v-895z" />
    <glyph glyph-name="uni040E" unicode="&#x40e;" horiz-adv-x="1263" 
d="M651 1546q-164 0 -250 79t-98 210l240 43q4 -160 108 -160q100 0 107 160l237 -43q-12 -131 -97 -210t-247 -79zM416 -31q-117 0 -199 47l-53 281q80 -41 166 -41q127 0 178 104l14 39l-530 1035h383l313 -676l230 676h358l-445 -1133q-76 -180 -173 -256t-242 -76z" />
    <glyph glyph-name="uni040F" unicode="&#x40f;" horiz-adv-x="1406" 
d="M1262 1434v-1434h-400v-250l-317 -49v299h-400v1434h349v-1129h419v1129h349z" />
    <glyph glyph-name="uni0410" unicode="&#x410;" horiz-adv-x="1392" 
d="M1028 0l-88 279h-496l-90 -279h-356l526 1434h342l527 -1434h-365zM528 547h326l-164 508z" />
    <glyph glyph-name="uni0411" unicode="&#x411;" horiz-adv-x="1325" 
d="M145 0v1434h1016v-287h-674v-246h279q250 0 375 -116.5t125 -331.5q0 -219 -125 -336t-375 -117h-621zM487 281h246q92 0 139.5 45t47.5 127q0 80 -47.5 124t-139.5 44h-246v-340z" />
    <glyph glyph-name="uni0412" unicode="&#x412;" horiz-adv-x="1357" 
d="M145 0v1434h607q248 0 367.5 -96.5t119.5 -293.5q0 -211 -152 -303q186 -84 191 -333q2 -408 -504 -408h-629zM492 854h237q86 0 128 37t42 118t-42 117.5t-128 36.5h-237v-309zM492 270h253q94 0 140.5 39t46.5 125q0 82 -46 120t-141 38h-253v-322z" />
    <glyph glyph-name="uni0413" unicode="&#x413;" horiz-adv-x="1107" 
d="M145 0v1434h924v-306h-575v-1128h-349z" />
    <glyph glyph-name="uni0414" unicode="&#x414;" horiz-adv-x="1515" 
d="M35 -274v579h102q92 74 132 189.5t55 367.5l32 572h932v-1129h162v-579h-317v274h-781v-274h-317zM481 305h467v832h-293l-14 -293q-12 -236 -51 -353.5t-109 -185.5z" />
    <glyph glyph-name="uni0415" unicode="&#x415;" horiz-adv-x="1247" 
d="M145 0v1434h988l16 -289h-655v-277h575v-290h-575v-289h680l-48 -289h-981z" />
    <glyph glyph-name="uni0416" unicode="&#x416;" horiz-adv-x="1984" 
d="M4 0l418 739l-383 695h375l295 -580h110v580h346v-580h109l297 580h375l-383 -695l415 -739h-389l-315 592h-109v-592h-346v592h-108l-316 -592h-391z" />
    <glyph glyph-name="uni0417" unicode="&#x417;" horiz-adv-x="1216" 
d="M1139 406q0 -438 -580 -439q-133 0 -256 21.5t-190 48.5l-50 307q74 -31 195 -56.5t242 -25.5q156 0 220 41t64 119q0 156 -188 156h-291v290h279q88 0 126 37t38 111q0 78 -54.5 118t-183.5 40q-115 0 -227.5 -26t-182.5 -56l19 301q74 29 195.5 51t252.5 22
q268 0 400.5 -107.5t132.5 -301.5q0 -215 -156 -312q193 -87 195 -339z" />
    <glyph glyph-name="uni0418" unicode="&#x418;" horiz-adv-x="1466" 
d="M1006 1434h315v-1434h-338v891l-522 -891h-316v1434h338v-895z" />
    <glyph glyph-name="uni0419" unicode="&#x419;" horiz-adv-x="1466" 
d="M729 1546q-164 0 -250 79t-96 210l238 43q6 -160 108 -160q100 0 107 160l237 -43q-10 -131 -96 -210t-248 -79zM1006 1434h315v-1434h-338v891l-522 -891h-316v1434h338v-895z" />
    <glyph glyph-name="uni041A" unicode="&#x41a;" horiz-adv-x="1355" 
d="M963 0l-351 584h-118v-584h-349v1434h349v-572h118l328 572h383l-426 -693l461 -741h-395z" />
    <glyph glyph-name="uni041B" unicode="&#x41b;" horiz-adv-x="1396" 
d="M315 1434h936v-1434h-340v1137h-293l-18 -475q-12 -348 -112.5 -515t-313.5 -167q-68 0 -115 16l-45 295q29 -10 86 -10q88 0 130 82.5t53 308.5z" />
    <glyph glyph-name="uni041C" unicode="&#x41c;" horiz-adv-x="1722" 
d="M1284 1434h293v-1434h-330v889l-387 -555l-393 555v-889h-322v1434h291l424 -609z" />
    <glyph glyph-name="uni041D" unicode="&#x41d;" horiz-adv-x="1419" 
d="M926 1434h348v-1434h-348v573h-432v-573h-349v1434h349v-562h432v562z" />
    <glyph glyph-name="uni041E" unicode="&#x41e;" horiz-adv-x="1376" 
d="M688 -33q-311 0 -457.5 176t-146.5 573.5t146.5 573.5t457.5 176t457.5 -176t146.5 -573.5t-146.5 -573.5t-457.5 -176zM688 266q88 0 140.5 38t82 137.5t29.5 275.5t-29.5 276.5t-82 137t-140.5 36.5t-140 -36.5t-81 -137t-29 -276.5t29 -275.5t81 -137.5t140 -38z" />
    <glyph glyph-name="uni041F" unicode="&#x41f;" horiz-adv-x="1406" 
d="M145 0v1434h1117v-1434h-349v1128h-419v-1128h-349z" />
    <glyph glyph-name="uni0420" unicode="&#x420;" horiz-adv-x="1318" 
d="M145 0v1434h594q264 0 397.5 -124t133.5 -354q0 -227 -133 -351t-398 -124h-247v-481h-347zM489 766h236q98 0 148.5 49t50.5 141.5t-50.5 142.5t-148.5 50h-236v-383z" />
    <glyph glyph-name="uni0421" unicode="&#x421;" horiz-adv-x="1161" 
d="M711 -33q-317 0 -474 185.5t-157 564.5t156.5 564t474.5 185q98 0 192 -22.5t152 -50.5l18 -308q-53 31 -140 54.5t-175 23.5q-172 0 -248 -102.5t-76 -343.5q0 -242 76 -344.5t248 -102.5q94 0 189 27t155 57l-47 -317q-55 -27 -149.5 -48.5t-194.5 -21.5z" />
    <glyph glyph-name="uni0422" unicode="&#x422;" horiz-adv-x="1179" 
d="M1143 1434v-306h-379v-1128h-348v1128h-379v306h1106z" />
    <glyph glyph-name="uni0423" unicode="&#x423;" horiz-adv-x="1263" 
d="M416 -31q-117 0 -199 47l-53 281q80 -41 166 -41q127 0 178 104l14 39l-530 1035h383l313 -676l230 676h358l-445 -1133q-76 -180 -173 -256t-242 -76z" />
    <glyph glyph-name="uni0424" unicode="&#x424;" horiz-adv-x="1775" 
d="M1706 743.5q0 -290.5 -155.5 -439t-489.5 -154.5v-150h-346v150q-334 6 -489.5 154.5t-155.5 439t155.5 439t489.5 154.5v136h346v-136q334 -6 489.5 -154.5t155.5 -439zM410 743.5q0 -176.5 76.5 -253t248.5 -80.5v667q-172 -4 -248.5 -80.5t-76.5 -253zM1042 410
q170 4 247 80.5t77 253t-77 253t-247 80.5v-667z" />
    <glyph glyph-name="uni0425" unicode="&#x425;" horiz-adv-x="1320" 
d="M1321 0h-403l-261 483l-266 -483h-393l455 739l-424 695h401l236 -428l235 428h389l-420 -689z" />
    <glyph glyph-name="uni0426" unicode="&#x426;" horiz-adv-x="1466" 
d="M1085 -299v299h-940v1434h349v-1129h399v1129h348v-1129h162v-555z" />
    <glyph glyph-name="uni0427" unicode="&#x427;" horiz-adv-x="1333" 
d="M840 1434h348v-1434h-348v563q-18 -10 -50 -21.5t-109 -25.5t-163 -14q-211 0 -324.5 124t-113.5 332v476h348v-445q0 -186 195 -186q139 0 217 43v588z" />
    <glyph glyph-name="uni0428" unicode="&#x428;" horiz-adv-x="2009" 
d="M145 0v1434h349v-1129h337v1129h349v-1129h336v1129h348v-1434h-1719z" />
    <glyph glyph-name="uni0429" unicode="&#x429;" horiz-adv-x="2091" 
d="M1708 -299v299h-1563v1434h349v-1129h337v1129h349v-1129h336v1129h348v-1129h161v-555z" />
    <glyph glyph-name="uni042A" unicode="&#x42a;" horiz-adv-x="1503" 
d="M924 952q264 0 397 -123.5t133 -351.5q0 -229 -133 -353t-397 -124h-594v1128h-293v306h639v-482h248zM909 283q98 0 147.5 51t49.5 143t-49 141.5t-148 49.5h-233v-385h233z" />
    <glyph glyph-name="uni042B" unicode="&#x42b;" horiz-adv-x="1910" 
d="M145 1434h347v-482h247q264 0 397.5 -123.5t133.5 -351.5q0 -229 -133 -353t-398 -124h-594v1434zM1415 0v1434h350v-1434h-350zM492 668v-385h233q98 0 148.5 51t50.5 143t-50.5 141.5t-148.5 49.5h-233z" />
    <glyph glyph-name="uni042C" unicode="&#x42c;" horiz-adv-x="1318" 
d="M145 1434h347v-482h247q264 0 397.5 -123.5t133.5 -351.5q0 -229 -133 -353t-398 -124h-594v1434zM492 668v-385h233q98 0 148.5 51t50.5 143t-50.5 141.5t-148.5 49.5h-233z" />
    <glyph glyph-name="uni042D" unicode="&#x42d;" horiz-adv-x="1208" 
d="M479 1466q328 0 487.5 -185t159.5 -564t-159.5 -564.5t-487.5 -185.5q-104 0 -204.5 21.5t-157.5 48.5l-49 309q61 -33 162.5 -58.5t201.5 -25.5q160 0 242 73t102 240h-483v295h481q-23 162 -104.5 233t-237.5 71q-92 0 -187 -25t-155 -57l21 299q59 29 160.5 52
t207.5 23z" />
    <glyph glyph-name="uni042E" unicode="&#x42e;" horiz-adv-x="1980" 
d="M1305 1466q303 0 446 -176t143 -573.5t-143 -573.5t-446 -176q-274 0 -418 143.5t-166 462.5h-227v-573h-349v1434h349v-562h227q27 313 169.5 453.5t414.5 140.5zM1304.5 266q81.5 0 132 38t77 137.5t26.5 275.5t-26.5 276.5t-77 137t-133 36.5t-132 -36.5t-76 -137
t-26.5 -276.5t26.5 -275.5t77 -137.5t132 -38z" />
    <glyph glyph-name="uni042F" unicode="&#x42f;" horiz-adv-x="1363" 
d="M629 1434h590v-1434h-345v514h-196l-250 -514h-375l293 561q-250 100 -250 408q0 227 133.5 346t399.5 119zM874 791v358h-229q-104 0 -153.5 -44t-49.5 -136q0 -178 203 -178h229z" />
    <glyph glyph-name="uni0430" unicode="&#x430;" horiz-adv-x="1097" 
d="M393 -23q-164 0 -251 88.5t-87 245.5q0 150 96.5 234t276.5 84h244v35q0 78 -45 111.5t-158 33.5q-172 0 -330 -45l47 268q150 37 346 37q459 0 459 -407v-662h-278l-41 106q-66 -129 -279 -129zM494 213q94 0 136 36t42 128v61h-178q-131 0 -132 -112q1 -113 132 -113z
" />
    <glyph glyph-name="uni0431" unicode="&#x431;" horiz-adv-x="1153" 
d="M688 989q205 0 299 -119.5t94 -386.5q0 -262 -116.5 -382.5t-372.5 -120.5q-254 0 -371 120.5t-117 382.5v391q0 260 110 383t349 154l424 55l17 -276l-410 -47q-125 -14 -170 -74.5t-45 -194.5v-14q106 129 309 129zM592 242q90 0 127 55t37 187t-37 186.5t-127 54.5
t-127 -54.5t-37 -186.5t37 -187t127 -55z" />
    <glyph glyph-name="uni0432" unicode="&#x432;" horiz-adv-x="1114" 
d="M901 549q143 -68 143 -248q0 -152 -96 -226.5t-303 -74.5h-526v1053h514q199 0 291 -73t92 -218q0 -147 -115 -213zM432 825v-184h166q109 0 109 92t-109 92h-166zM610 223q66 0 95.5 23.5t29.5 77.5q0 100 -125 100h-178v-201h178z" />
    <glyph glyph-name="uni0433" unicode="&#x433;" horiz-adv-x="880" 
d="M119 0v1053h729v-277h-406v-776h-323z" />
    <glyph glyph-name="uni0434" unicode="&#x434;" horiz-adv-x="1271" 
d="M33 -256v524h94q63 51 89 133t40 271l23 381h798v-785h135v-524h-284v256h-611v-256h-284zM440 268h322v516h-207l-6 -125q-8 -176 -35 -260t-74 -131z" />
    <glyph glyph-name="uni0435" unicode="&#x435;" horiz-adv-x="1103" 
d="M623 -23q-289 0 -422 136.5t-133 408.5q0 270 125.5 410.5t369.5 140.5q475 0 475 -543v-94h-653q8 -100 70.5 -149t197.5 -49q88 0 183.5 17t154.5 38l-45 -268q-151 -48 -323 -48zM385 633h365q-10 203 -181 203q-82 0 -129 -51.5t-55 -151.5z" />
    <glyph glyph-name="uni0436" unicode="&#x436;" horiz-adv-x="1652" 
d="M10 0l314 549l-285 504h338l207 -404h88v404h313v-404h86l205 404h338l-283 -504l311 -549h-352l-211 412h-94v-412h-315v412h-95l-208 -412h-357z" />
    <glyph glyph-name="uni0437" unicode="&#x437;" horiz-adv-x="993" 
d="M770 547q156 -70 156 -244q0 -166 -108.5 -244.5t-366.5 -78.5q-227 0 -351 51l-47 266q150 -63 340 -64q121 0 165 25t44 70q0 43 -29.5 63.5t-97.5 20.5h-225v235h217q111 0 111 80q0 92 -177 92q-174 0 -317 -63l18 260q51 20 152.5 38.5t216.5 18.5
q227 0 326.5 -75.5t99.5 -223.5q0 -159 -127 -227z" />
    <glyph glyph-name="uni0438" unicode="&#x438;" horiz-adv-x="1200" 
d="M768 1053h313v-1053h-313v608l-336 -608h-313v1053h313v-611z" />
    <glyph glyph-name="uni0439" unicode="&#x439;" horiz-adv-x="1200" 
d="M602 1165q-164 0 -250 78t-98 211l240 43q6 -162 108 -162q100 0 107 162l237 -43q-12 -133 -97 -211t-247 -78zM768 1053h313v-1053h-313v608l-336 -608h-313v1053h313v-611z" />
    <glyph glyph-name="uni043A" unicode="&#x43a;" horiz-adv-x="1134" 
d="M119 0v1053h317v-398h94l222 398h352l-311 -510l337 -543h-364l-229 406h-101v-406h-317z" />
    <glyph glyph-name="uni043B" unicode="&#x43b;" horiz-adv-x="1165" 
d="M246 1053h801v-1053h-314v784h-205l-12 -307q-20 -498 -346 -497q-78 0 -109 18l-45 262q27 -8 68 -8q66 0 99.5 53t39.5 187z" />
    <glyph glyph-name="uni043C" unicode="&#x43c;" horiz-adv-x="1398" 
d="M999 1053h281v-1053h-305v594l-277 -389l-278 385v-590h-301v1053h280l301 -426z" />
    <glyph glyph-name="uni043D" unicode="&#x43d;" horiz-adv-x="1165" 
d="M725 1053h322v-1053h-322v399h-285v-399h-321v1053h321v-394h285v394z" />
    <glyph glyph-name="uni043E" unicode="&#x43e;" horiz-adv-x="1122" 
d="M561 -23q-256 0 -373.5 132.5t-117.5 417t117.5 415.5t373.5 131t374 -131t118 -415.5t-118 -417t-374 -132.5zM560 244q91 0 128 62.5t37 220t-37 220t-128 62.5t-127 -62.5t-36 -220t36 -220t127 -62.5z" />
    <glyph glyph-name="uni043F" unicode="&#x43f;" horiz-adv-x="1157" 
d="M119 0v1053h919v-1053h-321v784h-277v-784h-321z" />
    <glyph glyph-name="uni0440" unicode="&#x440;" horiz-adv-x="1173" 
d="M721 1073q197 0 288 -130t91 -416.5t-91 -418t-288 -131.5q-80 0 -144.5 28t-91 53.5t-43.5 47.5v-468l-323 -48v1463h282l41 -109q16 25 43 49.5t91.5 52t144.5 27.5zM607 244q91 0 129 62.5t38 220t-38 220t-129 62.5t-128 -62.5t-37 -220t37 -220t128 -62.5z" />
    <glyph glyph-name="uni0441" unicode="&#x441;" horiz-adv-x="950" 
d="M571 -23q-256 0 -379.5 134.5t-123.5 412.5q0 279 123.5 414t379.5 135q176 0 285 -53l16 -266q-123 57 -256 57q-117 0 -169 -66.5t-52 -220.5q0 -150 53.5 -215t172.5 -65q147 0 278 61l-47 -274q-39 -20 -116 -37t-165 -17z" />
    <glyph glyph-name="uni0442" unicode="&#x442;" horiz-adv-x="962" 
d="M928 1053v-277h-285v-776h-324v776h-284v277h893z" />
    <glyph glyph-name="uni0443" unicode="&#x443;" horiz-adv-x="1079" 
d="M313 -410q-121 0 -176 35l-49 262q68 -29 141 -28q111 0 152 98l18 47l-397 1049h344l213 -668l178 668h334l-393 -1157q-55 -162 -145.5 -234t-219.5 -72z" />
    <glyph glyph-name="uni0444" unicode="&#x444;" horiz-adv-x="1583" 
d="M950 1069q291 0 428.5 -131t137.5 -414t-137.5 -413.5t-428.5 -130.5v-369h-317v369q-289 0 -427 131t-138 413q0 283 138 414t427 131v338l317 49v-387zM383 524q0 -152 61.5 -216t202.5 -66v565q-141 0 -202.5 -65.5t-61.5 -217.5zM936 242q143 2 202.5 66.5
t59.5 215.5q0 152 -59.5 217.5t-202.5 65.5v-565z" />
    <glyph glyph-name="uni0445" unicode="&#x445;" horiz-adv-x="1087" 
d="M1085 0h-360l-184 334l-189 -334h-350l346 545l-319 508h358l162 -295l164 295h346l-318 -504z" />
    <glyph glyph-name="uni0446" unicode="&#x446;" horiz-adv-x="1216" 
d="M872 -279v279h-753v1053h321v-785h258v785h322v-785h135v-497z" />
    <glyph glyph-name="uni0447" unicode="&#x447;" horiz-adv-x="1103" 
d="M659 1053h324v-1053h-324v387q-8 -6 -25.5 -14t-81 -21.5t-140.5 -13.5q-168 0 -257 95t-89 257v363h323v-320q0 -127 129 -127q41 0 77 9.5t50 19.5l14 8v410z" />
    <glyph glyph-name="uni0448" unicode="&#x448;" horiz-adv-x="1636" 
d="M119 0v1053h317v-785h223v785h318v-785h223v785h318v-1053h-1399z" />
    <glyph glyph-name="uni0449" unicode="&#x449;" horiz-adv-x="1712" 
d="M1370 -279v279h-1251v1053h317v-785h223v785h318v-785h223v785h318v-785h135v-497z" />
    <glyph glyph-name="uni044A" unicode="&#x44a;" horiz-adv-x="1255" 
d="M793 756q209 0 314 -98.5t105 -278.5q0 -182 -105.5 -280.5t-313.5 -98.5h-512v776h-246v277h561v-297h197zM770 252q63 0 95 32.5t32 94.5q0 125 -127 125h-174v-252h174z" />
    <glyph glyph-name="uni044B" unicode="&#x44b;" horiz-adv-x="1597" 
d="M119 0v1053h317v-297h197q209 0 314.5 -98.5t105.5 -278.5q0 -182 -105.5 -280.5t-314.5 -98.5h-514zM1155 0v1053h324v-1053h-324zM436 252h172q63 0 96 32.5t33 94.5q0 125 -129 125h-172v-252z" />
    <glyph glyph-name="uni044C" unicode="&#x44c;" horiz-adv-x="1093" 
d="M119 0v1053h317v-297h197q209 0 314.5 -98.5t105.5 -278.5q0 -182 -105.5 -280.5t-314.5 -98.5h-514zM436 252h172q63 0 96 32.5t33 94.5q0 125 -129 125h-172v-252z" />
    <glyph glyph-name="uni044D" unicode="&#x44d;" horiz-adv-x="980" 
d="M397 1073q262 0 389 -135t127 -414q0 -276 -127 -410t-389 -134q-150 0 -295 51l-47 262q170 -57 285 -57q109 0 168 41.5t80 134.5h-344v235h342q-20 90 -81 130t-165 40q-131 0 -250 -55l14 256q131 55 293 55z" />
    <glyph glyph-name="uni044E" unicode="&#x44e;" horiz-adv-x="1619" 
d="M1067 1073q252 0 367.5 -131t115.5 -415.5t-115.5 -415.5t-367.5 -131q-223 0 -339 102t-138 321h-152v-403h-319v1053h319v-398h154q25 217 139.5 317.5t335.5 100.5zM1067 244q88 0 124 62.5t36 220t-36 219t-124 61.5t-123 -61.5t-35 -219t35 -220t123 -62.5z" />
    <glyph glyph-name="uni044F" unicode="&#x44f;" horiz-adv-x="1122" 
d="M504 1053h500v-1053h-310v338h-133l-174 -338h-338l213 383q-178 82 -178 309q0 361 420 361zM694 575v224h-170q-129 0 -129 -112t129 -112h170z" />
    <glyph glyph-name="uni0451" unicode="&#x451;" horiz-adv-x="1103" 
d="M219 1192v244h268v-244h-268zM637 1192v244h268v-244h-268zM623 -23q-289 0 -422 136.5t-133 408.5q0 270 125.5 410.5t369.5 140.5q475 0 475 -543v-94h-653q8 -100 70.5 -149t197.5 -49q88 0 183.5 17t154.5 38l-45 -268q-151 -48 -323 -48zM385 633h365
q-10 203 -181 203q-82 0 -129 -51.5t-55 -151.5z" />
    <glyph glyph-name="uni0452" unicode="&#x452;" horiz-adv-x="1189" 
d="M733 1012q168 0 257 -104.5t89 -274.5v-633q0 -209 -90 -309.5t-256 -100.5q-86 0 -151 31l-41 246q49 -31 104 -31t83 37t28 127v549q0 98 -35 146t-117 48q-86 0 -124 -48t-38 -146v-549h-323v1094h-164v174h164v141l323 49v-190h355v-174h-355v-215q111 133 291 133z
" />
    <glyph glyph-name="uni0453" unicode="&#x453;" horiz-adv-x="880" 
d="M473 1176l-213 47l199 256h352zM119 0v1053h729v-277h-406v-776h-323z" />
    <glyph glyph-name="uni0454" unicode="&#x454;" horiz-adv-x="980" 
d="M641 236q115 0 287 57l-49 -262q-143 -51 -295 -51q-262 0 -389 134t-127 410q0 279 127 414t389 135q162 0 293 -55l16 -256q-121 55 -252 55q-104 0 -163.5 -40t-82.5 -130h342v-235h-344q20 -92 79.5 -134t168.5 -42z" />
    <glyph glyph-name="uni0455" unicode="&#x455;" horiz-adv-x="999" 
d="M473 -20q-205 0 -360 57l-45 270q66 -31 176 -54.5t221 -23.5q166 0 166 80q0 35 -21.5 52.5t-85.5 29.5l-162 33q-154 31 -220 105.5t-66 213.5q0 160 111.5 245t338.5 85q199 0 344 -53l17 -258q-53 23 -144.5 41t-189.5 18q-166 0 -166 -69q0 -33 22.5 -50.5
t88.5 -31.5l155 -29q154 -31 220.5 -106.5t66.5 -221.5q0 -166 -111.5 -249.5t-355.5 -83.5z" />
    <glyph glyph-name="uni0456" unicode="&#x456;" horiz-adv-x="561" 
d="M119 1188v244h323v-244h-323zM119 0v1053h323v-1053h-323z" />
    <glyph glyph-name="uni0457" unicode="&#x457;" horiz-adv-x="561" 
d="M-41 1192v244h256v-244h-256zM346 1192v244h258v-244h-258zM119 0v1053h323v-1053h-323z" />
    <glyph glyph-name="uni0458" unicode="&#x458;" horiz-adv-x="577" 
d="M135 1188v244h324v-244h-324zM61 -412q-92 0 -174 37l-47 271q68 -37 146 -37q76 0 112.5 45t36.5 151v998h324v-998q0 -238 -104 -352.5t-294 -114.5z" />
    <glyph glyph-name="uni0459" unicode="&#x459;" horiz-adv-x="1675" 
d="M172 -20q-33 0 -59.5 4t-36.5 10l-10 4l-46 262q29 -8 68 -8q57 0 86 53t35 187l22 561h807v-351h203q197 0 295 -91t98 -261q0 -168 -99 -259t-294 -91h-524v784h-203l-12 -307q-21 -497 -330 -497zM1038 254h181q49 0 74.5 26.5t25.5 69.5q0 98 -100 99h-181v-195z" />
    <glyph glyph-name="uni045A" unicode="&#x45a;" horiz-adv-x="1662" 
d="M119 0v1053h321v-394h265v394h321v-351h203q197 0 295 -91t98 -261q0 -168 -98.5 -259t-294.5 -91h-524v399h-265v-399h-321zM1026 254h178q51 0 77 26.5t26 69.5q0 98 -103 99h-178v-195z" />
    <glyph glyph-name="uni045B" unicode="&#x45b;" horiz-adv-x="1189" 
d="M733 1036q168 0 257 -103.5t89 -275.5v-657h-323v573q0 98 -35 146.5t-117 48.5q-86 0 -124 -48t-38 -147v-573h-323v1130h-144v152h144v127l323 49v-176h349v-152h-349v-227q111 133 291 133z" />
    <glyph glyph-name="uni045C" unicode="&#x45c;" horiz-adv-x="1134" 
d="M586 1176l-213 47l198 256h353zM119 0v1053h317v-398h94l222 398h352l-311 -510l337 -543h-364l-229 406h-101v-406h-317z" />
    <glyph glyph-name="uni045D" unicode="&#x45d;" horiz-adv-x="1200" 
d="M791 1223l-216 -47l-337 303h352zM768 1053h313v-1053h-313v608l-336 -608h-313v1053h313v-611z" />
    <glyph glyph-name="uni045E" unicode="&#x45e;" horiz-adv-x="1079" 
d="M551 1165q-164 0 -250 78t-98 211l239 43q6 -162 109 -162q100 0 106 162l238 -43q-10 -133 -96 -211t-248 -78zM313 -410q-121 0 -176 35l-49 262q68 -29 141 -28q111 0 152 98l18 47l-397 1049h344l213 -668l178 668h334l-393 -1157q-55 -162 -145.5 -234t-219.5 -72z
" />
    <glyph glyph-name="uni045F" unicode="&#x45f;" horiz-adv-x="1157" 
d="M1038 1053v-1053h-319v-231l-283 -48v279h-317v1053h321v-785h277v785h321z" />
    <glyph glyph-name="uni0490" unicode="&#x490;" horiz-adv-x="1124" 
d="M788 1642l297 50v-564h-591v-1128h-349v1434h643v208z" />
    <glyph glyph-name="uni0491" unicode="&#x491;" horiz-adv-x="888" 
d="M598 1229l258 39v-492h-414v-776h-323v1053h479v176z" />
    <glyph glyph-name="Wgrave" unicode="&#x1e80;" horiz-adv-x="1867" 
d="M913 1554l-338 304h353l200 -256zM1493 1434h340l-281 -1434h-342l-274 735l-277 -735h-342l-282 1434h350l156 -951l364 951h70l362 -951z" />
    <glyph glyph-name="wgrave" unicode="&#x1e81;" horiz-adv-x="1540" 
d="M748 1176l-338 303h352l201 -256zM1196 1053h305l-229 -1053h-314l-190 479l-186 -479h-316l-227 1053h313l127 -664l264 662h60l266 -656z" />
    <glyph glyph-name="Wacute" unicode="&#x1e82;" horiz-adv-x="1867" 
d="M938 1556l-215 50l201 254h352zM1493 1434h340l-281 -1434h-342l-274 735l-277 -735h-340l-284 1434h350l156 -951l364 951h70l362 -951z" />
    <glyph glyph-name="wacute" unicode="&#x1e83;" horiz-adv-x="1540" 
d="M770 1176l-213 47l199 256h352zM1196 1053h305l-229 -1053h-314l-190 479l-186 -479h-316l-227 1053h313l127 -664l264 662h60l266 -656z" />
    <glyph glyph-name="Wdieresis" unicode="&#x1e84;" horiz-adv-x="1867" 
d="M594 1577v244h268v-244h-268zM1012 1577v244h270v-244h-270zM1493 1434h340l-281 -1434h-342l-274 735l-277 -735h-340l-284 1434h350l156 -951l364 951h70l362 -951z" />
    <glyph glyph-name="wdieresis" unicode="&#x1e85;" horiz-adv-x="1540" 
d="M426 1192v244h270v-244h-270zM844 1192v244h270v-244h-270zM1196 1053h305l-229 -1053h-314l-190 479l-186 -479h-316l-227 1053h313l127 -664l264 662h60l266 -656z" />
    <glyph glyph-name="uni1E9E" unicode="&#x1e9e;" horiz-adv-x="1355" 
d="M1040 846q233 -82 232 -410q2 -457 -453 -456q-109 0 -198 30v248q72 -27 151 -27q80 0 116 43t36 172q0 115 -42 158t-139 43h-57v121l207 401q-76 39 -188 39q-223 0 -224 -215v-993h-346v979q0 240 139.5 363.5t415.5 123.5q193 0 337 -63.5t224 -149.5z" />
    <glyph glyph-name="Ygrave" unicode="&#x1ef2;" horiz-adv-x="1292" 
d="M623 1554l-338 304h352l201 -256zM1282 1434l-461 -910v-524h-350v524l-465 910h381l262 -570l260 570h373z" />
    <glyph glyph-name="ygrave" unicode="&#x1ef3;" horiz-adv-x="1079" 
d="M522 1176l-336 303h351l200 -256zM313 -410q-121 0 -176 35l-49 262q68 -29 141 -28q111 0 152 98l18 47l-397 1049h344l213 -668l178 668h334l-393 -1157q-55 -162 -145.5 -234t-219.5 -72z" />
    <glyph glyph-name="endash" unicode="&#x2013;" horiz-adv-x="1138" 
d="M109 467v252h923v-252h-923z" />
    <glyph glyph-name="emdash" unicode="&#x2014;" horiz-adv-x="1732" 
d="M106 467v252h1518v-252h-1518z" />
    <glyph glyph-name="quoteleft" unicode="&#x2018;" horiz-adv-x="542" 
d="M461 1516l-51 -605h-361l242 605h170z" />
    <glyph glyph-name="quoteright" unicode="&#x2019;" horiz-adv-x="509" 
d="M90 911l53 605h361l-244 -605h-170z" />
    <glyph glyph-name="quotesinglbase" unicode="&#x201a;" horiz-adv-x="567" 
d="M72 -270l51 604h360l-241 -604h-170z" />
    <glyph glyph-name="quotedblleft" unicode="&#x201c;" horiz-adv-x="968" 
d="M461 1516l-51 -605h-361l242 605h170zM887 1516l-51 -605h-361l242 605h170z" />
    <glyph glyph-name="quotedblright" unicode="&#x201d;" horiz-adv-x="935" 
d="M90 911l53 605h361l-244 -605h-170zM516 911l51 605h361l-242 -605h-170z" />
    <glyph glyph-name="quotedblbase" unicode="&#x201e;" horiz-adv-x="993" 
d="M72 -270l51 604h360l-241 -604h-170zM498 -270l51 604h360l-241 -604h-170z" />
    <glyph glyph-name="dagger" unicode="&#x2020;" horiz-adv-x="999" 
d="M948 1120v-223h-323v-1143h-248v1143h-326v223h326v314h248v-314h323z" />
    <glyph glyph-name="daggerdbl" unicode="&#x2021;" horiz-adv-x="1083" 
d="M991 897h-323v-606h323v-223h-323v-314h-250v314h-326v223h326v606h-326v223h326v314h250v-314h323v-223z" />
    <glyph glyph-name="bullet" unicode="&#x2022;" horiz-adv-x="825" 
d="M412 299q-121 0 -202 72.5t-81 203.5t81 203t202 72t202.5 -71.5t81.5 -203.5q0 -131 -81.5 -203.5t-202.5 -72.5z" />
    <glyph glyph-name="ellipsis" unicode="&#x2026;" horiz-adv-x="1630" 
d="M109 0v334h342v-334h-342zM643 0v334h344v-334h-344zM1178 0v334h344v-334h-344z" />
    <glyph glyph-name="perthousand" unicode="&#x2030;" horiz-adv-x="2535" 
d="M406 713q-348 0 -349 377q0 375 349 374q350 0 350 -374q0 -377 -350 -377zM254 0l965 1434h262l-963 -1434h-264zM406 918q63 0 92.5 40.5t29.5 131.5q0 92 -29.5 133t-92.5 41q-61 0 -90 -41t-29 -133q0 -90 29 -131t90 -41zM1333 -20q-348 0 -348 376q0 375 348 375
q350 0 350 -375q0 -376 -350 -376zM2132 -20q-348 0 -348 376q0 375 348 375q350 0 350 -375q0 -376 -350 -376zM1333 182q61 0 91 42t30 132q0 92 -28.5 132t-92.5 40q-61 0 -90 -39.5t-29 -132.5q0 -90 29 -132t90 -42zM2132 182q63 0 93 42t30 132t-30 131t-93 41
q-61 0 -90 -41t-29 -131t29 -132t90 -42z" />
    <glyph glyph-name="guilsinglleft" unicode="&#x2039;" horiz-adv-x="663" 
d="M313 121l-256 405l256 404h271l-211 -404l211 -405h-271z" />
    <glyph glyph-name="guilsinglright" unicode="&#x203a;" horiz-adv-x="663" 
d="M350 121h-270l211 405l-211 404h270l256 -404z" />
    <glyph glyph-name="fraction" unicode="&#x2044;" horiz-adv-x="442" 
d="M-391 0l971 1434h247l-970 -1434h-248z" />
    <glyph glyph-name="Euro" unicode="&#x20ac;" horiz-adv-x="1316" 
d="M911 270q92 0 184.5 27t149.5 57l-47 -317q-53 -27 -144 -48.5t-188 -21.5q-504 0 -596 494h-200v211h180v45v61h-184v211h208q96 477 592 477q94 0 185.5 -22.5t146.5 -50.5l19 -308q-51 31 -135.5 54.5t-170.5 23.5q-106 0 -171.5 -41t-98.5 -133h375l-31 -211h-379
q-2 -29 -2 -61v-45h361l-33 -211h-297q33 -100 99 -145.5t177 -45.5z" />
    <glyph glyph-name="uni20BD" unicode="&#x20bd;" horiz-adv-x="1349" 
d="M90 225v219h180v113h-180v221h180v656h525q248 0 372.5 -117t124.5 -332q0 -209 -125 -321.5t-372 -112.5h-187v-107h469v-219h-469v-225h-338v225h-180zM608 784h158q94 0 142 47.5t48 133.5t-48 134t-142 48h-158v-363z" />
    <glyph glyph-name="uni2113" unicode="&#x2113;" horiz-adv-x="929" 
d="M440 449q0 -160 31 -209.5t115 -49.5q41 0 84 9.5t73.5 21.5t55 25.5t37.5 21.5l12 11v-226q-12 -8 -37 -20.5t-103.5 -32.5t-160.5 -20q-168 0 -251 78.5t-89 263.5l-146 -84v243l146 90v570q0 326 336 325q162 0 246.5 -85t84.5 -240q0 -201 -93 -360.5t-341 -319.5
v-12zM543 1257q-53 0 -78 -27.5t-25 -88.5v-416q115 88 155 182t40 234q0 116 -92 116z" />
    <glyph glyph-name="uni2116" unicode="&#x2116;" horiz-adv-x="2232" 
d="M1810 713q-348 0 -348 377q0 375 348 374q350 0 351 -374q-1 -377 -351 -377zM995 1434h316v-1434h-299l-549 872v-872h-318v1434h301l549 -871v871zM1810 930q57 0 85 38t28 122q0 86 -27.5 123.5t-85.5 37.5q-57 0 -84.5 -37.5t-27.5 -123.5q0 -84 27.5 -122t84.5 -38z
M1499 375v227h625v-227h-625z" />
    <glyph glyph-name="uni2117" unicode="&#x2117;" horiz-adv-x="1634" 
d="M817 -20q-205 0 -376 98t-269 269t-98 377t98 376t268 267t377 97t377 -97t267.5 -267t97.5 -377t-96.5 -377t-267.5 -268t-378 -98zM817 125q252 0 421 172t169 427t-169 425t-421 170t-421 -171t-169 -425t170 -426t420 -172zM555 293v850h330q154 0 233.5 -73
t79.5 -206q0 -135 -81 -205.5t-232 -70.5h-154v-295h-176zM731 748h154q131 0 131 116q0 117 -131 117h-154v-233z" />
    <glyph glyph-name="trademark" unicode="&#x2122;" horiz-adv-x="1458" 
d="M240 844v418h-174v172h528v-172h-172v-418h-182zM674 844v590h174l151 -209l152 209h180v-590h-184v319l-150 -213l-147 211v-317h-176z" />
    <glyph glyph-name="estimated" unicode="&#x212e;" horiz-adv-x="1581" 
d="M805 -20q-197 0 -363 96t-262 263t-96 361.5t96 361.5t262 263t361.5 96t361.5 -96t263.5 -263t97.5 -362v-49h-1114v-446q182 -137 393 -137q201 0 383 127h137q-203 -215 -520 -215zM412 741h786v453q-176 139 -393 139q-215 0 -393 -137v-455z" />
    <glyph glyph-name="oneeighth" unicode="&#x215b;" horiz-adv-x="1734" 
d="M190 666v491l-149 -47v213l379 121v-778h-230zM1106 1434h250l-971 -1434h-250zM1561 412q119 -57 118 -191q0 -111 -88 -174t-237 -63q-152 0 -240 58t-88 159q0 123 119 176q-94 57 -94 174q0 109 78.5 170t224.5 61q143 0 222 -56t79 -155q0 -108 -94 -159zM1354 606
q-90 0 -90 -61q0 -35 33.5 -51.5t103.5 -32.5q41 33 41 76q0 69 -88 69zM1354 160q47 0 72.5 18.5t25.5 50.5q0 20 -10 35t-37 25t-44.5 15t-57.5 15q-47 -35 -48 -81q1 -78 99 -78z" />
    <glyph glyph-name="threeeighths" unicode="&#x215c;" horiz-adv-x="1933" 
d="M668 874q0 -223 -322 -223q-76 0 -142.5 11.5t-92.5 21.5l-29 12l-33 209q4 -4 35 -17.5t96.5 -30.5t128.5 -17q70 0 98.5 17t28.5 52q0 61 -80 62h-163v166h145q76 0 76 59q0 33 -22.5 49.5t-80.5 16.5q-27 0 -53.5 -3.5t-49 -9.5t-43 -12t-35.5 -13t-27.5 -12.5
t-18.5 -9.5l-6 -4l12 197q10 6 30.5 15t88 24.5t143.5 15.5q137 0 215 -52t78 -161q0 -119 -104 -170q127 -50 127 -193zM1305 1434h249l-970 -1434h-250zM1759 412q117 -57 117 -191q0 -111 -87 -174t-239 -63q-150 0 -237.5 58t-87.5 159q0 123 116 176q-92 57 -92 174
q0 109 79 170t222 61q145 0 224 -56t79 -155q0 -108 -94 -159zM1550 606q-88 0 -88 -61q0 -35 33 -51.5t104 -32.5q41 33 41 76q0 69 -90 69zM1550 160q49 0 74 18.5t25 50.5q0 20 -10.5 35t-36 25t-43 15t-60.5 15q-47 -35 -47 -81q0 -78 98 -78z" />
    <glyph glyph-name="fiveeighths" unicode="&#x215d;" horiz-adv-x="1923" 
d="M664 918q0 -133 -87.5 -201t-252.5 -68q-63 0 -123 10.5t-86 20.5l-27 10l-31 207q102 -59 234 -59q74 0 105.5 21.5t31.5 64.5q0 82 -137 82q-55 0 -111.5 -8.5t-83.5 -16.5l-28 -8l43 461h524l-31 -181h-313l-10 -108q57 14 122 14q121 0 191 -61t70 -180zM1294 1434
h250l-971 -1434h-249zM1749 412q119 -57 119 -191q0 -111 -88 -174t-238 -63q-152 0 -240 58t-88 159q0 123 119 176q-94 57 -94 174q0 109 79 170t224 61q143 0 222 -56t79 -155q0 -108 -94 -159zM1542 606q-90 0 -90 -61q0 -35 34 -51.5t103 -32.5q41 33 41 76
q0 69 -88 69zM1542 160q47 0 72.5 18.5t25.5 50.5q0 20 -10 35t-36.5 25t-44 15t-58.5 15q-47 -35 -47 -81q0 -78 98 -78z" />
    <glyph glyph-name="seveneighths" unicode="&#x215e;" horiz-adv-x="1787" 
d="M350 666h-235l245 575h-325v193h567v-168zM1159 1434h250l-971 -1434h-250zM1614 412q117 -57 117 -191q0 -111 -88.5 -174t-237.5 -63q-150 0 -238 58t-88 159q0 123 117 176q-94 57 -94 174q0 109 79 170t224 61t223 -56t78 -155q0 -108 -92 -159zM1405 606
q-90 0 -90 -61q0 -35 33.5 -51.5t105.5 -32.5q41 33 41 76q0 69 -90 69zM1405 160q49 0 73.5 18.5t24.5 50.5q0 20 -10 35t-35.5 25t-44 15t-59.5 15q-47 -35 -47 -81q0 -78 98 -78z" />
    <glyph glyph-name="arrowleft" unicode="&#x2190;" horiz-adv-x="1593" 
d="M1526 614h-965l406 -405l-189 -189l-729 730l729 729l189 -189l-406 -407h963z" />
    <glyph glyph-name="arrowup" unicode="&#x2191;" horiz-adv-x="1540" 
d="M1499 715l-188 -189l-408 408v-965h-266l-2 965l-406 -408l-188 189l729 729z" />
    <glyph glyph-name="arrowright" unicode="&#x2192;" horiz-adv-x="1593" 
d="M815 1479l729 -729l-729 -730l-188 189l405 405h-964l2 269h962l-405 407z" />
    <glyph glyph-name="arrowdown" unicode="&#x2193;" horiz-adv-x="1540" 
d="M1311 907l188 -188l-729 -729l-729 729l188 188l406 -407l2 964h266v-964z" />
    <glyph glyph-name="uni2196" unicode="&#x2196;" horiz-adv-x="1351" 
d="M1266 299l-189 -188l-682 682v-576h-266v1032h1030v-268h-575z" />
    <glyph glyph-name="uni2197" unicode="&#x2197;" horiz-adv-x="1351" 
d="M190 1249h1033v-1032h-267v576l-684 -684l-188 190l682 682h-576v268z" />
    <glyph glyph-name="uni2198" unicode="&#x2198;" horiz-adv-x="1351" 
d="M956 1155h267v-1032h-1033v268h576l-682 682l188 189l684 -682v575z" />
    <glyph glyph-name="uni2199" unicode="&#x2199;" horiz-adv-x="1351" 
d="M1266 1079l-680 -682h575v-268h-1032v1032h266v-575l682 682z" />
    <glyph glyph-name="partialdiff" unicode="&#x2202;" horiz-adv-x="1159" 
d="M588 1456q270 0 396 -175t93 -564q-35 -408 -162 -572.5t-399 -164.5q-246 0 -355.5 122.5t-86.5 372.5q23 258 127 378t293 120q158 0 264 -76q-6 176 -65.5 239.5t-180.5 63.5q-156 0 -281 -55l41 258q119 53 316 53zM530 233q63 0 102.5 34t68 131.5t47.5 275.5
q-82 45 -177 41q-86 0 -129 -55.5t-53 -184.5q-10 -127 22.5 -184.5t118.5 -57.5z" />
    <glyph glyph-name="emptyset" unicode="&#x2205;" horiz-adv-x="1335" 
d="M1116 1090q129 -160 129 -371q0 -244 -168 -412t-411 -168q-156 0 -285 74l-125 -147l-158 135l121 143q-131 160 -131 375q0 244 167 411.5t411 167.5q158 0 288 -75l125 147l162 -131zM342 719q0 -94 45 -174l404 481q-59 25 -125 25q-137 0 -230.5 -96.5t-93.5 -235.5
zM666 387q137 0 231 96.5t94 235.5q0 92 -45 170l-401 -479q58 -23 121 -23z" />
    <glyph glyph-name="product" unicode="&#x220f;" horiz-adv-x="1456" 
d="M252 -389v1550h-195v273h1340v-273h-193v-1550h-297v1550h-358v-1550h-297z" />
    <glyph glyph-name="summation" unicode="&#x2211;" horiz-adv-x="1118" 
d="M1053 1434v-273h-633l409 -641l-409 -639h633v-272h-983v272l413 639l-413 641v273h983z" />
    <glyph glyph-name="minus" unicode="&#x2212;" horiz-adv-x="1232" 
d="M113 573v267h1005v-267h-1005z" />
    <glyph glyph-name="radical" unicode="&#x221a;" horiz-adv-x="1382" 
d="M514 0l-246 725h-248v270h469l197 -610l416 1212h315l-565 -1597h-338z" />
    <glyph glyph-name="infinity" unicode="&#x221e;" horiz-adv-x="1650" 
d="M442 309q-154 0 -258 115t-104 309.5t104.5 309t257.5 114.5q129 0 218.5 -66.5t164.5 -181.5q76 115 165 181.5t218 66.5q154 0 258.5 -114.5t104.5 -309t-104.5 -309.5t-258.5 -115q-68 0 -126 19.5t-105 58.5t-80 77t-72 93q-39 -55 -71.5 -93t-79.5 -77t-105.5 -58.5
t-126.5 -19.5zM477 561q61 0 107.5 43t97.5 127q-55 88 -99 131t-106 43q-57 0 -94 -43t-37 -129t37 -129t94 -43zM1176 561q55 0 93 43t38 129t-38 129t-93 43q-43 0 -83 -26.5t-62.5 -57t-61.5 -90.5q53 -84 98.5 -127t108.5 -43z" />
    <glyph glyph-name="integral" unicode="&#x222b;" horiz-adv-x="749" 
d="M0 -618v260h111q119 0 118 114v1323q0 166 102.5 260.5t284.5 94.5h134v-260h-111q-117 0 -117 -115v-1323q0 -166 -103.5 -260t-283.5 -94h-135z" />
    <glyph glyph-name="approxequal" unicode="&#x2248;" horiz-adv-x="1236" 
d="M868 735q-76 0 -165 32t-163.5 64.5t-109.5 32.5q-41 0 -59.5 -27.5t-18.5 -93.5h-239q-4 373 272 373q78 0 166 -32.5t159.5 -65.5t110.5 -33q80 0 80 123h240q1 -373 -273 -373zM868 297q-76 0 -165 31.5t-163.5 64.5t-109.5 33q-41 0 -59.5 -27.5t-18.5 -93.5h-239
q-4 373 272 373q78 0 166 -33t159.5 -65.5t110.5 -32.5q80 0 80 123h240q1 -373 -273 -373z" />
    <glyph glyph-name="notequal" unicode="&#x2260;" horiz-adv-x="1232" 
d="M1118 813h-352l-107 -213h459v-258h-583l-78 -160h-193l78 160h-229v258h356l104 213h-460v258h587l78 160h191l-78 -160h227v-258z" />
    <glyph glyph-name="lessequal" unicode="&#x2264;" horiz-adv-x="1087" 
d="M963 1260v-263l-482 -141l482 -141v-262l-846 266v274zM117 139v252h846v-252h-846z" />
    <glyph glyph-name="greaterequal" unicode="&#x2265;" horiz-adv-x="1087" 
d="M125 1260l846 -267v-274l-846 -266v262l481 141l-481 141v263zM125 139v252h846v-252h-846z" />
    <glyph glyph-name="lozenge" unicode="&#x25ca;" horiz-adv-x="1140" 
d="M479 0l-424 717l424 717h187l419 -717l-419 -717h-187zM569 334l232 383l-232 383l-229 -383z" />
    <glyph glyph-name="germandbls.aalt" horiz-adv-x="1355" 
d="M1040 846q233 -82 232 -410q2 -457 -453 -456q-109 0 -198 30v248q72 -27 151 -27q80 0 116 43t36 172q0 115 -42 158t-139 43h-57v121l207 401q-76 39 -188 39q-223 0 -224 -215v-993h-346v979q0 240 139.5 363.5t415.5 123.5q193 0 337 -63.5t224 -149.5z" />
    <glyph glyph-name="i.aalt" horiz-adv-x="561" 
d="M123 1190v250h315v-250h-315zM119 0v1053h323v-1053h-323z" />
    <glyph glyph-name="a.salt" horiz-adv-x="1173" 
d="M772 1053h283v-1053h-283l-39 109l-2 -3q-16 -25 -41.5 -48t-91.5 -50.5t-145 -27.5q-195 0 -287 130t-92 415.5t92 416.5t287 131q80 0 145.5 -27.5t91 -52t41.5 -49.5l2 -2zM566 244q91 0 128 62.5t37 219t-37 219t-128 62.5t-129 -62.5t-38 -219t38 -219t129 -62.5z
" />
    <glyph glyph-name="aacute.aalt" horiz-adv-x="1173" 
d="M944 1470l-338 -303l-215 50l201 253h352zM772 1053h283v-1053h-283l-39 109l-2 -3q-16 -25 -41.5 -48t-91.5 -50.5t-145 -27.5q-195 0 -287 130t-92 415.5t92 416.5t287 131q80 0 145.5 -27.5t91 -52t41.5 -49.5l2 -2zM566 244q91 0 128 62.5t37 219t-37 219t-128 62.5
t-129 -62.5t-38 -219t38 -219t129 -62.5z" />
    <glyph glyph-name="abreve.aalt" horiz-adv-x="1173" 
d="M608 1157q-164 0 -250 79t-98 210l240 43q4 -160 108 -160q100 0 107 160l237 -43q-12 -131 -97 -210t-247 -79zM772 1053h283v-1053h-283l-39 109l-2 -3q-16 -25 -41.5 -48t-91.5 -50.5t-145 -27.5q-195 0 -287 130t-92 415.5t92 416.5t287 131q80 0 145.5 -27.5t91 -52
t41.5 -49.5l2 -2zM566 244q91 0 128 62.5t37 219t-37 219t-128 62.5t-129 -62.5t-38 -219t38 -219t129 -62.5z" />
    <glyph glyph-name="acircumflex.aalt" horiz-adv-x="1173" 
d="M602 1309l-196 -142l-185 50l234 253h299l233 -253l-182 -50zM772 1053h283v-1053h-283l-39 109l-2 -3q-16 -25 -41.5 -48t-91.5 -50.5t-145 -27.5q-195 0 -287 130t-92 415.5t92 416.5t287 131q80 0 145.5 -27.5t91 -52t41.5 -49.5l2 -2zM566 244q91 0 128 62.5t37 219
t-37 219t-128 62.5t-129 -62.5t-38 -219t38 -219t129 -62.5z" />
    <glyph glyph-name="adieresis.aalt" horiz-adv-x="1173" 
d="M530 1430v-244h-268v244h268zM948 1430v-244h-268v244h268zM772 1053h283v-1053h-283l-39 109l-2 -3q-16 -25 -41.5 -48t-91.5 -50.5t-145 -27.5q-195 0 -287 130t-92 415.5t92 416.5t287 131q80 0 145.5 -27.5t91 -52t41.5 -49.5l2 -2zM566 244q91 0 128 62.5t37 219
t-37 219t-128 62.5t-129 -62.5t-38 -219t38 -219t129 -62.5z" />
    <glyph glyph-name="agrave.aalt" horiz-adv-x="1173" 
d="M797 1217l-215 -50l-338 303h352zM772 1053l283 -2v-1051h-283l-39 109l-2 -3q-16 -25 -41.5 -48t-91.5 -50.5t-145 -27.5q-195 0 -287 130t-92 415.5t92 416.5t287 131q80 0 145.5 -27.5t91 -52t41.5 -49.5l2 -2zM566 244q91 0 128 62.5t37 219t-37 219t-128 62.5
t-129 -62.5t-38 -219t38 -219t129 -62.5z" />
    <glyph glyph-name="amacron.aalt" horiz-adv-x="1173" 
d="M930 1403v-178h-645v178h645zM772 1053h283v-1053h-283l-39 109l-2 -3q-16 -25 -41.5 -48t-91.5 -50.5t-145 -27.5q-195 0 -287 130t-92 415.5t92 416.5t287 131q80 0 145.5 -27.5t91 -52t41.5 -49.5l2 -2zM566 244q91 0 128 62.5t37 219t-37 219t-128 62.5t-129 -62.5
t-38 -219t38 -219t129 -62.5z" />
    <glyph glyph-name="aogonek.aalt" horiz-adv-x="1173" 
d="M1055 0q-139 -92 -140 -172q0 -66 70 -66q20 0 37.5 3.5t26.5 7.5l6 4v-162q-55 -25 -148 -25q-106 0 -159.5 46.5t-53.5 125.5q0 68 46 131.5t130 106.5h-98l-39 109l-2 -3q-16 -25 -41.5 -48t-91.5 -50.5t-145 -27.5q-195 0 -287 130t-92 415.5t92 416.5t287 131
q80 0 145.5 -27.5t91 -52t41.5 -49.5l2 -2l39 111h283v-1053zM566 244q91 0 128 62.5t37 219t-37 219t-128 62.5t-129 -62.5t-38 -219t38 -219t129 -62.5z" />
    <glyph glyph-name="aring.aalt" horiz-adv-x="1173" 
d="M608 1157q-113 0 -186.5 65.5t-73.5 174.5q0 111 73 177t187 66q113 0 185.5 -66.5t72.5 -176.5q0 -109 -72.5 -174.5t-185.5 -65.5zM608 1497q-47 0 -73.5 -26.5t-26.5 -73.5q0 -45 26.5 -71t73.5 -26q45 0 72 26t27 71q0 47 -27 73.5t-72 26.5zM772 1053h283v-1053
h-283l-39 109l-2 -3q-16 -25 -41.5 -48t-91.5 -50.5t-145 -27.5q-195 0 -287 130t-92 415.5t92 416.5t287 131q80 0 145.5 -27.5t91 -52t41.5 -49.5l2 -2zM566 244q91 0 128 62.5t37 219t-37 219t-128 62.5t-129 -62.5t-38 -219t38 -219t129 -62.5z" />
    <glyph glyph-name="atilde.aalt" horiz-adv-x="1173" 
d="M500 1266q-27 0 -50.5 -19.5t-72.5 -81.5l-146 107q84 111 141.5 150.5t123.5 39.5q53 0 125.5 -50t97.5 -50t47 18.5t76 81.5l143 -106q-84 -113 -140.5 -152t-121.5 -39q-41 0 -84 24.5t-78.5 50.5t-60.5 26zM772 1053h283v-1053h-283l-39 109l-2 -3q-16 -25 -41.5 -48
t-91.5 -50.5t-145 -27.5q-195 0 -287 130t-92 415.5t92 416.5t287 131q80 0 145.5 -27.5t91 -52t41.5 -49.5l2 -2zM566 244q91 0 128 62.5t37 219t-37 219t-128 62.5t-129 -62.5t-38 -219t38 -219t129 -62.5z" />
    <glyph glyph-name="ae.aalt" horiz-adv-x="1785" 
d="M1718 530v-94h-661q6 -98 66.5 -145t195.5 -47q80 0 168 13t135 28l47 14l-47 -274q-123 -45 -260 -45q-233 0 -348 129v-109h-283v106q-16 -25 -41.5 -48t-91.5 -50.5t-145 -27.5q-195 0 -287 130t-92 415.5t92 416.5t287 131q80 0 145.5 -27.5t91 -52t41.5 -49.5v109
h283v-107q106 127 293 127q203 0 307 -131t104 -412zM1245 829q-172 0 -188 -194h368q-12 194 -180 194zM566 244q91 0 128 62.5t37 219t-37 219t-128 62.5t-129 -62.5t-38 -219t38 -219t129 -62.5z" />
    <glyph glyph-name="y.aalt" horiz-adv-x="1189" 
d="M748 1053h323v-930q0 -532 -543 -533q-178 0 -309 50l-45 274q150 -63 309 -64q139 0 202 61.5t63 211.5v22q-61 -68 -130 -99.5t-161 -31.5q-168 0 -257 103.5t-89 275.5v660h323v-578q0 -98 35 -146t117 -48q86 0 124 48t38 146v578z" />
    <glyph glyph-name="yacute.aalt" horiz-adv-x="1189" 
d="M922 1479l-338 -303l-213 47l198 256h353zM748 1053h323v-930q0 -532 -543 -533q-178 0 -309 50l-45 274q150 -63 309 -64q139 0 202 61.5t63 211.5v22q-61 -68 -130 -99.5t-161 -31.5q-168 0 -257 103.5t-89 275.5v660h323v-578q0 -98 35 -146t117 -48q86 0 124 48
t38 146v578z" />
    <glyph glyph-name="ycircumflex.aalt" horiz-adv-x="1189" 
d="M582 1315l-197 -139l-184 47l233 256h299l234 -256l-185 -47zM748 1053h323v-930q0 -532 -543 -533q-178 0 -309 50l-45 274q150 -63 309 -64q139 0 202 61.5t63 211.5v22q-61 -68 -130 -99.5t-161 -31.5q-168 0 -257 103.5t-89 275.5v660h323v-578q0 -98 35 -146
t117 -48q86 0 124 48t38 146v578z" />
    <glyph glyph-name="ydieresis.aalt" horiz-adv-x="1189" 
d="M510 1436v-244h-270v244h270zM928 1436v-244h-269v244h269zM748 1053h323v-930q0 -532 -543 -533q-178 0 -309 50l-45 274q150 -63 309 -64q139 0 202 61.5t63 211.5v22q-61 -68 -130 -99.5t-161 -31.5q-168 0 -257 103.5t-89 275.5v660h323v-578q0 -98 35 -146t117 -48
q86 0 124 48t38 146v578z" />
    <glyph glyph-name="ygrave.aalt" horiz-adv-x="1189" 
d="M776 1223l-215 -47l-338 303h352zM748 1053h323v-930q0 -532 -543 -533q-178 0 -309 50l-45 274q150 -63 309 -64q139 0 202 61.5t63 211.5v22q-61 -68 -130 -99.5t-161 -31.5q-168 0 -257 103.5t-89 275.5v660h323v-578q0 -98 35 -146t117 -48q86 0 124 48t38 146v578z
" />
    <glyph glyph-name="uni0414.locl" horiz-adv-x="1503" 
d="M1333 305h125v-579h-315v274h-783v-274h-317v579h123l416 1129h333zM745 1022l-233 -717h467z" />
    <glyph glyph-name="uni041B.locl" horiz-adv-x="1357" 
d="M1356 0h-373l-307 987l-309 -987h-365l510 1434h334z" />
    <glyph glyph-name="uni0424.locl" horiz-adv-x="1781" 
d="M1704 717.5q0 -664.5 -641 -678.5v-131h-340v131q-645 14 -645 678.5t645 679.5v129h340v-129q641 -15 641 -679.5zM420 717q0 -408 319 -418v836q-319 -8 -319 -418zM1044 299q319 10 320 418q0 410 -320 418v-836z" />
    <glyph glyph-name="uni0414.ss02" horiz-adv-x="1503" 
d="M1333 305h125v-579h-315v274h-783v-274h-317v579h123l416 1129h333zM745 1022l-233 -717h467z" />
    <glyph glyph-name="uni041B.ss02" horiz-adv-x="1357" 
d="M1356 0h-373l-307 987l-309 -987h-365l510 1434h334z" />
    <glyph glyph-name="uni0424.ss02" horiz-adv-x="1781" 
d="M1704 717.5q0 -664.5 -641 -678.5v-131h-340v131q-645 14 -645 678.5t645 679.5v129h340v-129q641 -15 641 -679.5zM420 717q0 -408 319 -418v836q-319 -8 -319 -418zM1044 299q319 10 320 418q0 410 -320 418v-836z" />
    <glyph glyph-name="uni0432.locl" horiz-adv-x="1148" 
d="M899 748q180 -80 180 -334q0 -213 -125 -326t-364 -113q-248 0 -366 122t-118 378v508q0 475 482 475q227 0 345 -105.5t118 -289.5q0 -233 -152 -315zM575 1202q-82 0 -116.5 -47t-34.5 -156v-149h147q84 0 122 44t38 134q0 174 -156 174zM588 236q88 0 128 46t40 150
q0 102 -40 143t-132 41h-160v-155q0 -121 39 -173t125 -52z" />
    <glyph glyph-name="uni0433.locl" horiz-adv-x="993" 
d="M475 -20q-416 0 -416 313q0 133 67 211t226 123l152 43q57 14 78.5 32.5t21.5 47.5q0 63 -115 65q-186 0 -380 -74l14 271q180 61 393 61q403 0 404 -309q0 -131 -61.5 -204t-217.5 -118l-160 -43q-55 -18 -79.5 -38.5t-24.5 -53.5q0 -35 25.5 -51t86.5 -16
q127 0 246 29.5t189 66.5l-50 -283q-61 -29 -169.5 -51t-229.5 -22z" />
    <glyph glyph-name="uni0434.locl" horiz-adv-x="1173" 
d="M508 -412q-178 0 -311 52l-47 274q152 -66 315 -66q137 0 200.5 59.5t65.5 203.5v18q-16 -23 -42.5 -45.5t-91.5 -46t-144 -23.5q-197 0 -288 125t-91 398q0 281 92 408.5t287 127.5q80 0 145.5 -27.5t91 -52t41.5 -49.5l41 109h283v-930q0 -535 -547 -535zM566 272
q91 0 128 57.5t37 205.5q0 152 -37 213t-128 61t-129 -61.5t-38 -212.5q0 -147 38 -205t129 -58z" />
    <glyph glyph-name="uni0436.locl" horiz-adv-x="1652" 
d="M10 0l314 549l-285 504h338l207 -404h86v758l313 49v-807h86l205 404h340l-285 -504l311 -549h-352l-211 412h-94v-412h-313v412h-95l-208 -412h-357z" />
    <glyph glyph-name="uni0437.locl" horiz-adv-x="983" 
d="M731 362q102 -45 144.5 -130t42.5 -216q0 -426 -523 -426q-96 0 -181 18.5t-130 41.5l-47 272q150 -66 313 -65q125 0 182.5 42t57.5 142q0 98 -46 139t-149 41h-200v254h182q100 0 145 41t45 131q0 86 -48 123t-157 37q-150 0 -294 -62l16 267q47 23 138 42t200 19
q467 0 467 -399q0 -228 -158 -312z" />
    <glyph glyph-name="uni0438.locl" horiz-adv-x="1189" 
d="M457 -23q-168 0 -257 104.5t-89 276.5v695h323v-613q0 -98 35 -146t117 -48q86 0 124 48t38 146v613h323v-1053h-283l-40 111q-109 -134 -291 -134z" />
    <glyph glyph-name="uni0439.locl" horiz-adv-x="1189" 
d="M588 1165q-164 0 -250 78t-96 211l237 43q6 -162 109 -162q100 0 106 162l238 -43q-10 -133 -96 -211t-248 -78zM457 -23q-168 0 -257 104.5t-89 276.5v695h323v-613q0 -98 35 -146t117 -48q86 0 124 48t38 146v613h323v-1053h-283l-40 111q-109 -134 -291 -134z" />
    <glyph glyph-name="uni045D.locl" horiz-adv-x="1189" 
d="M563 1176l-338 303h353l198 -256zM457 -23q-168 0 -257 104.5t-89 276.5v695h323v-613q0 -98 35 -146t117 -48q86 0 124 48t38 146v613h323v-1053h-283l-40 111q-109 -134 -291 -134z" />
    <glyph glyph-name="uni043A.locl" horiz-adv-x="1134" 
d="M766 0l-229 412h-101v-412h-317v1407l317 49v-797h94l222 394h352l-311 -502l337 -551h-364z" />
    <glyph glyph-name="uni043B.locl" horiz-adv-x="1112" 
d="M1110 0h-344l-213 715l-215 -715h-336l397 1053h318z" />
    <glyph glyph-name="uni043F.locl" horiz-adv-x="1189" 
d="M119 0v1053h282l41 -113q109 133 291 133q168 0 257 -104.5t89 -276.5v-692h-323v612q0 98 -35 146.5t-117 48.5q-86 0 -124 -48t-38 -147v-612h-323z" />
    <glyph glyph-name="uni0442.locl" horiz-adv-x="1798" 
d="M1335 1073q172 0 262.5 -102.5t90.5 -272.5v-698h-324v618q0 94 -34 141.5t-109 47.5q-84 0 -120 -47t-36 -142v-618h-324v618q0 94 -32.5 141.5t-110.5 47.5q-84 0 -120 -47t-36 -142v-618h-323v1053h282l41 -113q104 133 283 133q201 0 283 -149q126 149 327 149z" />
    <glyph glyph-name="uni0446.locl" 
d="M1130 274h80v-503l-284 -50v279q-61 0 -106.5 28.5t-61.5 80.5q-53 -63 -123 -96t-174 -33q-172 0 -261 103t-89 277v693h323v-617q0 -96 36 -143t118 -47q86 0 124 47t38 143v617h323v-719q0 -60 57 -60z" />
    <glyph glyph-name="uni0448.locl" horiz-adv-x="1798" 
d="M463 -23q-172 0 -262 102.5t-90 274.5v699h323v-619q0 -94 34 -141t110 -47q82 0 118.5 47t36.5 141v619h324v-619q0 -94 32.5 -141t110.5 -47q82 0 119 47t37 141v619h323v-1053h-282l-41 111q-104 -133 -283 -134q-201 0 -282 152q-127 -152 -328 -152z" />
    <glyph glyph-name="uni0449.locl" horiz-adv-x="1896" 
d="M1757 274h78v-503l-283 -50v279q-63 0 -108 29.5t-60 83.5q-109 -133 -294 -133q-203 0 -289 151q-129 -152 -334 -151q-172 0 -264 103t-92 275v695h323v-613q0 -98 34 -146t116 -48q84 0 121.5 49t37.5 145v613h324v-613q0 -98 35 -146t115 -48q86 0 122.5 49t36.5 145
v613h324v-719q0 -60 57 -60z" />
    <glyph glyph-name="uni044E.locl" horiz-adv-x="1619" 
d="M1067 1073q252 0 367.5 -131t115.5 -415.5t-115.5 -415.5t-367.5 -131q-223 0 -339 102t-138 321h-152v-403h-319v1407l319 49v-801h154q25 217 139.5 317.5t335.5 100.5zM1067 244q88 0 124 62.5t36 220t-36 219t-124 61.5t-123 -61.5t-35 -219t35 -220t123 -62.5z" />
    <glyph glyph-name="uni0430.aalt" horiz-adv-x="1173" 
d="M772 1053h283v-1053h-283l-39 109l-2 -3q-16 -25 -41.5 -48t-91.5 -50.5t-145 -27.5q-195 0 -287 130t-92 415.5t92 416.5t287 131q80 0 145.5 -27.5t91 -52t41.5 -49.5l2 -2zM566 244q91 0 128 62.5t37 219t-37 219t-128 62.5t-129 -62.5t-38 -219t38 -219t129 -62.5z
" />
    <glyph glyph-name="uni0443.aalt" horiz-adv-x="1189" 
d="M748 1053h323v-930q0 -532 -543 -533q-178 0 -309 50l-45 274q150 -63 309 -64q139 0 202 61.5t63 211.5v22q-61 -68 -130 -99.5t-161 -31.5q-168 0 -257 103.5t-89 275.5v660h323v-578q0 -98 35 -146t117 -48q86 0 124 48t38 146v578z" />
    <glyph glyph-name="uni045E.aalt" horiz-adv-x="1189" 
d="M588 1165q-164 0 -250 78t-98 211l237 43q6 -162 111 -162q100 0 104 162l240 -43q-12 -133 -97 -211t-247 -78zM748 1053h323v-930q0 -532 -543 -533q-178 0 -309 50l-45 274q150 -63 309 -64q139 0 202 61.5t63 211.5v22q-61 -68 -130 -99.5t-161 -31.5
q-168 0 -257 103.5t-89 275.5v660h323v-578q0 -98 35 -146t117 -48q86 0 124 48t38 146v578z" />
    <glyph glyph-name="uni0432.ss02" horiz-adv-x="1148" 
d="M899 748q180 -80 180 -334q0 -213 -125 -326t-364 -113q-248 0 -366 122t-118 378v508q0 475 482 475q227 0 345 -105.5t118 -289.5q0 -233 -152 -315zM575 1202q-82 0 -116.5 -47t-34.5 -156v-149h147q84 0 122 44t38 134q0 174 -156 174zM588 236q88 0 128 46t40 150
q0 102 -40 143t-132 41h-160v-155q0 -121 39 -173t125 -52z" />
    <glyph glyph-name="uni0433.ss02" horiz-adv-x="993" 
d="M475 -20q-416 0 -416 313q0 133 67 211t226 123l152 43q57 14 78.5 32.5t21.5 47.5q0 63 -115 65q-186 0 -380 -74l14 271q180 61 393 61q403 0 404 -309q0 -131 -61.5 -204t-217.5 -118l-160 -43q-55 -18 -79.5 -38.5t-24.5 -53.5q0 -35 25.5 -51t86.5 -16
q127 0 246 29.5t189 66.5l-50 -283q-61 -29 -169.5 -51t-229.5 -22z" />
    <glyph glyph-name="uni0434.ss02" horiz-adv-x="1173" 
d="M508 -412q-178 0 -311 52l-47 274q152 -66 315 -66q137 0 200.5 59.5t65.5 203.5v18q-16 -23 -42.5 -45.5t-91.5 -46t-144 -23.5q-197 0 -288 125t-91 398q0 281 92 408.5t287 127.5q80 0 145.5 -27.5t91 -52t41.5 -49.5l41 109h283v-930q0 -535 -547 -535zM566 272
q91 0 128 57.5t37 205.5q0 152 -37 213t-128 61t-129 -61.5t-38 -212.5q0 -147 38 -205t129 -58z" />
    <glyph glyph-name="uni0436.ss02" horiz-adv-x="1652" 
d="M10 0l314 549l-285 504h338l207 -404h86v758l313 49v-807h86l205 404h340l-285 -504l311 -549h-352l-211 412h-94v-412h-313v412h-95l-208 -412h-357z" />
    <glyph glyph-name="uni0437.ss02" horiz-adv-x="983" 
d="M731 362q102 -45 144.5 -130t42.5 -216q0 -426 -523 -426q-96 0 -181 18.5t-130 41.5l-47 272q150 -66 313 -65q125 0 182.5 42t57.5 142q0 98 -46 139t-149 41h-200v254h182q100 0 145 41t45 131q0 86 -48 123t-157 37q-150 0 -294 -62l16 267q47 23 138 42t200 19
q467 0 467 -399q0 -228 -158 -312z" />
    <glyph glyph-name="uni0438.ss02" horiz-adv-x="1189" 
d="M457 -23q-168 0 -257 104.5t-89 276.5v695h323v-613q0 -98 35 -146t117 -48q86 0 124 48t38 146v613h323v-1053h-283l-40 111q-109 -134 -291 -134z" />
    <glyph glyph-name="uni0439.ss02" horiz-adv-x="1189" 
d="M588 1165q-164 0 -250 78t-96 211l237 43q6 -162 109 -162q100 0 106 162l238 -43q-10 -133 -96 -211t-248 -78zM457 -23q-168 0 -257 104.5t-89 276.5v695h323v-613q0 -98 35 -146t117 -48q86 0 124 48t38 146v613h323v-1053h-283l-40 111q-109 -134 -291 -134z" />
    <glyph glyph-name="uni045D.ss02" horiz-adv-x="1189" 
d="M563 1176l-338 303h353l198 -256zM457 -23q-168 0 -257 104.5t-89 276.5v695h323v-613q0 -98 35 -146t117 -48q86 0 124 48t38 146v613h323v-1053h-283l-40 111q-109 -134 -291 -134z" />
    <glyph glyph-name="uni043A.ss02" horiz-adv-x="1134" 
d="M766 0l-229 412h-101v-412h-317v1407l317 49v-797h94l222 394h352l-311 -502l337 -551h-364z" />
    <glyph glyph-name="uni043B.ss02" horiz-adv-x="1112" 
d="M1110 0h-344l-213 715l-215 -715h-336l397 1053h318z" />
    <glyph glyph-name="uni043F.ss02" horiz-adv-x="1189" 
d="M119 0v1053h282l41 -113q109 133 291 133q168 0 257 -104.5t89 -276.5v-692h-323v612q0 98 -35 146.5t-117 48.5q-86 0 -124 -48t-38 -147v-612h-323z" />
    <glyph glyph-name="uni0442.ss02" horiz-adv-x="1798" 
d="M1335 1073q172 0 262.5 -102.5t90.5 -272.5v-698h-324v618q0 94 -34 141.5t-109 47.5q-84 0 -120 -47t-36 -142v-618h-324v618q0 94 -32.5 141.5t-110.5 47.5q-84 0 -120 -47t-36 -142v-618h-323v1053h282l41 -113q104 133 283 133q201 0 283 -149q126 149 327 149z" />
    <glyph glyph-name="uni0446.ss02" 
d="M1130 274h80v-503l-284 -50v279q-61 0 -106.5 28.5t-61.5 80.5q-53 -63 -123 -96t-174 -33q-172 0 -261 103t-89 277v693h323v-617q0 -96 36 -143t118 -47q86 0 124 47t38 143v617h323v-719q0 -60 57 -60z" />
    <glyph glyph-name="uni0448.ss02" horiz-adv-x="1798" 
d="M463 -23q-172 0 -262 102.5t-90 274.5v699h323v-619q0 -94 34 -141t110 -47q82 0 118.5 47t36.5 141v619h324v-619q0 -94 32.5 -141t110.5 -47q82 0 119 47t37 141v619h323v-1053h-282l-41 111q-104 -133 -283 -134q-201 0 -282 152q-127 -152 -328 -152z" />
    <glyph glyph-name="uni0449.ss02" horiz-adv-x="1896" 
d="M1757 274h78v-503l-283 -50v279q-63 0 -108 29.5t-60 83.5q-109 -133 -294 -133q-203 0 -289 151q-129 -152 -334 -151q-172 0 -264 103t-92 275v695h323v-613q0 -98 34 -146t116 -48q84 0 121.5 49t37.5 145v613h324v-613q0 -98 35 -146t115 -48q86 0 122.5 49t36.5 145
v613h324v-719q0 -60 57 -60z" />
    <glyph glyph-name="uni044E.ss02" horiz-adv-x="1619" 
d="M1067 1073q252 0 367.5 -131t115.5 -415.5t-115.5 -415.5t-367.5 -131q-223 0 -339 102t-138 321h-152v-403h-319v1407l319 49v-801h154q25 217 139.5 317.5t335.5 100.5zM1067 244q88 0 124 62.5t36 220t-36 219t-124 61.5t-123 -61.5t-35 -219t35 -220t123 -62.5z" />
    <glyph glyph-name="Xi.aalt" horiz-adv-x="1226" 
d="M776 297h383l-53 -297h-985l-53 297h385v278h-267v295h267v269h-357l19 295h997l18 -295h-354v-269h262v-295h-262v-278z" />
    <glyph glyph-name="delta.aalt" horiz-adv-x="1118" 
d="M567 1161q244 -106 364 -268t120 -412q0 -262 -118 -383t-374 -121t-373.5 121t-117.5 383q0 238 99 361t312 137q-160 113 -340 186v269h824l28 -273h-424zM559 213q90 0 127 60.5t37 207.5t-37 210t-127 63t-127 -62.5t-37 -210.5q0 -147 37 -207.5t127 -60.5z" />
    <glyph glyph-name="phi.aalt" horiz-adv-x="1583" 
d="M950 1069q291 0 428.5 -131t137.5 -414t-137.5 -413.5t-428.5 -130.5v-369h-317v369q-289 0 -427 131t-138 413q0 283 138 414t427 131v338l317 49v-387zM383 524q0 -152 61.5 -216t202.5 -66v565q-141 0 -202.5 -65.5t-61.5 -217.5zM936 242q143 2 202.5 66.5
t59.5 215.5q0 152 -59.5 217.5t-202.5 65.5v-565z" />
    <glyph glyph-name="zero.oldstyle" horiz-adv-x="1247" 
d="M623.5 -31q-279.5 0 -411.5 159t-132 493q0 332 132 490.5t411.5 158.5t411.5 -159t132 -490q0 -334 -132 -493t-411.5 -159zM624.5 266q102.5 0 148.5 81t46 274t-46 272.5t-149.5 79.5t-149.5 -80t-46 -272q0 -190 47 -272.5t149.5 -82.5z" />
    <glyph glyph-name="one.oldstyle" horiz-adv-x="806" 
d="M45 1038l627 232v-1270h-340v831l-287 -100v307z" />
    <glyph glyph-name="two.oldstyle" horiz-adv-x="1132" 
d="M567 299h480v-299h-971v270l391 269q127 86 178 149.5t51 134.5q0 152 -217 152q-100 0 -204.5 -30t-170.5 -66l21 299q66 35 185.5 63.5t248.5 28.5q227 0 354 -101.5t127 -283.5q0 -158 -91 -279t-304 -260z" />
    <glyph glyph-name="three.oldstyle" horiz-adv-x="1126" 
d="M1053 193q0 -203 -132.5 -309.5t-377.5 -106.5q-238 0 -437 69l-47 295q186 -76 412 -75q121 0 178.5 40.5t57.5 118.5q0 82 -45.5 123t-147.5 41h-256v279h229q100 0 142.5 40t42.5 119q0 158 -217 158q-199 0 -363 -88l21 297q201 76 432 76q227 0 348 -100.5
t121 -295.5q0 -240 -174 -327q211 -84 213 -354z" />
    <glyph glyph-name="four.oldstyle" horiz-adv-x="1206" 
d="M1192 352l-49 -282h-144v-265h-311v265h-649v237l448 932h344l-432 -887h289v287h311v-287h193z" />
    <glyph glyph-name="five.oldstyle" horiz-adv-x="1146" 
d="M614 709q209 0 337 -117t128 -338q0 -233 -145.5 -356t-423.5 -123q-119 0 -228.5 19.5t-168.5 43.5l-47 309q66 -31 166 -54t198 -23q162 0 231.5 49t69.5 141q0 96 -68.5 143.5t-220.5 47.5q-176 0 -342 -50l68 838h874l-47 -287h-534l-21 -262q84 19 174 19z" />
    <glyph glyph-name="six.oldstyle" horiz-adv-x="1196" 
d="M724 928q187 0 304 -118t117 -345q0 -223 -136.5 -356.5t-373.5 -133.5q-270 0 -414.5 171t-144.5 509q0 397 177 602t486 205q66 0 130.5 -10t97.5 -20l30 -11l19 -295q-96 51 -232 52q-315 0 -364 -367q117 117 304 117zM635 252q82 0 127 55t45 154q0 96 -49 150.5
t-140 54.5q-115 0 -206 -60q12 -354 223 -354z" />
    <glyph glyph-name="seven.oldstyle" horiz-adv-x="1030" 
d="M35 1239h956v-238l-434 -1196h-348l418 1137h-592v297z" />
    <glyph glyph-name="eight.oldstyle" horiz-adv-x="1245" 
d="M911 752q135 -63 199 -149.5t64 -227.5q0 -193 -145.5 -299.5t-405.5 -106.5q-264 0 -407.5 103.5t-143.5 285.5q0 123 69.5 213.5t188.5 141.5q-111 59 -164 143t-53 213q0 188 134 291.5t376 103.5q244 0 377 -99t133 -280q0 -113 -60 -197.5t-162 -135.5zM618 1196
q-84 0 -133 -36t-49 -97.5t39 -100t143 -83.5l70 -29q115 76 115 192q0 70 -50.5 112t-134.5 42zM621 242q92 0 147 41t55 106q0 66 -41 104.5t-155 88.5l-74 30q-137 -76 -137 -204q0 -76 56.5 -121t148.5 -45z" />
    <glyph glyph-name="nine.oldstyle" horiz-adv-x="1196" 
d="M561 1270q268 0 413.5 -172t145.5 -510q0 -399 -177 -604t-484 -205q-145 0 -244 33l-45 305q31 -18 97.5 -36t144.5 -18q317 0 364 375q-123 -125 -303 -125q-188 0 -306 119t-118 346q0 223 137 357.5t375 134.5zM387 782q0 -96 50 -150t143 -54q109 0 204 59
q-12 356 -221 356q-82 0 -129 -56.5t-47 -154.5z" />
    <glyph glyph-name="zero.sinf" horiz-adv-x="780" 
d="M390 -221q-169 0 -250 97t-81 302t81 302.5t250 97.5t249 -97.5t80 -302.5t-80 -302t-249 -97zM390 -27q54 0 75.5 42t21.5 163t-21.5 163t-75.5 42t-76.5 -42t-22.5 -163t22.5 -163t76.5 -42z" />
    <glyph glyph-name="one.sinf" horiz-adv-x="528" 
d="M190 -205v492l-149 -47v213l379 120v-778h-230z" />
    <glyph glyph-name="two.sinf" horiz-adv-x="720" 
d="M375 -14h278v-191h-594v180l250 185q61 47 84 78.5t23 70.5q0 76 -97 76q-72 0 -143.5 -23.5t-101.5 -39.5l12 196q141 61 285 60q131 0 204.5 -64.5t73.5 -179.5q0 -88 -49 -160t-156 -141z" />
    <glyph glyph-name="three.sinf" horiz-adv-x="724" 
d="M541 195q127 -49 127 -193q0 -223 -322 -223q-76 0 -142.5 11t-92.5 22l-29 12l-33 209q4 -4 35 -17.5t96.5 -31t128.5 -17.5q70 0 98.5 17.5t28.5 52.5q0 61 -80 61h-163v166h145q76 0 76 60q0 33 -22.5 49t-80.5 16q-27 0 -53.5 -3t-49 -9t-43 -12.5t-35.5 -13.5
t-27.5 -12t-18.5 -9l-6 -4l12 196q10 6 30.5 15.5t88 25t143.5 15.5q137 0 215 -52.5t78 -160.5q0 -119 -104 -170z" />
    <glyph glyph-name="four.sinf" horiz-adv-x="749" 
d="M418 -205v127h-385v156l276 485h230l-265 -461h144v154h209v-154h98l-33 -180h-65v-127h-209z" />
    <glyph glyph-name="five.sinf" horiz-adv-x="716" 
d="M324 -221q-63 0 -123 10t-86 21l-27 10l-31 207q102 -59 234 -60q74 0 105.5 21.5t31.5 64.5q0 82 -137 82q-55 0 -111.5 -8t-83.5 -16l-28 -9l43 461h524l-31 -180h-313l-10 -109q57 14 122 15q121 0 191 -61.5t70 -180.5q0 -133 -87 -200.5t-253 -67.5z" />
    <glyph glyph-name="six.sinf" horiz-adv-x="751" 
d="M459 293q117 0 180 -62.5t63 -177.5q0 -131 -83.5 -202.5t-233.5 -71.5q-156 0 -242 90t-86 278q0 205 104.5 315.5t274.5 115.5q90 2 166 -19l35 -192q-72 31 -158 30q-176 0 -207 -170q70 66 187 66zM387 -41q94 0 94 88q0 43 -26.5 65.5t-71.5 22.5q-70 0 -115 -39
q6 -76 36 -106.5t83 -30.5z" />
    <glyph glyph-name="seven.sinf" horiz-adv-x="638" 
d="M35 563h567v-168l-252 -600h-235l245 576h-325v192z" />
    <glyph glyph-name="eight.sinf" horiz-adv-x="763" 
d="M590 207q119 -57 119 -191q0 -111 -88.5 -174t-237.5 -63q-152 0 -240 58.5t-88 158.5q0 123 119 176q-94 57 -94 174q0 109 79 170.5t224 61.5q143 0 222 -56.5t79 -154.5q0 -109 -94 -160zM383 401q-90 0 -90 -61q0 -35 33.5 -51.5t103.5 -32.5q41 33 41 76
q0 69 -88 69zM383 -45q47 0 72.5 18.5t25.5 51.5q0 20 -10 34.5t-36.5 24.5t-44 15t-58.5 16q-47 -35 -47 -82q0 -78 98 -78z" />
    <glyph glyph-name="nine.sinf" horiz-adv-x="749" 
d="M365 594q156 0 241.5 -90t85.5 -279q0 -207 -103.5 -317.5t-273.5 -112.5q-43 0 -85 5t-62 12l-21 6l-41 190q76 -33 166 -33q176 0 207 168q-70 -63 -186 -63q-119 0 -182.5 62.5t-63.5 176.5q0 131 84 203t234 72zM268 326q0 -43 27 -65.5t74 -22.5q70 0 114 38
q-6 76 -36.5 107t-81.5 31q-97 0 -97 -88z" />
    <glyph glyph-name="zero.tnum" 
d="M635 -31q-289 0 -415 175t-126 572.5t126 572.5t415 175q287 0 414 -175t127 -572.5t-127 -572.5t-414 -175zM635 262q115 0 157 94.5t42 360.5q0 182 -19.5 279.5t-60.5 136t-119 38.5t-120 -38.5t-60.5 -136t-18.5 -279.5q0 -266 42 -360.5t157 -94.5z" />
    <glyph glyph-name="one.tnum" 
d="M870 299h322v-299h-1038v299h378v727l-380 -121v305l718 254v-1165z" />
    <glyph glyph-name="two.tnum" 
d="M586 295h518v-295h-963v238l402 385q127 125 172 203.5t45 164.5q0 178 -217 178q-100 0 -205 -29.5t-170 -66.5l20 299q68 35 183.5 63.5t240.5 28.5q236 0 364 -113.5t128 -316.5q0 -152 -75 -282.5t-271 -307.5z" />
    <glyph glyph-name="three.tnum" 
d="M1122 387q2 -203 -130 -309.5t-380 -106.5q-236 0 -434 70l-49 295q188 -76 414 -76q236 0 233 160q0 82 -45 123t-145 41h-256v278h229q98 0 140 40t42 120q0 158 -217 158q-199 0 -360 -88l18 297q201 76 434 75q227 0 348 -100t121 -295q0 -240 -174 -328
q209 -84 211 -354z" />
    <glyph glyph-name="four.tnum" 
d="M1217 545l-46 -281h-131v-264h-311v264h-657v238l434 932h344l-410 -889h289v289h311v-289h177z" />
    <glyph glyph-name="five.tnum" 
d="M676 903q209 0 337 -116.5t128 -337.5q0 -233 -144.5 -356.5t-423.5 -123.5q-121 0 -229 19.5t-170 44.5l-47 309q66 -31 166 -54.5t199 -23.5q162 0 231.5 49t69.5 142q0 96 -69 143t-220 47q-176 0 -342 -49l67 838h875l-47 -287h-535l-20 -262q84 18 174 18z" />
    <glyph glyph-name="six.tnum" 
d="M760.5 928q187.5 0 304.5 -118t117 -345q0 -223 -136.5 -356.5t-373.5 -133.5q-270 0 -415.5 171t-145.5 509q0 397 177 602t488 205q66 0 130.5 -10t94.5 -20l33 -11l19 -295q-96 51 -232 52q-315 0 -364 -367q116 117 303.5 117zM672 252q82 0 127 55t45 154
q0 96 -49.5 150.5t-139.5 54.5q-115 0 -206 -60q12 -354 223 -354z" />
    <glyph glyph-name="seven.tnum" 
d="M115 1434h1034v-238l-475 -1196h-348l452 1137h-663v297z" />
    <glyph glyph-name="eight.tnum" 
d="M924 752q135 -63 198.5 -149.5t63.5 -227.5q0 -193 -144.5 -299.5t-404.5 -106.5q-266 0 -409.5 103.5t-143.5 285.5q0 123 69.5 213.5t188.5 141.5q-111 59 -164 143t-53 213q0 188 134 291.5t378 103.5t376 -99t132 -280q0 -113 -59.5 -197.5t-161.5 -135.5zM631 1196
q-84 0 -133 -36t-49 -97.5t38.5 -100t145.5 -83.5l67 -29q115 76 115 192q0 70 -50 112t-134 42zM635 242q92 0 146.5 41t54.5 106q0 66 -41 104.5t-156 88.5l-74 30q-135 -76 -135 -204q0 -76 55.5 -121t149.5 -45z" />
    <glyph glyph-name="nine.tnum" 
d="M598 1464q270 0 414.5 -172t144.5 -510q0 -399 -177 -604t-482 -205q-147 0 -246 33l-43 305q31 -18 97.5 -35.5t144.5 -17.5q315 0 364 375q-125 -125 -305 -125q-188 0 -305 118.5t-117 346.5q0 223 136 357t374 134zM426 977q0 -96 50 -150.5t140 -54.5q111 0 205 59
q-12 356 -221 357q-82 0 -128 -56.5t-46 -154.5z" />
    <glyph glyph-name="zero.tnum.oldstyle" 
d="M633.5 -31q-279.5 0 -411.5 159t-132 493q0 332 133 490.5t411.5 158.5t411 -159t132.5 -490q0 -334 -132.5 -493t-412 -159zM634.5 266q102.5 0 148.5 81t46 274t-46 272.5t-148.5 79.5t-149.5 -80t-47 -272q0 -190 47 -272.5t149.5 -82.5z" />
    <glyph glyph-name="one.tnum.oldstyle" 
d="M870 301h320v-301h-1038v301h380v535l-380 -121v301l718 254v-969z" />
    <glyph glyph-name="two.tnum.oldstyle" 
d="M635 299h479v-299h-969v270l390 269q127 86 178 149.5t51 134.5q0 152 -217 152q-100 0 -203.5 -30t-169.5 -66l19 299q68 35 186.5 63.5t249.5 28.5q227 0 353 -101.5t126 -283.5q0 -158 -90 -279t-305 -260z" />
    <glyph glyph-name="three.tnum.oldstyle" 
d="M1124 193q2 -203 -130 -309.5t-380 -106.5q-236 0 -434 69l-49 295q188 -76 414 -75q236 0 233 159q0 82 -45 123t-145 41h-256v279h229q98 0 140 40t42 119q0 158 -217 158q-199 0 -362 -88l20 297q201 76 434 76q227 0 348 -100.5t121 -295.5q0 -240 -174 -327
q209 -84 211 -354z" />
    <glyph glyph-name="four.tnum.oldstyle" 
d="M1217 545l-48 -281h-129v-264h-313v264h-655v238l434 932h342l-408 -889h287v289h313v-289h177z" />
    <glyph glyph-name="five.tnum.oldstyle" 
d="M674 709q209 0 338 -117t129 -338q0 -233 -145.5 -356t-424.5 -123q-119 0 -228.5 19.5t-170.5 43.5l-47 309q68 -31 168 -54t196 -23q164 0 234 49t70 141q0 96 -69 143.5t-222 47.5q-176 0 -342 -50l67 838h875l-45 -287h-535l-22 -262q86 19 174 19z" />
    <glyph glyph-name="six.tnum.oldstyle" 
d="M761.5 928q186.5 0 303.5 -118t117 -345q0 -223 -136.5 -356.5t-371.5 -133.5q-272 0 -416.5 171t-144.5 509q0 397 177 602t486 205q66 0 130.5 -10t97.5 -20l30 -11l19 -295q-94 51 -232 52q-315 0 -364 -367q118 117 304.5 117zM674 252q80 0 125 55t45 154
q0 96 -48 150.5t-139 54.5q-115 0 -208 -60q12 -354 225 -354z" />
    <glyph glyph-name="seven.tnum.oldstyle" 
d="M115 1239h1034v-238l-473 -1196h-350l452 1137h-663v297z" />
    <glyph glyph-name="eight.tnum.oldstyle" 
d="M924 752q135 -63 198.5 -149.5t63.5 -227.5q0 -193 -144.5 -299.5t-404.5 -106.5q-266 0 -409.5 103.5t-143.5 285.5q0 123 69.5 213.5t188.5 141.5q-111 59 -164 143t-53 213q0 188 134 291.5t378 103.5t376 -99t132 -280q0 -113 -59.5 -197.5t-161.5 -135.5zM631 1196
q-84 0 -133 -36t-49 -97.5t38.5 -100t145.5 -83.5l67 -29q115 76 115 192q0 70 -50 112t-134 42zM635 242q92 0 146.5 41t54.5 106q0 66 -41 104.5t-156 88.5l-74 30q-135 -76 -135 -204q0 -76 55.5 -121t149.5 -45z" />
    <glyph glyph-name="nine.tnum.oldstyle" 
d="M598 1270q270 0 414.5 -172t144.5 -510q0 -399 -177 -604t-484 -205q-145 0 -244 33l-43 305q29 -18 96.5 -36t143.5 -18q317 0 364 375q-123 -125 -303 -125q-188 0 -305 119t-117 346q0 223 136 357.5t374 134.5zM426 782q0 -96 49 -150t141 -54q109 0 205 59
q-12 356 -221 356q-82 0 -128 -56.5t-46 -154.5z" />
    <glyph glyph-name="zero.dnom" horiz-adv-x="780" 
d="M390 -14q-169 0 -250 97t-81 302t81 302t250 97t249 -97t80 -302t-80 -302t-249 -97zM390 180q54 0 75.5 42t21.5 163t-21.5 163t-75.5 42t-76.5 -42t-22.5 -163t22.5 -163t76.5 -42z" />
    <glyph glyph-name="one.dnom" horiz-adv-x="528" 
d="M190 0v492l-149 -48v213l379 121v-778h-230z" />
    <glyph glyph-name="two.dnom" horiz-adv-x="720" 
d="M375 190h278v-190h-594v180l250 185q61 47 84 78.5t23 70.5q0 76 -97 76q-72 0 -143.5 -23.5t-101.5 -40.5l12 197q141 61 285 59q131 0 204.5 -64.5t73.5 -178.5q0 -88 -49 -160t-156 -141z" />
    <glyph glyph-name="three.dnom" horiz-adv-x="724" 
d="M541 399q127 -49 127 -192q0 -223 -322 -223q-76 0 -142.5 11t-92.5 21l-29 13l-33 209q4 -4 35 -17.5t96.5 -31t128.5 -17.5q70 0 98.5 17.5t28.5 52.5q0 61 -80 61h-163v166h145q76 0 76 59q0 33 -22.5 49.5t-80.5 16.5q-27 0 -53.5 -3t-49 -9.5t-43 -12.5t-35.5 -13
t-27.5 -12t-18.5 -10l-6 -4l12 197q10 6 30.5 15.5t88 24.5t143.5 15q137 0 215 -52t78 -161q0 -119 -104 -170z" />
    <glyph glyph-name="four.dnom" horiz-adv-x="749" 
d="M418 0v127h-385v156l276 485h230l-265 -461h144v154h209v-154h98l-33 -180h-65v-127h-209z" />
    <glyph glyph-name="five.dnom" horiz-adv-x="716" 
d="M324 -16q-63 0 -123 10t-86 20l-27 11l-31 206q102 -59 234 -59q74 0 105.5 21.5t31.5 64.5q0 82 -137 82q-55 0 -111.5 -8t-83.5 -17l-28 -8l43 461h524l-31 -180h-313l-10 -109q57 14 122 15q121 0 191 -61.5t70 -180.5q0 -133 -87 -200.5t-253 -67.5z" />
    <glyph glyph-name="six.dnom" horiz-adv-x="751" 
d="M459 498q117 0 180 -62.5t63 -177.5q0 -131 -83.5 -202.5t-233.5 -71.5q-156 0 -242 90t-86 278q0 205 104.5 315.5t274.5 114.5q90 2 166 -18l35 -193q-72 31 -158 31q-176 0 -207 -170q70 66 187 66zM387 164q94 0 94 88q0 43 -26.5 65.5t-71.5 22.5q-70 0 -115 -39
q6 -76 36 -106.5t83 -30.5z" />
    <glyph glyph-name="seven.dnom" horiz-adv-x="638" 
d="M35 768h567v-168l-252 -600h-235l245 575h-325v193z" />
    <glyph glyph-name="eight.dnom" horiz-adv-x="763" 
d="M590 412q119 -57 119 -191q0 -111 -88.5 -174t-237.5 -63q-152 0 -240 58t-88 159q0 123 119 176q-94 57 -94 174q0 109 79 170t224 61q143 0 222 -56t79 -155q0 -108 -94 -159zM383 606q-90 0 -90 -61q0 -35 33.5 -51.5t103.5 -32.5q41 33 41 76q0 69 -88 69zM383 160
q47 0 72.5 18.5t25.5 50.5q0 20 -10 35t-36.5 25t-44 15t-58.5 15q-47 -35 -47 -81q0 -78 98 -78z" />
    <glyph glyph-name="nine.dnom" horiz-adv-x="749" 
d="M365 782q156 0 241.5 -90t85.5 -278q0 -207 -103.5 -317.5t-273.5 -112.5q-43 0 -85 5t-62 11l-21 6l-41 191q76 -33 166 -33q176 0 207 168q-70 -63 -186 -64q-119 0 -182.5 62.5t-63.5 177.5q0 131 84 202.5t234 71.5zM268 514q0 -43 27 -65.5t74 -22.5q70 0 114 39
q-6 76 -36.5 106.5t-81.5 30.5q-97 0 -97 -88z" />
    <glyph glyph-name="zero.numr" horiz-adv-x="780" 
d="M390 651q-169 0 -250 97.5t-81 302t81 302t250 97.5t249 -97.5t80 -302t-80 -302t-249 -97.5zM390 846q54 0 75.5 42t21.5 162.5t-21.5 162.5t-75.5 42t-76.5 -42t-22.5 -162.5t22.5 -162.5t76.5 -42z" />
    <glyph glyph-name="one.numr" horiz-adv-x="528" 
d="M190 666v491l-149 -47v213l379 121v-778h-230z" />
    <glyph glyph-name="two.numr" horiz-adv-x="720" 
d="M375 856h278v-190h-594v180l250 184q61 47 84 79t23 71q0 76 -97 75q-72 0 -143.5 -23.5t-101.5 -39.5l12 197q141 61 285 59q131 0 204.5 -64.5t73.5 -179.5q0 -88 -49 -159.5t-156 -141.5z" />
    <glyph glyph-name="three.numr" horiz-adv-x="724" 
d="M541 1067q127 -49 127 -193q0 -223 -322 -223q-76 0 -142.5 11.5t-92.5 21.5l-29 12l-33 209q4 -4 35 -17.5t96.5 -30.5t128.5 -17q70 0 98.5 17t28.5 52q0 61 -80 62h-163v166h145q76 0 76 59q0 33 -22.5 49.5t-80.5 16.5q-27 0 -53.5 -3.5t-49 -9.5t-43 -12t-35.5 -13
t-27.5 -12.5t-18.5 -9.5l-6 -4l12 197q10 6 30.5 15t88 24.5t143.5 15.5q137 0 215 -52t78 -161q0 -119 -104 -170z" />
    <glyph glyph-name="four.numr" horiz-adv-x="749" 
d="M418 666v127h-385v155l276 486h230l-265 -461h144v153h209v-153h98l-33 -180h-65v-127h-209z" />
    <glyph glyph-name="five.numr" horiz-adv-x="716" 
d="M324 649q-63 0 -123 10.5t-86 20.5l-27 10l-31 207q102 -59 234 -59q74 0 105.5 21.5t31.5 64.5q0 82 -137 82q-55 0 -111.5 -8.5t-83.5 -16.5l-28 -8l43 461h524l-31 -181h-313l-10 -108q57 14 122 14q121 0 191 -61.5t70 -179.5q0 -133 -87 -201t-253 -68z" />
    <glyph glyph-name="six.numr" horiz-adv-x="751" 
d="M459 1163q117 0 180 -62.5t63 -176.5q0 -131 -83.5 -203t-233.5 -72q-156 0 -242 90t-86 279q0 205 104.5 315.5t274.5 114.5q90 2 166 -18l35 -193q-72 31 -158 31q-176 0 -207 -170q70 65 187 65zM387 829q94 0 94 89q0 43 -26.5 65.5t-71.5 22.5q-70 0 -115 -39
q6 -76 36 -107t83 -31z" />
    <glyph glyph-name="seven.numr" horiz-adv-x="638" 
d="M35 1434h567v-168l-252 -600h-235l245 575h-325v193z" />
    <glyph glyph-name="eight.numr" horiz-adv-x="763" 
d="M590 1079q119 -57 119 -190q0 -111 -88.5 -174.5t-237.5 -63.5q-152 0 -240 58.5t-88 158.5q0 123 119 176q-94 57 -94 175q0 109 79 170t224 61q143 0 222 -56.5t79 -154.5q0 -109 -94 -160zM383 1274q-90 0 -90 -62q0 -35 33.5 -51t103.5 -33q41 33 41 76q0 70 -88 70z
M383 827q47 0 72.5 18.5t25.5 51.5q0 20 -10 34.5t-36.5 25t-44 15.5t-58.5 15q-47 -35 -47 -82q0 -78 98 -78z" />
    <glyph glyph-name="nine.numr" horiz-adv-x="749" 
d="M365 1460q156 0 241.5 -90t85.5 -278q0 -207 -103.5 -317.5t-273.5 -112.5q-43 0 -85 5t-62 11l-21 6l-41 190q76 -33 166 -32q176 0 207 168q-70 -63 -186 -64q-119 0 -182.5 62.5t-63.5 177.5q0 129 84 201.5t234 72.5zM268 1192q0 -43 27 -65.5t74 -22.5q70 0 114 39
q-6 76 -36.5 106.5t-81.5 30.5q-97 0 -97 -88z" />
    <glyph glyph-name="zero.superior" horiz-adv-x="780" 
d="M390 856q-169 0 -250 97.5t-81 302t81 302t250 97.5t249 -97.5t80 -302t-80 -302t-249 -97.5zM390 1051q54 0 75.5 42t21.5 162.5t-21.5 162.5t-75.5 42t-76.5 -42t-22.5 -162.5t22.5 -162.5t76.5 -42z" />
    <glyph glyph-name="one.superior" horiz-adv-x="528" 
d="M190 870v492l-149 -47v213l379 121v-779h-230z" />
    <glyph glyph-name="two.superior" horiz-adv-x="720" 
d="M375 1061h278v-191h-594v181l250 184q61 47 84 79t23 70q0 76 -97 76q-72 0 -143.5 -23.5t-101.5 -39.5l12 196q141 61 285 60q131 0 204.5 -64.5t73.5 -179.5q0 -88 -49 -159.5t-156 -141.5z" />
    <glyph glyph-name="three.superior" horiz-adv-x="724" 
d="M541 1272q127 -49 127 -193q0 -223 -322 -223q-76 0 -142.5 11.5t-92.5 21.5l-29 12l-33 209q4 -4 35 -17.5t96.5 -31t128.5 -17.5q70 0 98.5 17.5t28.5 52.5q0 61 -80 62h-163v165h145q76 0 76 60q0 33 -22.5 49t-80.5 16q-27 0 -53.5 -3t-49 -9t-43 -12t-35.5 -13.5
t-27.5 -12.5t-18.5 -9l-6 -4l12 196q10 6 30.5 15.5t88 25t143.5 15.5q137 0 215 -52.5t78 -160.5q0 -119 -104 -170z" />
    <glyph glyph-name="four.superior" horiz-adv-x="749" 
d="M418 870v127h-385v156l276 485h230l-265 -460h144v153h209v-153h98l-33 -181h-65v-127h-209z" />
    <glyph glyph-name="five.superior" horiz-adv-x="716" 
d="M324 854q-63 0 -123 10t-86 21l-27 10l-31 207q102 -59 234 -60q74 0 105.5 21.5t31.5 64.5q0 82 -137 82q-55 0 -111.5 -8t-83.5 -16l-28 -8l43 460h524l-31 -180h-313l-10 -108q57 14 122 14q121 0 191 -61.5t70 -180.5q0 -133 -87 -200.5t-253 -67.5z" />
    <glyph glyph-name="six.superior" horiz-adv-x="751" 
d="M459 1368q117 0 180 -62.5t63 -177.5q0 -131 -83.5 -202.5t-233.5 -71.5q-156 0 -242 90t-86 279q0 205 104.5 315.5t274.5 114.5q90 2 166 -19l35 -192q-72 31 -158 31q-176 0 -207 -170q70 65 187 65zM387 1034q94 0 94 88q0 43 -26.5 65.5t-71.5 22.5q-70 0 -115 -39
q6 -76 36 -106.5t83 -30.5z" />
    <glyph glyph-name="seven.superior" horiz-adv-x="638" 
d="M35 1638h567v-168l-252 -600h-235l245 576h-325v192z" />
    <glyph glyph-name="eight.superior" horiz-adv-x="763" 
d="M590 1284q119 -57 119 -190q0 -111 -88.5 -174.5t-237.5 -63.5q-152 0 -240 58.5t-88 158.5q0 123 119 176q-94 57 -94 174q0 109 79 170.5t224 61.5q143 0 222 -56.5t79 -154.5q0 -109 -94 -160zM383 1479q-90 0 -90 -62q0 -35 33.5 -51t103.5 -33q41 33 41 76
q0 70 -88 70zM383 1032q47 0 72.5 18.5t25.5 51.5q0 20 -10 34.5t-36.5 24.5t-44 15.5t-58.5 15.5q-47 -35 -47 -82q0 -78 98 -78z" />
    <glyph glyph-name="nine.superior" horiz-adv-x="749" 
d="M365 1669q156 0 241.5 -90t85.5 -279q0 -207 -103.5 -317.5t-273.5 -112.5q-43 0 -85 5.5t-62 11.5l-21 6l-41 190q76 -33 166 -32q176 0 207 168q-70 -63 -186 -64q-119 0 -182.5 62.5t-63.5 177.5q0 131 84 202.5t234 71.5zM268 1401q0 -43 27 -65.5t74 -22.5
q70 0 114 39q-6 76 -36.5 106.5t-81.5 30.5q-97 0 -97 -88z" />
    <glyph glyph-name="parenleft.aalt" horiz-adv-x="671" 
d="M428 -229q-25 20 -61.5 64t-91 134t-99.5 193.5t-77.5 252t-32.5 302t32.5 302t77.5 252t99.5 193.5t91 134t61.5 65l246 -47q-23 -20 -52.5 -60t-78.5 -126.5t-88 -184.5t-69 -239.5t-30 -288.5t30 -289.5t69 -240t88 -183.5t78.5 -126t52.5 -60z" />
    <glyph glyph-name="parenright.aalt" horiz-adv-x="671" 
d="M244 -229l-246 47q20 20 51 60t80 126t88 183.5t67.5 239.5t28.5 290q0 147 -28.5 288.5t-67.5 239.5t-88 184.5t-80 126t-51 60.5l246 47q25 -20 60.5 -64.5t91 -134.5t100.5 -193.5t77.5 -252t32.5 -302t-32.5 -302t-77.5 -252t-100.5 -193.5t-91 -134t-60.5 -64z" />
    <glyph glyph-name="braceleft.aalt" horiz-adv-x="733" 
d="M483 979q0 -213 -174 -260q174 -49 174 -262v-305q0 -72 30 -103t97 -31h76v-235h-94q-197 0 -289 86t-92 272v322q0 72 -27.5 102.5t-93.5 30.5h-55v244h55q66 0 93.5 30.5t27.5 102.5v319q0 186 93 272.5t294 86.5h88v-236h-76q-68 0 -97.5 -30.5t-29.5 -102.5v-303z
" />
    <glyph glyph-name="braceright.aalt" horiz-adv-x="733" 
d="M643 840h55v-244h-55q-66 0 -93.5 -30.5t-27.5 -102.5v-322q0 -186 -91 -272t-290 -86h-94v235h76q68 0 97.5 31t29.5 103v305q0 213 174 262q-174 47 -174 260v303q0 72 -30 102.5t-97 30.5h-76v236h88q201 0 294 -86t93 -273v-319q0 -72 27.5 -102.5t93.5 -30.5z" />
    <glyph glyph-name="bracketleft.aalt" horiz-adv-x="708" 
d="M137 -217v1868h525v-238h-250v-1393h250v-237h-525z" />
    <glyph glyph-name="bracketright.aalt" horiz-adv-x="708" 
d="M569 -217h-522v237h250v1393h-250v238h522v-1868z" />
    <glyph glyph-name="hyphen.aalt" horiz-adv-x="772" 
d="M106 588v266h560v-266h-560z" />
    <glyph glyph-name="endash.aalt" horiz-adv-x="1138" 
d="M109 594v252h923v-252h-923z" />
    <glyph glyph-name="emdash.aalt" horiz-adv-x="1732" 
d="M109 594v252h1517v-252h-1517z" />
    <glyph glyph-name="guillemotleft.aalt" horiz-adv-x="1118" 
d="M313 315l-258 406l258 403h271l-211 -403l211 -406h-271zM770 315l-258 406l258 403h268l-209 -403l209 -406h-268z" />
    <glyph glyph-name="guillemotright.aalt" horiz-adv-x="1118" 
d="M348 315h-270l211 406l-211 403h270l256 -403zM805 315h-270l208 406l-208 403h270l256 -403z" />
    <glyph glyph-name="guilsinglleft.aalt" horiz-adv-x="661" 
d="M313 315l-258 406l258 403h271l-211 -403l211 -406h-271z" />
    <glyph glyph-name="guilsinglright.aalt" horiz-adv-x="661" 
d="M348 315h-270l211 406l-211 403h270l256 -403z" />
    <glyph glyph-name="cent.aalt" 
d="M1053 305l-47 -274q-61 -31 -172 -45v-191h-252v195q-182 35 -271.5 166t-89.5 368q0 238 89 371t272 166v168h252v-162q111 -14 174 -47l16 -266q-123 57 -256 57q-115 0 -167 -66.5t-52 -220.5q0 -150 53 -215t170 -65q148 0 281 61z" />
    <glyph glyph-name="currency.aalt" 
d="M1087 524q0 -123 -57 -223l139 -141l-174 -172l-141 143q-100 -51 -219 -51t-217 49l-142 -141l-176 172l138 141q-57 100 -58 223q0 123 58 226l-142 139l174 170l142 -141q100 51 223 51q121 0 221 -54l143 144l172 -172l-141 -139q57 -101 57 -224zM453 524
q0 -82 51 -134t131 -52q78 0 129 53t51 133q0 82 -50 134.5t-130 52.5t-131 -52.5t-51 -134.5z" />
    <glyph glyph-name="dollar.aalt" 
d="M1161 418q0 -186 -105.5 -301t-312.5 -142v-180h-251v180q-84 8 -164 24.5t-117 31.5l-37 12l-45 313q27 -10 72 -25.5t170 -40t229 -24.5q102 0 153.5 38t51.5 108q0 59 -39 93t-135 58l-168 43q-172 45 -255 147.5t-83 280.5q0 170 94 279.5t273 140.5v172h251v-164
q90 -6 171 -22.5t116 -30.5l37 -12l16 -303q-20 8 -57 22t-146.5 37t-209.5 23q-92 0 -140.5 -36t-48.5 -98q0 -59 38 -94t130 -59l170 -43q172 -45 257 -145.5t85 -282.5z" />
    <glyph glyph-name="Euro.aalt" 
d="M885 264q88 0 176 27.5t143 62.5l-47 -317q-51 -27 -138 -47.5t-179 -20.5q-492 0 -582 488h-197v213h177v47v57h-179v213h201q94 477 580 477q90 0 179 -22.5t142 -48.5l19 -301q-49 29 -131 53t-164 24q-104 0 -170 -43t-97 -139h369l-33 -213h-368q-2 -27 -2 -57
q0 -25 2 -47h350l-33 -213h-289q31 -100 96.5 -146.5t174.5 -46.5z" />
    <glyph glyph-name="florin.aalt" horiz-adv-x="835" 
d="M805 1188q-74 0 -118 -44t-64 -153l-11 -63h203l-43 -252h-205l-114 -660q-74 -426 -447 -426q-123 0 -192 37l2 271q57 -39 137 -39q76 0 119 45t63 153l109 619h-205l45 252h205l18 104q72 426 445 426q125 0 194 -37l-2 -270q-57 37 -139 37z" />
    <glyph glyph-name="uni20BD.aalt" 
d="M248 0v225h-166v219h166v113h-166v221h166v656h475q250 0 375 -117t125 -332q0 -209 -125 -321.5t-375 -112.5h-139v-107h409v-219h-409v-225h-336zM584 784h125q94 0 142 47.5t48 133.5t-48 134t-142 48h-125v-363z" />
    <glyph glyph-name="sterling.aalt" 
d="M555 287h631v-287h-1088v287q92 0 133 40t41 128v147h-174v238h174v125q0 244 130 371.5t370 127.5q94 0 183 -16t132 -33l43 -16l21 -301q-16 8 -45 20t-115 31.5t-168 19.5q-115 0 -162 -49t-47 -153v-127h355v-238h-355v-147q0 -115 -59 -168z" />
    <glyph glyph-name="yen.aalt" 
d="M1239 1434l-377 -707h201v-213h-264v-108h264v-213h-264v-193h-328v193h-264v213h264v108h-264v213h201l-379 707h379l231 -523l231 523h369z" />
    <glyph glyph-name="plus.aalt" 
d="M1139 840v-267h-369v-370h-270v370h-369v267h369v370h270v-370h369z" />
    <glyph glyph-name="minus.aalt" 
d="M131 573v267h1008v-267h-1008z" />
    <glyph glyph-name="multiply.aalt" 
d="M1114 1001l-295 -294l295 -293l-184 -187l-295 295l-295 -295l-184 187l295 293l-295 294l184 187l295 -295l295 295z" />
    <glyph glyph-name="divide.aalt" 
d="M492 985v250h286v-250h-286zM131 573v267h1008v-267h-1008zM492 178v250h286v-250h-286z" />
    <glyph glyph-name="equal.aalt" 
d="M131 813v258h1008v-258h-1008zM131 342v258h1008v-258h-1008z" />
    <glyph glyph-name="notequal.aalt" 
d="M1139 813h-357l-104 -213h461v-258h-588l-78 -160h-190l77 160h-229v258h356l105 213h-461v258h588l78 160h190l-78 -160h230v-258z" />
    <glyph glyph-name="greater.aalt" 
d="M223 1231l854 -365v-299l-854 -364v299l537 215l-537 215v299z" />
    <glyph glyph-name="less.aalt" 
d="M1047 1231v-299l-537 -215l537 -215v-299l-854 364v299z" />
    <glyph glyph-name="greaterequal.aalt" 
d="M215 1260l848 -267v-274l-848 -266v262l481 141l-481 141v263zM215 139v252h848v-252h-848z" />
    <glyph glyph-name="lessequal.aalt" 
d="M1055 1260v-263l-482 -141l482 -141v-262l-848 266v274zM207 139v252h848v-252h-848z" />
    <glyph glyph-name="plusminus.aalt" 
d="M770 1004h360v-252h-360v-244h-270v244h-361v252h361v258h270v-258zM139 150v256h991v-256h-991z" />
    <glyph glyph-name="approxequal.aalt" 
d="M883 735q-74 0 -164 32t-164 64.5t-109 32.5q-41 0 -59 -27.5t-18 -93.5h-242q-2 373 272 373q78 0 167 -32.5t161 -65.5t111 -33q78 0 77 123h242q0 -373 -274 -373zM883 297q-74 0 -164 31.5t-164 64.5t-109 33q-41 0 -59 -27.5t-18 -93.5h-242q-2 373 272 373
q78 0 167 -33t161 -65.5t111 -32.5q78 0 77 123h242q0 -373 -274 -373z" />
    <glyph glyph-name="asciitilde.aalt" 
d="M885 510q-76 0 -165 32.5t-161 64.5t-106 32q-39 0 -57.5 -27.5t-18.5 -91.5h-248q-2 385 272 385q80 0 167 -31.5t157 -64.5t106 -33q78 0 78 121h248q0 -201 -67.5 -294t-204.5 -93z" />
    <glyph glyph-name="logicalnot.aalt" 
d="M1135 842v-639h-267v370h-745v269h1012z" />
    <glyph glyph-name="uni0308.aalt" horiz-adv-x="0" 
d="M-729 1577v244h270v-244h-270zM-309 1577v244h268v-244h-268z" />
    <glyph glyph-name="uni0307.aalt" horiz-adv-x="0" 
d="M-360 1575v248h315v-248h-315z" />
    <glyph glyph-name="gravecomb.aalt" horiz-adv-x="0" 
d="M-256 1554l-338 304h352l201 -256z" />
    <glyph glyph-name="acutecomb.aalt" horiz-adv-x="0" 
d="M-338 1556l-213 50l201 254h350z" />
    <glyph glyph-name="uni030B.aalt" horiz-adv-x="0" 
d="M-694 1556l-168 46l180 258h285zM-338 1556l-168 46l178 258h287z" />
    <glyph glyph-name="uni0302.aalt" horiz-adv-x="0" 
d="M-621 1556l-184 50l234 254h299l233 -254l-184 -50l-201 142z" />
    <glyph glyph-name="uni030C.aalt" horiz-adv-x="0" 
d="M-621 1860l197 -140l201 140l184 -48l-233 -256h-299l-234 256z" />
    <glyph glyph-name="uni0306.aalt" horiz-adv-x="0" 
d="M-385 1546q-164 0 -249 79t-97 210l237 43q6 -160 109 -160q102 0 106 160l240 -43q-12 -131 -97 -210t-249 -79z" />
    <glyph glyph-name="uni030A.aalt" horiz-adv-x="0" 
d="M-299 1546q-113 0 -186.5 65.5t-73.5 174.5q0 111 73.5 177.5t186.5 66.5t185.5 -67t72.5 -177q0 -109 -72.5 -174.5t-185.5 -65.5zM-299 1690q45 0 71.5 25.5t26.5 70.5q0 47 -26.5 73.5t-71.5 26.5q-47 0 -73.5 -26.5t-26.5 -73.5q0 -45 26.5 -70.5t73.5 -25.5z" />
    <glyph glyph-name="tildecomb.aalt" horiz-adv-x="0" 
d="M-651 1554l-144 107q84 111 140.5 150.5t124.5 39.5q53 0 124.5 -50t98.5 -50q25 0 47 18.5t74 81.5l145 -106q-84 -113 -140.5 -152t-121.5 -39q-43 0 -86 25t-78 50.5t-59 25.5q-27 0 -50.5 -20t-74.5 -81z" />
    <glyph glyph-name="uni0304.aalt" horiz-adv-x="0" 
d="M-686 1614v178h645v-178h-645z" />
    <glyph glyph-name="glyph755" horiz-adv-x="0" 
d="M-707 1577v244h258v-244h-258zM-319 1577v244h260v-244h-260z" />
    <glyph glyph-name="glyph756" horiz-adv-x="0" 
d="M-590 1556l-174 50l207 254h274l209 -254l-176 -50l-170 144z" />
    <glyph glyph-name="glyph757" horiz-adv-x="0" 
d="M-385 1546q-160 0 -242 78t-92 211l234 43q6 -160 100 -160t98 160l236 -43q-10 -133 -92 -211t-242 -78z" />
    <glyph glyph-name="glyph758" horiz-adv-x="0" 
d="M-631 1554l-141 107q76 111 129 150.5t115 39.5q51 0 118.5 -50t92.5 -50t46 19.5t60 80.5l141 -106q-74 -113 -127 -152t-114 -39q-51 0 -118 50.5t-93.5 50.5t-47 -20t-61.5 -81z" />
    <glyph glyph-name="glyph759" horiz-adv-x="0" 
d="M-655 1614v178h583v-178h-583z" />
    <glyph glyph-name="glyph760" horiz-adv-x="0" 
d="M-707 1192v244h258v-244h-258zM-319 1192v244h260v-244h-260z" />
    <glyph glyph-name="glyph761" horiz-adv-x="0" 
d="M-590 1174l-174 49l207 256h274l209 -256l-176 -49l-170 143z" />
    <glyph glyph-name="glyph762" horiz-adv-x="0" 
d="M-385 1165q-162 0 -244 78t-92 211l236 43q4 -162 100 -162q92 0 98 162l234 -43q-10 -133 -92 -211t-240 -78z" />
    <glyph glyph-name="glyph763" horiz-adv-x="0" 
d="M-631 1171l-141 107q76 111 129 150.5t115 39.5q51 0 118.5 -49t92.5 -49t46 19.5t60 78.5l141 -106q-74 -111 -127 -151t-114 -40q-51 0 -118 51.5t-93.5 51.5t-47 -21t-61.5 -82z" />
    <glyph glyph-name="glyph764" horiz-adv-x="0" 
d="M-655 1233v178h583v-178h-583z" />
    <glyph glyph-name="tonos.aalt" horiz-adv-x="634" 
d="M219 1130l-213 48l201 256h350z" />
    <glyph glyph-name="glyph766" horiz-adv-x="774" 
d="M389 1546q-164 0 -250 79t-98 210l238 43q6 -160 110 -160q100 0 105 160l239 -43q-12 -131 -97 -210t-247 -79z" />
    <glyph glyph-name="glyph767" horiz-adv-x="774" 
d="M389 1165q-164 0 -250 78t-98 211l238 43q6 -162 110 -162q100 0 105 162l239 -43q-12 -133 -97 -211t-247 -78z" />
    </font>
</defs>
</svg>
